<svg xmlns="http://www.w3.org/2000/svg" viewBox="0 0 840 660" width="100%" height="100%"><polygon points="29.4,-17.0 29.4,17.0 0.0,34.0 -29.4,17.0 -29.4,-17.0 -0.0,-34.0" fill="none" stroke="#cfd6dd" stroke-width="1" opacity="0.5"/><circle cx="0" cy="0" r="2" fill="#cfd6dd" opacity="0.6"/><polygon points="89.4,87.0 89.4,121.0 60.0,138.0 30.6,121.0 30.6,87.0 60.0,70.0" fill="none" stroke="#cfd6dd" stroke-width="1" opacity="0.5"/><circle cx="60" cy="104" r="2" fill="#cfd6dd" opacity="0.6"/><polygon points="29.4,191.0 29.4,225.0 0.0,242.0 -29.4,225.0 -29.4,191.0 -0.0,174.0" fill="none" stroke="#cfd6dd" stroke-width="1" opacity="0.5"/><circle cx="0" cy="208" r="2" fill="#cfd6dd" opacity="0.6"/><polygon points="89.4,295.0 89.4,329.0 60.0,346.0 30.6,329.0 30.6,295.0 60.0,278.0" fill="none" stroke="#cfd6dd" stroke-width="1" opacity="0.5"/><circle cx="60" cy="312" r="2" fill="#cfd6dd" opacity="0.6"/><polygon points="29.4,399.0 29.4,433.0 0.0,450.0 -29.4,433.0 -29.4,399.0 -0.0,382.0" fill="none" stroke="#cfd6dd" stroke-width="1" opacity="0.5"/><circle cx="0" cy="416" r="2" fill="#cfd6dd" opacity="0.6"/><polygon points="89.4,503.0 89.4,537.0 60.0,554.0 30.6,537.0 30.6,503.0 60.0,486.0" fill="none" stroke="#cfd6dd" stroke-width="1" opacity="0.5"/><circle cx="60" cy="520" r="2" fill="#cfd6dd" opacity="0.6"/><polygon points="29.4,607.0 29.4,641.0 0.0,658.0 -29.4,641.0 -29.4,607.0 -0.0,590.0" fill="none" stroke="#cfd6dd" stroke-width="1" opacity="0.5"/><circle cx="0" cy="624" r="2" fill="#cfd6dd" opacity="0.6"/><polygon points="149.4,-17.0 149.4,17.0 120.0,34.0 90.6,17.0 90.6,-17.0 120.0,-34.0" fill="none" stroke="#cfd6dd" stroke-width="1" opacity="0.5"/><circle cx="120" cy="0" r="2" fill="#cfd6dd" opacity="0.6"/><polygon points="209.4,87.0 209.4,121.0 180.0,138.0 150.6,121.0 150.6,87.0 180.0,70.0" fill="none" stroke="#cfd6dd" stroke-width="1" opacity="0.5"/><circle cx="180" cy="104" r="2" fill="#cfd6dd" opacity="0.6"/><polygon points="149.4,191.0 149.4,225.0 120.0,242.0 90.6,225.0 90.6,191.0 120.0,174.0" fill="none" stroke="#cfd6dd" stroke-width="1" opacity="0.5"/><circle cx="120" cy="208" r="2" fill="#cfd6dd" opacity="0.6"/><polygon points="209.4,295.0 209.4,329.0 180.0,346.0 150.6,329.0 150.6,295.0 180.0,278.0" fill="none" stroke="#cfd6dd" stroke-width="1" opacity="0.5"/><circle cx="180" cy="312" r="2" fill="#cfd6dd" opacity="0.6"/><polygon points="149.4,399.0 149.4,433.0 120.0,450.0 90.6,433.0 90.6,399.0 120.0,382.0" fill="none" stroke="#cfd6dd" stroke-width="1" opacity="0.5"/><circle cx="120" cy="416" r="2" fill="#cfd6dd" opacity="0.6"/><polygon points="209.4,503.0 209.4,537.0 180.0,554.0 150.6,537.0 150.6,503.0 180.0,486.0" fill="none" stroke="#cfd6dd" stroke-width="1" opacity="0.5"/><circle cx="180" cy="520" r="2" fill="#cfd6dd" opacity="0.6"/><polygon points="149.4,607.0 149.4,641.0 120.0,658.0 90.6,641.0 90.6,607.0 120.0,590.0" fill="none" stroke="#cfd6dd" stroke-width="1" opacity="0.5"/><circle cx="120" cy="624" r="2" fill="#cfd6dd" opacity="0.6"/><polygon points="269.4,-17.0 269.4,17.0 240.0,34.0 210.6,17.0 210.6,-17.0 240.0,-34.0" fill="none" stroke="#cfd6dd" stroke-width="1" opacity="0.5"/><circle cx="240" cy="0" r="2" fill="#cfd6dd" opacity="0.6"/><polygon points="329.4,87.0 329.4,121.0 300.0,138.0 270.6,121.0 270.6,87.0 300.0,70.0" fill="none" stroke="#cfd6dd" stroke-width="1" opacity="0.5"/><circle cx="300" cy="104" r="2" fill="#cfd6dd" opacity="0.6"/><polygon points="269.4,191.0 269.4,225.0 240.0,242.0 210.6,225.0 210.6,191.0 240.0,174.0" fill="none" stroke="#cfd6dd" stroke-width="1" opacity="0.5"/><circle cx="240" cy="208" r="2" fill="#cfd6dd" opacity="0.6"/><polygon points="329.4,295.0 329.4,329.0 300.0,346.0 270.6,329.0 270.6,295.0 300.0,278.0" fill="none" stroke="#cfd6dd" stroke-width="1" opacity="0.5"/><circle cx="300" cy="312" r="2" fill="#cfd6dd" opacity="0.6"/><polygon points="269.4,399.0 269.4,433.0 240.0,450.0 210.6,433.0 210.6,399.0 240.0,382.0" fill="none" stroke="#cfd6dd" stroke-width="1" opacity="0.5"/><circle cx="240" cy="416" r="2" fill="#cfd6dd" opacity="0.6"/><polygon points="329.4,503.0 329.4,537.0 300.0,554.0 270.6,537.0 270.6,503.0 300.0,486.0" fill="none" stroke="#cfd6dd" stroke-width="1" opacity="0.5"/><circle cx="300" cy="520" r="2" fill="#cfd6dd" opacity="0.6"/><polygon points="269.4,607.0 269.4,641.0 240.0,658.0 210.6,641.0 210.6,607.0 240.0,590.0" fill="none" stroke="#cfd6dd" stroke-width="1" opacity="0.5"/><circle cx="240" cy="624" r="2" fill="#cfd6dd" opacity="0.6"/><polygon points="389.4,-17.0 389.4,17.0 360.0,34.0 330.6,17.0 330.6,-17.0 360.0,-34.0" fill="none" stroke="#cfd6dd" stroke-width="1" opacity="0.5"/><circle cx="360" cy="0" r="2" fill="#cfd6dd" opacity="0.6"/><polygon points="449.4,87.0 449.4,121.0 420.0,138.0 390.6,121.0 390.6,87.0 420.0,70.0" fill="none" stroke="#cfd6dd" stroke-width="1" opacity="0.5"/><circle cx="420" cy="104" r="2" fill="#cfd6dd" opacity="0.6"/><polygon points="389.4,191.0 389.4,225.0 360.0,242.0 330.6,225.0 330.6,191.0 360.0,174.0" fill="none" stroke="#cfd6dd" stroke-width="1" opacity="0.5"/><circle cx="360" cy="208" r="2" fill="#cfd6dd" opacity="0.6"/><polygon points="449.4,295.0 449.4,329.0 420.0,346.0 390.6,329.0 390.6,295.0 420.0,278.0" fill="none" stroke="#cfd6dd" stroke-width="1" opacity="0.5"/><circle cx="420" cy="312" r="2" fill="#cfd6dd" opacity="0.6"/><polygon points="389.4,399.0 389.4,433.0 360.0,450.0 330.6,433.0 330.6,399.0 360.0,382.0" fill="none" stroke="#cfd6dd" stroke-width="1" opacity="0.5"/><circle cx="360" cy="416" r="2" fill="#cfd6dd" opacity="0.6"/><polygon points="449.4,503.0 449.4,537.0 420.0,554.0 390.6,537.0 390.6,503.0 420.0,486.0" fill="none" stroke="#cfd6dd" stroke-width="1" opacity="0.5"/><circle cx="420" cy="520" r="2" fill="#cfd6dd" opacity="0.6"/><polygon points="389.4,607.0 389.4,641.0 360.0,658.0 330.6,641.0 330.6,607.0 360.0,590.0" fill="none" stroke="#cfd6dd" stroke-width="1" opacity="0.5"/><circle cx="360" cy="624" r="2" fill="#cfd6dd" opacity="0.6"/><polygon points="509.4,-17.0 509.4,17.0 480.0,34.0 450.6,17.0 450.6,-17.0 480.0,-34.0" fill="none" stroke="#cfd6dd" stroke-width="1" opacity="0.5"/><circle cx="480" cy="0" r="2" fill="#cfd6dd" opacity="0.6"/><polygon points="569.4,87.0 569.4,121.0 540.0,138.0 510.6,121.0 510.6,87.0 540.0,70.0" fill="none" stroke="#cfd6dd" stroke-width="1" opacity="0.5"/><circle cx="540" cy="104" r="2" fill="#cfd6dd" opacity="0.6"/><polygon points="509.4,191.0 509.4,225.0 480.0,242.0 450.6,225.0 450.6,191.0 480.0,174.0" fill="none" stroke="#cfd6dd" stroke-width="1" opacity="0.5"/><circle cx="480" cy="208" r="2" fill="#cfd6dd" opacity="0.6"/><polygon points="569.4,295.0 569.4,329.0 540.0,346.0 510.6,329.0 510.6,295.0 540.0,278.0" fill="none" stroke="#cfd6dd" stroke-width="1" opacity="0.5"/><circle cx="540" cy="312" r="2" fill="#cfd6dd" opacity="0.6"/><polygon points="509.4,399.0 509.4,433.0 480.0,450.0 450.6,433.0 450.6,399.0 480.0,382.0" fill="none" stroke="#cfd6dd" stroke-width="1" opacity="0.5"/><circle cx="480" cy="416" r="2" fill="#cfd6dd" opacity="0.6"/><polygon points="569.4,503.0 569.4,537.0 540.0,554.0 510.6,537.0 510.6,503.0 540.0,486.0" fill="none" stroke="#cfd6dd" stroke-width="1" opacity="0.5"/><circle cx="540" cy="520" r="2" fill="#cfd6dd" opacity="0.6"/><polygon points="509.4,607.0 509.4,641.0 480.0,658.0 450.6,641.0 450.6,607.0 480.0,590.0" fill="none" stroke="#cfd6dd" stroke-width="1" opacity="0.5"/><circle cx="480" cy="624" r="2" fill="#cfd6dd" opacity="0.6"/><polygon points="629.4,-17.0 629.4,17.0 600.0,34.0 570.6,17.0 570.6,-17.0 600.0,-34.0" fill="none" stroke="#cfd6dd" stroke-width="1" opacity="0.5"/><circle cx="600" cy="0" r="2" fill="#cfd6dd" opacity="0.6"/><polygon points="689.4,87.0 689.4,121.0 660.0,138.0 630.6,121.0 630.6,87.0 660.0,70.0" fill="none" stroke="#cfd6dd" stroke-width="1" opacity="0.5"/><circle cx="660" cy="104" r="2" fill="#cfd6dd" opacity="0.6"/><polygon points="629.4,191.0 629.4,225.0 600.0,242.0 570.6,225.0 570.6,191.0 600.0,174.0" fill="none" stroke="#cfd6dd" stroke-width="1" opacity="0.5"/><circle cx="600" cy="208" r="2" fill="#cfd6dd" opacity="0.6"/><polygon points="689.4,295.0 689.4,329.0 660.0,346.0 630.6,329.0 630.6,295.0 660.0,278.0" fill="none" stroke="#cfd6dd" stroke-width="1" opacity="0.5"/><circle cx="660" cy="312" r="2" fill="#cfd6dd" opacity="0.6"/><polygon points="629.4,399.0 629.4,433.0 600.0,450.0 570.6,433.0 570.6,399.0 600.0,382.0" fill="none" stroke="#cfd6dd" stroke-width="1" opacity="0.5"/><circle cx="600" cy="416" r="2" fill="#cfd6dd" opacity="0.6"/><polygon points="689.4,503.0 689.4,537.0 660.0,554.0 630.6,537.0 630.6,503.0 660.0,486.0" fill="none" stroke="#cfd6dd" stroke-width="1" opacity="0.5"/><circle cx="660" cy="520" r="2" fill="#cfd6dd" opacity="0.6"/><polygon points="629.4,607.0 629.4,641.0 600.0,658.0 570.6,641.0 570.6,607.0 600.0,590.0" fill="none" stroke="#cfd6dd" stroke-width="1" opacity="0.5"/><circle cx="600" cy="624" r="2" fill="#cfd6dd" opacity="0.6"/><polygon points="749.4,-17.0 749.4,17.0 720.0,34.0 690.6,17.0 690.6,-17.0 720.0,-34.0" fill="none" stroke="#cfd6dd" stroke-width="1" opacity="0.5"/><circle cx="720" cy="0" r="2" fill="#cfd6dd" opacity="0.6"/><polygon points="809.4,87.0 809.4,121.0 780.0,138.0 750.6,121.0 750.6,87.0 780.0,70.0" fill="none" stroke="#cfd6dd" stroke-width="1" opacity="0.5"/><circle cx="780" cy="104" r="2" fill="#cfd6dd" opacity="0.6"/><polygon points="749.4,191.0 749.4,225.0 720.0,242.0 690.6,225.0 690.6,191.0 720.0,174.0" fill="none" stroke="#cfd6dd" stroke-width="1" opacity="0.5"/><circle cx="720" cy="208" r="2" fill="#cfd6dd" opacity="0.6"/><polygon points="809.4,295.0 809.4,329.0 780.0,346.0 750.6,329.0 750.6,295.0 780.0,278.0" fill="none" stroke="#cfd6dd" stroke-width="1" opacity="0.5"/><circle cx="780" cy="312" r="2" fill="#cfd6dd" opacity="0.6"/><polygon points="749.4,399.0 749.4,433.0 720.0,450.0 690.6,433.0 690.6,399.0 720.0,382.0" fill="none" stroke="#cfd6dd" stroke-width="1" opacity="0.5"/><circle cx="720" cy="416" r="2" fill="#cfd6dd" opacity="0.6"/><polygon points="809.4,503.0 809.4,537.0 780.0,554.0 750.6,537.0 750.6,503.0 780.0,486.0" fill="none" stroke="#cfd6dd" stroke-width="1" opacity="0.5"/><circle cx="780" cy="520" r="2" fill="#cfd6dd" opacity="0.6"/><polygon points="749.4,607.0 749.4,641.0 720.0,658.0 690.6,641.0 690.6,607.0 720.0,590.0" fill="none" stroke="#cfd6dd" stroke-width="1" opacity="0.5"/><circle cx="720" cy="624" r="2" fill="#cfd6dd" opacity="0.6"/><polygon points="869.4,-17.0 869.4,17.0 840.0,34.0 810.6,17.0 810.6,-17.0 840.0,-34.0" fill="none" stroke="#cfd6dd" stroke-width="1" opacity="0.5"/><circle cx="840" cy="0" r="2" fill="#cfd6dd" opacity="0.6"/><polygon points="929.4,87.0 929.4,121.0 900.0,138.0 870.6,121.0 870.6,87.0 900.0,70.0" fill="none" stroke="#cfd6dd" stroke-width="1" opacity="0.5"/><circle cx="900" cy="104" r="2" fill="#cfd6dd" opacity="0.6"/><polygon points="869.4,191.0 869.4,225.0 840.0,242.0 810.6,225.0 810.6,191.0 840.0,174.0" fill="none" stroke="#cfd6dd" stroke-width="1" opacity="0.5"/><circle cx="840" cy="208" r="2" fill="#cfd6dd" opacity="0.6"/><polygon points="929.4,295.0 929.4,329.0 900.0,346.0 870.6,329.0 870.6,295.0 900.0,278.0" fill="none" stroke="#cfd6dd" stroke-width="1" opacity="0.5"/><circle cx="900" cy="312" r="2" fill="#cfd6dd" opacity="0.6"/><polygon points="869.4,399.0 869.4,433.0 840.0,450.0 810.6,433.0 810.6,399.0 840.0,382.0" fill="none" stroke="#cfd6dd" stroke-width="1" opacity="0.5"/><circle cx="840" cy="416" r="2" fill="#cfd6dd" opacity="0.6"/><polygon points="929.4,503.0 929.4,537.0 900.0,554.0 870.6,537.0 870.6,503.0 900.0,486.0" fill="none" stroke="#cfd6dd" stroke-width="1" opacity="0.5"/><circle cx="900" cy="520" r="2" fill="#cfd6dd" opacity="0.6"/><polygon points="869.4,607.0 869.4,641.0 840.0,658.0 810.6,641.0 810.6,607.0 840.0,590.0" fill="none" stroke="#cfd6dd" stroke-width="1" opacity="0.5"/><circle cx="840" cy="624" r="2" fill="#cfd6dd" opacity="0.6"/></svg>