<svg xmlns="http://www.w3.org/2000/svg" viewBox="0 0 300 1000" preserveAspectRatio="none" width="100%" height="100%"><g transform="translate(300,0) scale(-1,1)"><polygon points="149.6,597.6 84.1,635.3 18.7,597.6 18.7,522.0 84.1,484.2 149.6,522.0" fill="#e9edf1" opacity="0.325"/><polygon points="142.7,540.2 86.6,572.6 30.5,540.2 30.5,475.4 86.6,443.0 142.7,475.4" fill="#e9edf1" opacity="0.320"/><polygon points="91.6,545.0 34.3,578.1 -22.9,545.0 -22.9,478.8 34.3,445.8 91.6,478.8" fill="#e9edf1" opacity="0.428"/><polygon points="195.7,122.0 147.5,149.8 99.2,122.0 99.2,66.3 147.5,38.4 195.7,66.3" fill="#e9edf1" opacity="0.193"/><polygon points="75.9,843.7 16.9,877.8 -42.2,843.7 -42.2,775.5 16.9,741.5 75.9,775.5" fill="#e9edf1" opacity="0.465"/><polygon points="74.4,1020.6 7.8,1059.1 -58.8,1020.6 -58.8,943.8 7.8,905.3 74.4,943.8" fill="#e9edf1" opacity="0.484"/><polygon points="165.8,641.1 121.6,666.6 77.4,641.1 77.4,590.0 121.6,564.5 165.8,590.0" fill="#e9edf1" opacity="0.247"/><polygon points="44.3,552.3 2.8,576.3 -38.7,552.3 -38.7,504.4 2.8,480.5 44.3,504.4" fill="#e9edf1" opacity="0.494"/><polygon points="76.0,265.4 35.4,288.9 -5.3,265.4 -5.3,218.5 35.4,195.0 76.0,218.5" fill="#e9edf1" opacity="0.426"/><polygon points="149.5,477.0 86.3,513.5 23.1,477.0 23.1,404.1 86.3,367.6 149.5,404.1" fill="#e9edf1" opacity="0.320"/><line x1="-40.0" y1="-40.0" x2="36.0" y2="-40.0" stroke="#d3d9df" stroke-width="1" opacity="0.907"/><line x1="-40.0" y1="-40.0" x2="-2.0" y2="-2.0" stroke="#d3d9df" stroke-width="1" opacity="0.979"/><line x1="-40.0" y1="-40.0" x2="-78.0" y2="-2.0" stroke="#d3d9df" stroke-width="1" opacity="1.121"/><line x1="36.0" y1="-40.0" x2="112.0" y2="-40.0" stroke="#d3d9df" stroke-width="1" opacity="0.623"/><line x1="36.0" y1="-40.0" x2="74.0" y2="-2.0" stroke="#d3d9df" stroke-width="1" opacity="0.694"/><line x1="36.0" y1="-40.0" x2="-2.0" y2="-2.0" stroke="#d3d9df" stroke-width="1" opacity="0.836"/><line x1="112.0" y1="-40.0" x2="188.0" y2="-40.0" stroke="#d3d9df" stroke-width="1" opacity="0.338"/><line x1="112.0" y1="-40.0" x2="150.0" y2="-2.0" stroke="#d3d9df" stroke-width="1" opacity="0.409"/><line x1="112.0" y1="-40.0" x2="74.0" y2="-2.0" stroke="#d3d9df" stroke-width="1" opacity="0.551"/><line x1="188.0" y1="-40.0" x2="264.0" y2="-40.0" stroke="#d3d9df" stroke-width="1" opacity="0.053"/><line x1="188.0" y1="-40.0" x2="226.0" y2="-2.0" stroke="#d3d9df" stroke-width="1" opacity="0.124"/><line x1="188.0" y1="-40.0" x2="150.0" y2="-2.0" stroke="#d3d9df" stroke-width="1" opacity="0.266"/><line x1="-2.0" y1="-2.0" x2="74.0" y2="-2.0" stroke="#d3d9df" stroke-width="1" opacity="0.765"/><line x1="-2.0" y1="-2.0" x2="36.0" y2="36.0" stroke="#d3d9df" stroke-width="1" opacity="0.836"/><line x1="-2.0" y1="-2.0" x2="-40.0" y2="36.0" stroke="#d3d9df" stroke-width="1" opacity="0.979"/><line x1="74.0" y1="-2.0" x2="150.0" y2="-2.0" stroke="#d3d9df" stroke-width="1" opacity="0.480"/><line x1="74.0" y1="-2.0" x2="112.0" y2="36.0" stroke="#d3d9df" stroke-width="1" opacity="0.551"/><line x1="74.0" y1="-2.0" x2="36.0" y2="36.0" stroke="#d3d9df" stroke-width="1" opacity="0.694"/><line x1="150.0" y1="-2.0" x2="226.0" y2="-2.0" stroke="#d3d9df" stroke-width="1" opacity="0.195"/><line x1="150.0" y1="-2.0" x2="188.0" y2="36.0" stroke="#d3d9df" stroke-width="1" opacity="0.266"/><line x1="150.0" y1="-2.0" x2="112.0" y2="36.0" stroke="#d3d9df" stroke-width="1" opacity="0.409"/><line x1="226.0" y1="-2.0" x2="188.0" y2="36.0" stroke="#d3d9df" stroke-width="1" opacity="0.124"/><line x1="-40.0" y1="36.0" x2="36.0" y2="36.0" stroke="#d3d9df" stroke-width="1" opacity="0.907"/><line x1="-40.0" y1="36.0" x2="-2.0" y2="74.0" stroke="#d3d9df" stroke-width="1" opacity="0.979"/><line x1="-40.0" y1="36.0" x2="-78.0" y2="74.0" stroke="#d3d9df" stroke-width="1" opacity="1.121"/><line x1="36.0" y1="36.0" x2="112.0" y2="36.0" stroke="#d3d9df" stroke-width="1" opacity="0.623"/><line x1="36.0" y1="36.0" x2="74.0" y2="74.0" stroke="#d3d9df" stroke-width="1" opacity="0.694"/><line x1="36.0" y1="36.0" x2="-2.0" y2="74.0" stroke="#d3d9df" stroke-width="1" opacity="0.836"/><line x1="112.0" y1="36.0" x2="188.0" y2="36.0" stroke="#d3d9df" stroke-width="1" opacity="0.338"/><line x1="112.0" y1="36.0" x2="150.0" y2="74.0" stroke="#d3d9df" stroke-width="1" opacity="0.409"/><line x1="112.0" y1="36.0" x2="74.0" y2="74.0" stroke="#d3d9df" stroke-width="1" opacity="0.551"/><line x1="188.0" y1="36.0" x2="264.0" y2="36.0" stroke="#d3d9df" stroke-width="1" opacity="0.053"/><line x1="188.0" y1="36.0" x2="226.0" y2="74.0" stroke="#d3d9df" stroke-width="1" opacity="0.124"/><line x1="188.0" y1="36.0" x2="150.0" y2="74.0" stroke="#d3d9df" stroke-width="1" opacity="0.266"/><line x1="-2.0" y1="74.0" x2="74.0" y2="74.0" stroke="#d3d9df" stroke-width="1" opacity="0.765"/><line x1="-2.0" y1="74.0" x2="36.0" y2="112.0" stroke="#d3d9df" stroke-width="1" opacity="0.836"/><line x1="-2.0" y1="74.0" x2="-40.0" y2="112.0" stroke="#d3d9df" stroke-width="1" opacity="0.979"/><line x1="74.0" y1="74.0" x2="150.0" y2="74.0" stroke="#d3d9df" stroke-width="1" opacity="0.480"/><line x1="74.0" y1="74.0" x2="112.0" y2="112.0" stroke="#d3d9df" stroke-width="1" opacity="0.551"/><line x1="74.0" y1="74.0" x2="36.0" y2="112.0" stroke="#d3d9df" stroke-width="1" opacity="0.694"/><line x1="150.0" y1="74.0" x2="226.0" y2="74.0" stroke="#d3d9df" stroke-width="1" opacity="0.195"/><line x1="150.0" y1="74.0" x2="188.0" y2="112.0" stroke="#d3d9df" stroke-width="1" opacity="0.266"/><line x1="150.0" y1="74.0" x2="112.0" y2="112.0" stroke="#d3d9df" stroke-width="1" opacity="0.409"/><line x1="226.0" y1="74.0" x2="188.0" y2="112.0" stroke="#d3d9df" stroke-width="1" opacity="0.124"/><line x1="-40.0" y1="112.0" x2="36.0" y2="112.0" stroke="#d3d9df" stroke-width="1" opacity="0.907"/><line x1="-40.0" y1="112.0" x2="-2.0" y2="150.0" stroke="#d3d9df" stroke-width="1" opacity="0.979"/><line x1="-40.0" y1="112.0" x2="-78.0" y2="150.0" stroke="#d3d9df" stroke-width="1" opacity="1.121"/><line x1="36.0" y1="112.0" x2="112.0" y2="112.0" stroke="#d3d9df" stroke-width="1" opacity="0.623"/><line x1="36.0" y1="112.0" x2="74.0" y2="150.0" stroke="#d3d9df" stroke-width="1" opacity="0.694"/><line x1="36.0" y1="112.0" x2="-2.0" y2="150.0" stroke="#d3d9df" stroke-width="1" opacity="0.836"/><line x1="112.0" y1="112.0" x2="188.0" y2="112.0" stroke="#d3d9df" stroke-width="1" opacity="0.338"/><line x1="112.0" y1="112.0" x2="150.0" y2="150.0" stroke="#d3d9df" stroke-width="1" opacity="0.409"/><line x1="112.0" y1="112.0" x2="74.0" y2="150.0" stroke="#d3d9df" stroke-width="1" opacity="0.551"/><line x1="188.0" y1="112.0" x2="264.0" y2="112.0" stroke="#d3d9df" stroke-width="1" opacity="0.053"/><line x1="188.0" y1="112.0" x2="226.0" y2="150.0" stroke="#d3d9df" stroke-width="1" opacity="0.124"/><line x1="188.0" y1="112.0" x2="150.0" y2="150.0" stroke="#d3d9df" stroke-width="1" opacity="0.266"/><line x1="-2.0" y1="150.0" x2="74.0" y2="150.0" stroke="#d3d9df" stroke-width="1" opacity="0.765"/><line x1="-2.0" y1="150.0" x2="36.0" y2="188.0" stroke="#d3d9df" stroke-width="1" opacity="0.836"/><line x1="-2.0" y1="150.0" x2="-40.0" y2="188.0" stroke="#d3d9df" stroke-width="1" opacity="0.979"/><line x1="74.0" y1="150.0" x2="150.0" y2="150.0" stroke="#d3d9df" stroke-width="1" opacity="0.480"/><line x1="74.0" y1="150.0" x2="112.0" y2="188.0" stroke="#d3d9df" stroke-width="1" opacity="0.551"/><line x1="74.0" y1="150.0" x2="36.0" y2="188.0" stroke="#d3d9df" stroke-width="1" opacity="0.694"/><line x1="150.0" y1="150.0" x2="226.0" y2="150.0" stroke="#d3d9df" stroke-width="1" opacity="0.195"/><line x1="150.0" y1="150.0" x2="188.0" y2="188.0" stroke="#d3d9df" stroke-width="1" opacity="0.266"/><line x1="150.0" y1="150.0" x2="112.0" y2="188.0" stroke="#d3d9df" stroke-width="1" opacity="0.409"/><line x1="226.0" y1="150.0" x2="188.0" y2="188.0" stroke="#d3d9df" stroke-width="1" opacity="0.124"/><line x1="-40.0" y1="188.0" x2="36.0" y2="188.0" stroke="#d3d9df" stroke-width="1" opacity="0.907"/><line x1="-40.0" y1="188.0" x2="-2.0" y2="226.0" stroke="#d3d9df" stroke-width="1" opacity="0.979"/><line x1="-40.0" y1="188.0" x2="-78.0" y2="226.0" stroke="#d3d9df" stroke-width="1" opacity="1.121"/><line x1="36.0" y1="188.0" x2="112.0" y2="188.0" stroke="#d3d9df" stroke-width="1" opacity="0.623"/><line x1="36.0" y1="188.0" x2="74.0" y2="226.0" stroke="#d3d9df" stroke-width="1" opacity="0.694"/><line x1="36.0" y1="188.0" x2="-2.0" y2="226.0" stroke="#d3d9df" stroke-width="1" opacity="0.836"/><line x1="112.0" y1="188.0" x2="188.0" y2="188.0" stroke="#d3d9df" stroke-width="1" opacity="0.338"/><line x1="112.0" y1="188.0" x2="150.0" y2="226.0" stroke="#d3d9df" stroke-width="1" opacity="0.409"/><line x1="112.0" y1="188.0" x2="74.0" y2="226.0" stroke="#d3d9df" stroke-width="1" opacity="0.551"/><line x1="188.0" y1="188.0" x2="264.0" y2="188.0" stroke="#d3d9df" stroke-width="1" opacity="0.053"/><line x1="188.0" y1="188.0" x2="226.0" y2="226.0" stroke="#d3d9df" stroke-width="1" opacity="0.124"/><line x1="188.0" y1="188.0" x2="150.0" y2="226.0" stroke="#d3d9df" stroke-width="1" opacity="0.266"/><line x1="-2.0" y1="226.0" x2="74.0" y2="226.0" stroke="#d3d9df" stroke-width="1" opacity="0.765"/><line x1="-2.0" y1="226.0" x2="36.0" y2="264.0" stroke="#d3d9df" stroke-width="1" opacity="0.836"/><line x1="-2.0" y1="226.0" x2="-40.0" y2="264.0" stroke="#d3d9df" stroke-width="1" opacity="0.979"/><line x1="74.0" y1="226.0" x2="150.0" y2="226.0" stroke="#d3d9df" stroke-width="1" opacity="0.480"/><line x1="74.0" y1="226.0" x2="112.0" y2="264.0" stroke="#d3d9df" stroke-width="1" opacity="0.551"/><line x1="74.0" y1="226.0" x2="36.0" y2="264.0" stroke="#d3d9df" stroke-width="1" opacity="0.694"/><line x1="150.0" y1="226.0" x2="226.0" y2="226.0" stroke="#d3d9df" stroke-width="1" opacity="0.195"/><line x1="150.0" y1="226.0" x2="188.0" y2="264.0" stroke="#d3d9df" stroke-width="1" opacity="0.266"/><line x1="150.0" y1="226.0" x2="112.0" y2="264.0" stroke="#d3d9df" stroke-width="1" opacity="0.409"/><line x1="226.0" y1="226.0" x2="188.0" y2="264.0" stroke="#d3d9df" stroke-width="1" opacity="0.124"/><line x1="-40.0" y1="264.0" x2="36.0" y2="264.0" stroke="#d3d9df" stroke-width="1" opacity="0.907"/><line x1="-40.0" y1="264.0" x2="-2.0" y2="302.0" stroke="#d3d9df" stroke-width="1" opacity="0.979"/><line x1="-40.0" y1="264.0" x2="-78.0" y2="302.0" stroke="#d3d9df" stroke-width="1" opacity="1.121"/><line x1="36.0" y1="264.0" x2="112.0" y2="264.0" stroke="#d3d9df" stroke-width="1" opacity="0.623"/><line x1="36.0" y1="264.0" x2="74.0" y2="302.0" stroke="#d3d9df" stroke-width="1" opacity="0.694"/><line x1="36.0" y1="264.0" x2="-2.0" y2="302.0" stroke="#d3d9df" stroke-width="1" opacity="0.836"/><line x1="112.0" y1="264.0" x2="188.0" y2="264.0" stroke="#d3d9df" stroke-width="1" opacity="0.338"/><line x1="112.0" y1="264.0" x2="150.0" y2="302.0" stroke="#d3d9df" stroke-width="1" opacity="0.409"/><line x1="112.0" y1="264.0" x2="74.0" y2="302.0" stroke="#d3d9df" stroke-width="1" opacity="0.551"/><line x1="188.0" y1="264.0" x2="264.0" y2="264.0" stroke="#d3d9df" stroke-width="1" opacity="0.053"/><line x1="188.0" y1="264.0" x2="226.0" y2="302.0" stroke="#d3d9df" stroke-width="1" opacity="0.124"/><line x1="188.0" y1="264.0" x2="150.0" y2="302.0" stroke="#d3d9df" stroke-width="1" opacity="0.266"/><line x1="-2.0" y1="302.0" x2="74.0" y2="302.0" stroke="#d3d9df" stroke-width="1" opacity="0.765"/><line x1="-2.0" y1="302.0" x2="36.0" y2="340.0" stroke="#d3d9df" stroke-width="1" opacity="0.836"/><line x1="-2.0" y1="302.0" x2="-40.0" y2="340.0" stroke="#d3d9df" stroke-width="1" opacity="0.979"/><line x1="74.0" y1="302.0" x2="150.0" y2="302.0" stroke="#d3d9df" stroke-width="1" opacity="0.480"/><line x1="74.0" y1="302.0" x2="112.0" y2="340.0" stroke="#d3d9df" stroke-width="1" opacity="0.551"/><line x1="74.0" y1="302.0" x2="36.0" y2="340.0" stroke="#d3d9df" stroke-width="1" opacity="0.694"/><line x1="150.0" y1="302.0" x2="226.0" y2="302.0" stroke="#d3d9df" stroke-width="1" opacity="0.195"/><line x1="150.0" y1="302.0" x2="188.0" y2="340.0" stroke="#d3d9df" stroke-width="1" opacity="0.266"/><line x1="150.0" y1="302.0" x2="112.0" y2="340.0" stroke="#d3d9df" stroke-width="1" opacity="0.409"/><line x1="226.0" y1="302.0" x2="188.0" y2="340.0" stroke="#d3d9df" stroke-width="1" opacity="0.124"/><line x1="-40.0" y1="340.0" x2="36.0" y2="340.0" stroke="#d3d9df" stroke-width="1" opacity="0.907"/><line x1="-40.0" y1="340.0" x2="-2.0" y2="378.0" stroke="#d3d9df" stroke-width="1" opacity="0.979"/><line x1="-40.0" y1="340.0" x2="-78.0" y2="378.0" stroke="#d3d9df" stroke-width="1" opacity="1.121"/><line x1="36.0" y1="340.0" x2="112.0" y2="340.0" stroke="#d3d9df" stroke-width="1" opacity="0.623"/><line x1="36.0" y1="340.0" x2="74.0" y2="378.0" stroke="#d3d9df" stroke-width="1" opacity="0.694"/><line x1="36.0" y1="340.0" x2="-2.0" y2="378.0" stroke="#d3d9df" stroke-width="1" opacity="0.836"/><line x1="112.0" y1="340.0" x2="188.0" y2="340.0" stroke="#d3d9df" stroke-width="1" opacity="0.338"/><line x1="112.0" y1="340.0" x2="150.0" y2="378.0" stroke="#d3d9df" stroke-width="1" opacity="0.409"/><line x1="112.0" y1="340.0" x2="74.0" y2="378.0" stroke="#d3d9df" stroke-width="1" opacity="0.551"/><line x1="188.0" y1="340.0" x2="264.0" y2="340.0" stroke="#d3d9df" stroke-width="1" opacity="0.053"/><line x1="188.0" y1="340.0" x2="226.0" y2="378.0" stroke="#d3d9df" stroke-width="1" opacity="0.124"/><line x1="188.0" y1="340.0" x2="150.0" y2="378.0" stroke="#d3d9df" stroke-width="1" opacity="0.266"/><line x1="-2.0" y1="378.0" x2="74.0" y2="378.0" stroke="#d3d9df" stroke-width="1" opacity="0.765"/><line x1="-2.0" y1="378.0" x2="36.0" y2="416.0" stroke="#d3d9df" stroke-width="1" opacity="0.836"/><line x1="-2.0" y1="378.0" x2="-40.0" y2="416.0" stroke="#d3d9df" stroke-width="1" opacity="0.979"/><line x1="74.0" y1="378.0" x2="150.0" y2="378.0" stroke="#d3d9df" stroke-width="1" opacity="0.480"/><line x1="74.0" y1="378.0" x2="112.0" y2="416.0" stroke="#d3d9df" stroke-width="1" opacity="0.551"/><line x1="74.0" y1="378.0" x2="36.0" y2="416.0" stroke="#d3d9df" stroke-width="1" opacity="0.694"/><line x1="150.0" y1="378.0" x2="226.0" y2="378.0" stroke="#d3d9df" stroke-width="1" opacity="0.195"/><line x1="150.0" y1="378.0" x2="188.0" y2="416.0" stroke="#d3d9df" stroke-width="1" opacity="0.266"/><line x1="150.0" y1="378.0" x2="112.0" y2="416.0" stroke="#d3d9df" stroke-width="1" opacity="0.409"/><line x1="226.0" y1="378.0" x2="188.0" y2="416.0" stroke="#d3d9df" stroke-width="1" opacity="0.124"/><line x1="-40.0" y1="416.0" x2="36.0" y2="416.0" stroke="#d3d9df" stroke-width="1" opacity="0.907"/><line x1="-40.0" y1="416.0" x2="-2.0" y2="454.0" stroke="#d3d9df" stroke-width="1" opacity="0.979"/><line x1="-40.0" y1="416.0" x2="-78.0" y2="454.0" stroke="#d3d9df" stroke-width="1" opacity="1.121"/><line x1="36.0" y1="416.0" x2="112.0" y2="416.0" stroke="#d3d9df" stroke-width="1" opacity="0.623"/><line x1="36.0" y1="416.0" x2="74.0" y2="454.0" stroke="#d3d9df" stroke-width="1" opacity="0.694"/><line x1="36.0" y1="416.0" x2="-2.0" y2="454.0" stroke="#d3d9df" stroke-width="1" opacity="0.836"/><line x1="112.0" y1="416.0" x2="188.0" y2="416.0" stroke="#d3d9df" stroke-width="1" opacity="0.338"/><line x1="112.0" y1="416.0" x2="150.0" y2="454.0" stroke="#d3d9df" stroke-width="1" opacity="0.409"/><line x1="112.0" y1="416.0" x2="74.0" y2="454.0" stroke="#d3d9df" stroke-width="1" opacity="0.551"/><line x1="188.0" y1="416.0" x2="264.0" y2="416.0" stroke="#d3d9df" stroke-width="1" opacity="0.053"/><line x1="188.0" y1="416.0" x2="226.0" y2="454.0" stroke="#d3d9df" stroke-width="1" opacity="0.124"/><line x1="188.0" y1="416.0" x2="150.0" y2="454.0" stroke="#d3d9df" stroke-width="1" opacity="0.266"/><line x1="-2.0" y1="454.0" x2="74.0" y2="454.0" stroke="#d3d9df" stroke-width="1" opacity="0.765"/><line x1="-2.0" y1="454.0" x2="36.0" y2="492.0" stroke="#d3d9df" stroke-width="1" opacity="0.836"/><line x1="-2.0" y1="454.0" x2="-40.0" y2="492.0" stroke="#d3d9df" stroke-width="1" opacity="0.979"/><line x1="74.0" y1="454.0" x2="150.0" y2="454.0" stroke="#d3d9df" stroke-width="1" opacity="0.480"/><line x1="74.0" y1="454.0" x2="112.0" y2="492.0" stroke="#d3d9df" stroke-width="1" opacity="0.551"/><line x1="74.0" y1="454.0" x2="36.0" y2="492.0" stroke="#d3d9df" stroke-width="1" opacity="0.694"/><line x1="150.0" y1="454.0" x2="226.0" y2="454.0" stroke="#d3d9df" stroke-width="1" opacity="0.195"/><line x1="150.0" y1="454.0" x2="188.0" y2="492.0" stroke="#d3d9df" stroke-width="1" opacity="0.266"/><line x1="150.0" y1="454.0" x2="112.0" y2="492.0" stroke="#d3d9df" stroke-width="1" opacity="0.409"/><line x1="226.0" y1="454.0" x2="188.0" y2="492.0" stroke="#d3d9df" stroke-width="1" opacity="0.124"/><line x1="-40.0" y1="492.0" x2="36.0" y2="492.0" stroke="#d3d9df" stroke-width="1" opacity="0.907"/><line x1="-40.0" y1="492.0" x2="-2.0" y2="530.0" stroke="#d3d9df" stroke-width="1" opacity="0.979"/><line x1="-40.0" y1="492.0" x2="-78.0" y2="530.0" stroke="#d3d9df" stroke-width="1" opacity="1.121"/><line x1="36.0" y1="492.0" x2="112.0" y2="492.0" stroke="#d3d9df" stroke-width="1" opacity="0.623"/><line x1="36.0" y1="492.0" x2="74.0" y2="530.0" stroke="#d3d9df" stroke-width="1" opacity="0.694"/><line x1="36.0" y1="492.0" x2="-2.0" y2="530.0" stroke="#d3d9df" stroke-width="1" opacity="0.836"/><line x1="112.0" y1="492.0" x2="188.0" y2="492.0" stroke="#d3d9df" stroke-width="1" opacity="0.338"/><line x1="112.0" y1="492.0" x2="150.0" y2="530.0" stroke="#d3d9df" stroke-width="1" opacity="0.409"/><line x1="112.0" y1="492.0" x2="74.0" y2="530.0" stroke="#d3d9df" stroke-width="1" opacity="0.551"/><line x1="188.0" y1="492.0" x2="264.0" y2="492.0" stroke="#d3d9df" stroke-width="1" opacity="0.053"/><line x1="188.0" y1="492.0" x2="226.0" y2="530.0" stroke="#d3d9df" stroke-width="1" opacity="0.124"/><line x1="188.0" y1="492.0" x2="150.0" y2="530.0" stroke="#d3d9df" stroke-width="1" opacity="0.266"/><line x1="-2.0" y1="530.0" x2="74.0" y2="530.0" stroke="#d3d9df" stroke-width="1" opacity="0.765"/><line x1="-2.0" y1="530.0" x2="36.0" y2="568.0" stroke="#d3d9df" stroke-width="1" opacity="0.836"/><line x1="-2.0" y1="530.0" x2="-40.0" y2="568.0" stroke="#d3d9df" stroke-width="1" opacity="0.979"/><line x1="74.0" y1="530.0" x2="150.0" y2="530.0" stroke="#d3d9df" stroke-width="1" opacity="0.480"/><line x1="74.0" y1="530.0" x2="112.0" y2="568.0" stroke="#d3d9df" stroke-width="1" opacity="0.551"/><line x1="74.0" y1="530.0" x2="36.0" y2="568.0" stroke="#d3d9df" stroke-width="1" opacity="0.694"/><line x1="150.0" y1="530.0" x2="226.0" y2="530.0" stroke="#d3d9df" stroke-width="1" opacity="0.195"/><line x1="150.0" y1="530.0" x2="188.0" y2="568.0" stroke="#d3d9df" stroke-width="1" opacity="0.266"/><line x1="150.0" y1="530.0" x2="112.0" y2="568.0" stroke="#d3d9df" stroke-width="1" opacity="0.409"/><line x1="226.0" y1="530.0" x2="188.0" y2="568.0" stroke="#d3d9df" stroke-width="1" opacity="0.124"/><line x1="-40.0" y1="568.0" x2="36.0" y2="568.0" stroke="#d3d9df" stroke-width="1" opacity="0.907"/><line x1="-40.0" y1="568.0" x2="-2.0" y2="606.0" stroke="#d3d9df" stroke-width="1" opacity="0.979"/><line x1="-40.0" y1="568.0" x2="-78.0" y2="606.0" stroke="#d3d9df" stroke-width="1" opacity="1.121"/><line x1="36.0" y1="568.0" x2="112.0" y2="568.0" stroke="#d3d9df" stroke-width="1" opacity="0.623"/><line x1="36.0" y1="568.0" x2="74.0" y2="606.0" stroke="#d3d9df" stroke-width="1" opacity="0.694"/><line x1="36.0" y1="568.0" x2="-2.0" y2="606.0" stroke="#d3d9df" stroke-width="1" opacity="0.836"/><line x1="112.0" y1="568.0" x2="188.0" y2="568.0" stroke="#d3d9df" stroke-width="1" opacity="0.338"/><line x1="112.0" y1="568.0" x2="150.0" y2="606.0" stroke="#d3d9df" stroke-width="1" opacity="0.409"/><line x1="112.0" y1="568.0" x2="74.0" y2="606.0" stroke="#d3d9df" stroke-width="1" opacity="0.551"/><line x1="188.0" y1="568.0" x2="264.0" y2="568.0" stroke="#d3d9df" stroke-width="1" opacity="0.053"/><line x1="188.0" y1="568.0" x2="226.0" y2="606.0" stroke="#d3d9df" stroke-width="1" opacity="0.124"/><line x1="188.0" y1="568.0" x2="150.0" y2="606.0" stroke="#d3d9df" stroke-width="1" opacity="0.266"/><line x1="-2.0" y1="606.0" x2="74.0" y2="606.0" stroke="#d3d9df" stroke-width="1" opacity="0.765"/><line x1="-2.0" y1="606.0" x2="36.0" y2="644.0" stroke="#d3d9df" stroke-width="1" opacity="0.836"/><line x1="-2.0" y1="606.0" x2="-40.0" y2="644.0" stroke="#d3d9df" stroke-width="1" opacity="0.979"/><line x1="74.0" y1="606.0" x2="150.0" y2="606.0" stroke="#d3d9df" stroke-width="1" opacity="0.480"/><line x1="74.0" y1="606.0" x2="112.0" y2="644.0" stroke="#d3d9df" stroke-width="1" opacity="0.551"/><line x1="74.0" y1="606.0" x2="36.0" y2="644.0" stroke="#d3d9df" stroke-width="1" opacity="0.694"/><line x1="150.0" y1="606.0" x2="226.0" y2="606.0" stroke="#d3d9df" stroke-width="1" opacity="0.195"/><line x1="150.0" y1="606.0" x2="188.0" y2="644.0" stroke="#d3d9df" stroke-width="1" opacity="0.266"/><line x1="150.0" y1="606.0" x2="112.0" y2="644.0" stroke="#d3d9df" stroke-width="1" opacity="0.409"/><line x1="226.0" y1="606.0" x2="188.0" y2="644.0" stroke="#d3d9df" stroke-width="1" opacity="0.124"/><line x1="-40.0" y1="644.0" x2="36.0" y2="644.0" stroke="#d3d9df" stroke-width="1" opacity="0.907"/><line x1="-40.0" y1="644.0" x2="-2.0" y2="682.0" stroke="#d3d9df" stroke-width="1" opacity="0.979"/><line x1="-40.0" y1="644.0" x2="-78.0" y2="682.0" stroke="#d3d9df" stroke-width="1" opacity="1.121"/><line x1="36.0" y1="644.0" x2="112.0" y2="644.0" stroke="#d3d9df" stroke-width="1" opacity="0.623"/><line x1="36.0" y1="644.0" x2="74.0" y2="682.0" stroke="#d3d9df" stroke-width="1" opacity="0.694"/><line x1="36.0" y1="644.0" x2="-2.0" y2="682.0" stroke="#d3d9df" stroke-width="1" opacity="0.836"/><line x1="112.0" y1="644.0" x2="188.0" y2="644.0" stroke="#d3d9df" stroke-width="1" opacity="0.338"/><line x1="112.0" y1="644.0" x2="150.0" y2="682.0" stroke="#d3d9df" stroke-width="1" opacity="0.409"/><line x1="112.0" y1="644.0" x2="74.0" y2="682.0" stroke="#d3d9df" stroke-width="1" opacity="0.551"/><line x1="188.0" y1="644.0" x2="264.0" y2="644.0" stroke="#d3d9df" stroke-width="1" opacity="0.053"/><line x1="188.0" y1="644.0" x2="226.0" y2="682.0" stroke="#d3d9df" stroke-width="1" opacity="0.124"/><line x1="188.0" y1="644.0" x2="150.0" y2="682.0" stroke="#d3d9df" stroke-width="1" opacity="0.266"/><line x1="-2.0" y1="682.0" x2="74.0" y2="682.0" stroke="#d3d9df" stroke-width="1" opacity="0.765"/><line x1="-2.0" y1="682.0" x2="36.0" y2="720.0" stroke="#d3d9df" stroke-width="1" opacity="0.836"/><line x1="-2.0" y1="682.0" x2="-40.0" y2="720.0" stroke="#d3d9df" stroke-width="1" opacity="0.979"/><line x1="74.0" y1="682.0" x2="150.0" y2="682.0" stroke="#d3d9df" stroke-width="1" opacity="0.480"/><line x1="74.0" y1="682.0" x2="112.0" y2="720.0" stroke="#d3d9df" stroke-width="1" opacity="0.551"/><line x1="74.0" y1="682.0" x2="36.0" y2="720.0" stroke="#d3d9df" stroke-width="1" opacity="0.694"/><line x1="150.0" y1="682.0" x2="226.0" y2="682.0" stroke="#d3d9df" stroke-width="1" opacity="0.195"/><line x1="150.0" y1="682.0" x2="188.0" y2="720.0" stroke="#d3d9df" stroke-width="1" opacity="0.266"/><line x1="150.0" y1="682.0" x2="112.0" y2="720.0" stroke="#d3d9df" stroke-width="1" opacity="0.409"/><line x1="226.0" y1="682.0" x2="188.0" y2="720.0" stroke="#d3d9df" stroke-width="1" opacity="0.124"/><line x1="-40.0" y1="720.0" x2="36.0" y2="720.0" stroke="#d3d9df" stroke-width="1" opacity="0.907"/><line x1="-40.0" y1="720.0" x2="-2.0" y2="758.0" stroke="#d3d9df" stroke-width="1" opacity="0.979"/><line x1="-40.0" y1="720.0" x2="-78.0" y2="758.0" stroke="#d3d9df" stroke-width="1" opacity="1.121"/><line x1="36.0" y1="720.0" x2="112.0" y2="720.0" stroke="#d3d9df" stroke-width="1" opacity="0.623"/><line x1="36.0" y1="720.0" x2="74.0" y2="758.0" stroke="#d3d9df" stroke-width="1" opacity="0.694"/><line x1="36.0" y1="720.0" x2="-2.0" y2="758.0" stroke="#d3d9df" stroke-width="1" opacity="0.836"/><line x1="112.0" y1="720.0" x2="188.0" y2="720.0" stroke="#d3d9df" stroke-width="1" opacity="0.338"/><line x1="112.0" y1="720.0" x2="150.0" y2="758.0" stroke="#d3d9df" stroke-width="1" opacity="0.409"/><line x1="112.0" y1="720.0" x2="74.0" y2="758.0" stroke="#d3d9df" stroke-width="1" opacity="0.551"/><line x1="188.0" y1="720.0" x2="264.0" y2="720.0" stroke="#d3d9df" stroke-width="1" opacity="0.053"/><line x1="188.0" y1="720.0" x2="226.0" y2="758.0" stroke="#d3d9df" stroke-width="1" opacity="0.124"/><line x1="188.0" y1="720.0" x2="150.0" y2="758.0" stroke="#d3d9df" stroke-width="1" opacity="0.266"/><line x1="-2.0" y1="758.0" x2="74.0" y2="758.0" stroke="#d3d9df" stroke-width="1" opacity="0.765"/><line x1="-2.0" y1="758.0" x2="36.0" y2="796.0" stroke="#d3d9df" stroke-width="1" opacity="0.836"/><line x1="-2.0" y1="758.0" x2="-40.0" y2="796.0" stroke="#d3d9df" stroke-width="1" opacity="0.979"/><line x1="74.0" y1="758.0" x2="150.0" y2="758.0" stroke="#d3d9df" stroke-width="1" opacity="0.480"/><line x1="74.0" y1="758.0" x2="112.0" y2="796.0" stroke="#d3d9df" stroke-width="1" opacity="0.551"/><line x1="74.0" y1="758.0" x2="36.0" y2="796.0" stroke="#d3d9df" stroke-width="1" opacity="0.694"/><line x1="150.0" y1="758.0" x2="226.0" y2="758.0" stroke="#d3d9df" stroke-width="1" opacity="0.195"/><line x1="150.0" y1="758.0" x2="188.0" y2="796.0" stroke="#d3d9df" stroke-width="1" opacity="0.266"/><line x1="150.0" y1="758.0" x2="112.0" y2="796.0" stroke="#d3d9df" stroke-width="1" opacity="0.409"/><line x1="226.0" y1="758.0" x2="188.0" y2="796.0" stroke="#d3d9df" stroke-width="1" opacity="0.124"/><line x1="-40.0" y1="796.0" x2="36.0" y2="796.0" stroke="#d3d9df" stroke-width="1" opacity="0.907"/><line x1="-40.0" y1="796.0" x2="-2.0" y2="834.0" stroke="#d3d9df" stroke-width="1" opacity="0.979"/><line x1="-40.0" y1="796.0" x2="-78.0" y2="834.0" stroke="#d3d9df" stroke-width="1" opacity="1.121"/><line x1="36.0" y1="796.0" x2="112.0" y2="796.0" stroke="#d3d9df" stroke-width="1" opacity="0.623"/><line x1="36.0" y1="796.0" x2="74.0" y2="834.0" stroke="#d3d9df" stroke-width="1" opacity="0.694"/><line x1="36.0" y1="796.0" x2="-2.0" y2="834.0" stroke="#d3d9df" stroke-width="1" opacity="0.836"/><line x1="112.0" y1="796.0" x2="188.0" y2="796.0" stroke="#d3d9df" stroke-width="1" opacity="0.338"/><line x1="112.0" y1="796.0" x2="150.0" y2="834.0" stroke="#d3d9df" stroke-width="1" opacity="0.409"/><line x1="112.0" y1="796.0" x2="74.0" y2="834.0" stroke="#d3d9df" stroke-width="1" opacity="0.551"/><line x1="188.0" y1="796.0" x2="264.0" y2="796.0" stroke="#d3d9df" stroke-width="1" opacity="0.053"/><line x1="188.0" y1="796.0" x2="226.0" y2="834.0" stroke="#d3d9df" stroke-width="1" opacity="0.124"/><line x1="188.0" y1="796.0" x2="150.0" y2="834.0" stroke="#d3d9df" stroke-width="1" opacity="0.266"/><line x1="-2.0" y1="834.0" x2="74.0" y2="834.0" stroke="#d3d9df" stroke-width="1" opacity="0.765"/><line x1="-2.0" y1="834.0" x2="36.0" y2="872.0" stroke="#d3d9df" stroke-width="1" opacity="0.836"/><line x1="-2.0" y1="834.0" x2="-40.0" y2="872.0" stroke="#d3d9df" stroke-width="1" opacity="0.979"/><line x1="74.0" y1="834.0" x2="150.0" y2="834.0" stroke="#d3d9df" stroke-width="1" opacity="0.480"/><line x1="74.0" y1="834.0" x2="112.0" y2="872.0" stroke="#d3d9df" stroke-width="1" opacity="0.551"/><line x1="74.0" y1="834.0" x2="36.0" y2="872.0" stroke="#d3d9df" stroke-width="1" opacity="0.694"/><line x1="150.0" y1="834.0" x2="226.0" y2="834.0" stroke="#d3d9df" stroke-width="1" opacity="0.195"/><line x1="150.0" y1="834.0" x2="188.0" y2="872.0" stroke="#d3d9df" stroke-width="1" opacity="0.266"/><line x1="150.0" y1="834.0" x2="112.0" y2="872.0" stroke="#d3d9df" stroke-width="1" opacity="0.409"/><line x1="226.0" y1="834.0" x2="188.0" y2="872.0" stroke="#d3d9df" stroke-width="1" opacity="0.124"/><line x1="-40.0" y1="872.0" x2="36.0" y2="872.0" stroke="#d3d9df" stroke-width="1" opacity="0.907"/><line x1="-40.0" y1="872.0" x2="-2.0" y2="910.0" stroke="#d3d9df" stroke-width="1" opacity="0.979"/><line x1="-40.0" y1="872.0" x2="-78.0" y2="910.0" stroke="#d3d9df" stroke-width="1" opacity="1.121"/><line x1="36.0" y1="872.0" x2="112.0" y2="872.0" stroke="#d3d9df" stroke-width="1" opacity="0.623"/><line x1="36.0" y1="872.0" x2="74.0" y2="910.0" stroke="#d3d9df" stroke-width="1" opacity="0.694"/><line x1="36.0" y1="872.0" x2="-2.0" y2="910.0" stroke="#d3d9df" stroke-width="1" opacity="0.836"/><line x1="112.0" y1="872.0" x2="188.0" y2="872.0" stroke="#d3d9df" stroke-width="1" opacity="0.338"/><line x1="112.0" y1="872.0" x2="150.0" y2="910.0" stroke="#d3d9df" stroke-width="1" opacity="0.409"/><line x1="112.0" y1="872.0" x2="74.0" y2="910.0" stroke="#d3d9df" stroke-width="1" opacity="0.551"/><line x1="188.0" y1="872.0" x2="264.0" y2="872.0" stroke="#d3d9df" stroke-width="1" opacity="0.053"/><line x1="188.0" y1="872.0" x2="226.0" y2="910.0" stroke="#d3d9df" stroke-width="1" opacity="0.124"/><line x1="188.0" y1="872.0" x2="150.0" y2="910.0" stroke="#d3d9df" stroke-width="1" opacity="0.266"/><line x1="-2.0" y1="910.0" x2="74.0" y2="910.0" stroke="#d3d9df" stroke-width="1" opacity="0.765"/><line x1="-2.0" y1="910.0" x2="36.0" y2="948.0" stroke="#d3d9df" stroke-width="1" opacity="0.836"/><line x1="-2.0" y1="910.0" x2="-40.0" y2="948.0" stroke="#d3d9df" stroke-width="1" opacity="0.979"/><line x1="74.0" y1="910.0" x2="150.0" y2="910.0" stroke="#d3d9df" stroke-width="1" opacity="0.480"/><line x1="74.0" y1="910.0" x2="112.0" y2="948.0" stroke="#d3d9df" stroke-width="1" opacity="0.551"/><line x1="74.0" y1="910.0" x2="36.0" y2="948.0" stroke="#d3d9df" stroke-width="1" opacity="0.694"/><line x1="150.0" y1="910.0" x2="226.0" y2="910.0" stroke="#d3d9df" stroke-width="1" opacity="0.195"/><line x1="150.0" y1="910.0" x2="188.0" y2="948.0" stroke="#d3d9df" stroke-width="1" opacity="0.266"/><line x1="150.0" y1="910.0" x2="112.0" y2="948.0" stroke="#d3d9df" stroke-width="1" opacity="0.409"/><line x1="226.0" y1="910.0" x2="188.0" y2="948.0" stroke="#d3d9df" stroke-width="1" opacity="0.124"/><line x1="-40.0" y1="948.0" x2="36.0" y2="948.0" stroke="#d3d9df" stroke-width="1" opacity="0.907"/><line x1="-40.0" y1="948.0" x2="-2.0" y2="986.0" stroke="#d3d9df" stroke-width="1" opacity="0.979"/><line x1="-40.0" y1="948.0" x2="-78.0" y2="986.0" stroke="#d3d9df" stroke-width="1" opacity="1.121"/><line x1="36.0" y1="948.0" x2="112.0" y2="948.0" stroke="#d3d9df" stroke-width="1" opacity="0.623"/><line x1="36.0" y1="948.0" x2="74.0" y2="986.0" stroke="#d3d9df" stroke-width="1" opacity="0.694"/><line x1="36.0" y1="948.0" x2="-2.0" y2="986.0" stroke="#d3d9df" stroke-width="1" opacity="0.836"/><line x1="112.0" y1="948.0" x2="188.0" y2="948.0" stroke="#d3d9df" stroke-width="1" opacity="0.338"/><line x1="112.0" y1="948.0" x2="150.0" y2="986.0" stroke="#d3d9df" stroke-width="1" opacity="0.409"/><line x1="112.0" y1="948.0" x2="74.0" y2="986.0" stroke="#d3d9df" stroke-width="1" opacity="0.551"/><line x1="188.0" y1="948.0" x2="264.0" y2="948.0" stroke="#d3d9df" stroke-width="1" opacity="0.053"/><line x1="188.0" y1="948.0" x2="226.0" y2="986.0" stroke="#d3d9df" stroke-width="1" opacity="0.124"/><line x1="188.0" y1="948.0" x2="150.0" y2="986.0" stroke="#d3d9df" stroke-width="1" opacity="0.266"/><line x1="-2.0" y1="986.0" x2="74.0" y2="986.0" stroke="#d3d9df" stroke-width="1" opacity="0.765"/><line x1="-2.0" y1="986.0" x2="36.0" y2="1024.0" stroke="#d3d9df" stroke-width="1" opacity="0.836"/><line x1="-2.0" y1="986.0" x2="-40.0" y2="1024.0" stroke="#d3d9df" stroke-width="1" opacity="0.979"/><line x1="74.0" y1="986.0" x2="150.0" y2="986.0" stroke="#d3d9df" stroke-width="1" opacity="0.480"/><line x1="74.0" y1="986.0" x2="112.0" y2="1024.0" stroke="#d3d9df" stroke-width="1" opacity="0.551"/><line x1="74.0" y1="986.0" x2="36.0" y2="1024.0" stroke="#d3d9df" stroke-width="1" opacity="0.694"/><line x1="150.0" y1="986.0" x2="226.0" y2="986.0" stroke="#d3d9df" stroke-width="1" opacity="0.195"/><line x1="150.0" y1="986.0" x2="188.0" y2="1024.0" stroke="#d3d9df" stroke-width="1" opacity="0.266"/><line x1="150.0" y1="986.0" x2="112.0" y2="1024.0" stroke="#d3d9df" stroke-width="1" opacity="0.409"/><line x1="226.0" y1="986.0" x2="188.0" y2="1024.0" stroke="#d3d9df" stroke-width="1" opacity="0.124"/><line x1="-40.0" y1="1024.0" x2="36.0" y2="1024.0" stroke="#d3d9df" stroke-width="1" opacity="0.907"/><line x1="-40.0" y1="1024.0" x2="-2.0" y2="1062.0" stroke="#d3d9df" stroke-width="1" opacity="0.979"/><line x1="-40.0" y1="1024.0" x2="-78.0" y2="1062.0" stroke="#d3d9df" stroke-width="1" opacity="1.121"/><line x1="36.0" y1="1024.0" x2="112.0" y2="1024.0" stroke="#d3d9df" stroke-width="1" opacity="0.623"/><line x1="36.0" y1="1024.0" x2="74.0" y2="1062.0" stroke="#d3d9df" stroke-width="1" opacity="0.694"/><line x1="36.0" y1="1024.0" x2="-2.0" y2="1062.0" stroke="#d3d9df" stroke-width="1" opacity="0.836"/><line x1="112.0" y1="1024.0" x2="188.0" y2="1024.0" stroke="#d3d9df" stroke-width="1" opacity="0.338"/><line x1="112.0" y1="1024.0" x2="150.0" y2="1062.0" stroke="#d3d9df" stroke-width="1" opacity="0.409"/><line x1="112.0" y1="1024.0" x2="74.0" y2="1062.0" stroke="#d3d9df" stroke-width="1" opacity="0.551"/><line x1="188.0" y1="1024.0" x2="264.0" y2="1024.0" stroke="#d3d9df" stroke-width="1" opacity="0.053"/><line x1="188.0" y1="1024.0" x2="226.0" y2="1062.0" stroke="#d3d9df" stroke-width="1" opacity="0.124"/><line x1="188.0" y1="1024.0" x2="150.0" y2="1062.0" stroke="#d3d9df" stroke-width="1" opacity="0.266"/><circle cx="-40.0" cy="-40.0" r="2.6" fill="#c2c9d1" opacity="1.167"/><circle cx="36.0" cy="-40.0" r="2.6" fill="#c2c9d1" opacity="0.850"/><circle cx="112.0" cy="-40.0" r="2.6" fill="#c2c9d1" opacity="0.533"/><circle cx="188.0" cy="-40.0" r="2.6" fill="#c2c9d1" opacity="0.217"/><circle cx="-2.0" cy="-2.0" r="2.6" fill="#c2c9d1" opacity="1.008"/><circle cx="74.0" cy="-2.0" r="2.6" fill="#c2c9d1" opacity="0.692"/><circle cx="150.0" cy="-2.0" r="2.6" fill="#c2c9d1" opacity="0.375"/><circle cx="226.0" cy="-2.0" r="2.6" fill="#c2c9d1" opacity="0.058"/><circle cx="-40.0" cy="36.0" r="2.6" fill="#c2c9d1" opacity="1.167"/><circle cx="36.0" cy="36.0" r="2.6" fill="#c2c9d1" opacity="0.850"/><circle cx="112.0" cy="36.0" r="2.6" fill="#c2c9d1" opacity="0.533"/><circle cx="188.0" cy="36.0" r="2.6" fill="#c2c9d1" opacity="0.217"/><circle cx="-2.0" cy="74.0" r="2.6" fill="#c2c9d1" opacity="1.008"/><circle cx="74.0" cy="74.0" r="2.6" fill="#c2c9d1" opacity="0.692"/><circle cx="150.0" cy="74.0" r="2.6" fill="#c2c9d1" opacity="0.375"/><circle cx="226.0" cy="74.0" r="2.6" fill="#c2c9d1" opacity="0.058"/><circle cx="-40.0" cy="112.0" r="2.6" fill="#c2c9d1" opacity="1.167"/><circle cx="36.0" cy="112.0" r="2.6" fill="#c2c9d1" opacity="0.850"/><circle cx="112.0" cy="112.0" r="2.6" fill="#c2c9d1" opacity="0.533"/><circle cx="188.0" cy="112.0" r="2.6" fill="#c2c9d1" opacity="0.217"/><circle cx="-2.0" cy="150.0" r="2.6" fill="#c2c9d1" opacity="1.008"/><circle cx="74.0" cy="150.0" r="2.6" fill="#c2c9d1" opacity="0.692"/><circle cx="150.0" cy="150.0" r="2.6" fill="#c2c9d1" opacity="0.375"/><circle cx="226.0" cy="150.0" r="2.6" fill="#c2c9d1" opacity="0.058"/><circle cx="-40.0" cy="188.0" r="2.6" fill="#c2c9d1" opacity="1.167"/><circle cx="36.0" cy="188.0" r="2.6" fill="#c2c9d1" opacity="0.850"/><circle cx="112.0" cy="188.0" r="2.6" fill="#c2c9d1" opacity="0.533"/><circle cx="188.0" cy="188.0" r="2.6" fill="#c2c9d1" opacity="0.217"/><circle cx="-2.0" cy="226.0" r="2.6" fill="#c2c9d1" opacity="1.008"/><circle cx="74.0" cy="226.0" r="2.6" fill="#c2c9d1" opacity="0.692"/><circle cx="150.0" cy="226.0" r="2.6" fill="#c2c9d1" opacity="0.375"/><circle cx="226.0" cy="226.0" r="2.6" fill="#c2c9d1" opacity="0.058"/><circle cx="-40.0" cy="264.0" r="2.6" fill="#c2c9d1" opacity="1.167"/><circle cx="36.0" cy="264.0" r="2.6" fill="#c2c9d1" opacity="0.850"/><circle cx="112.0" cy="264.0" r="2.6" fill="#c2c9d1" opacity="0.533"/><circle cx="188.0" cy="264.0" r="2.6" fill="#c2c9d1" opacity="0.217"/><circle cx="-2.0" cy="302.0" r="2.6" fill="#c2c9d1" opacity="1.008"/><circle cx="74.0" cy="302.0" r="2.6" fill="#c2c9d1" opacity="0.692"/><circle cx="150.0" cy="302.0" r="2.6" fill="#c2c9d1" opacity="0.375"/><circle cx="226.0" cy="302.0" r="2.6" fill="#c2c9d1" opacity="0.058"/><circle cx="-40.0" cy="340.0" r="2.6" fill="#c2c9d1" opacity="1.167"/><circle cx="36.0" cy="340.0" r="2.6" fill="#c2c9d1" opacity="0.850"/><circle cx="112.0" cy="340.0" r="2.6" fill="#c2c9d1" opacity="0.533"/><circle cx="188.0" cy="340.0" r="2.6" fill="#c2c9d1" opacity="0.217"/><circle cx="-2.0" cy="378.0" r="2.6" fill="#c2c9d1" opacity="1.008"/><circle cx="74.0" cy="378.0" r="2.6" fill="#c2c9d1" opacity="0.692"/><circle cx="150.0" cy="378.0" r="2.6" fill="#c2c9d1" opacity="0.375"/><circle cx="226.0" cy="378.0" r="2.6" fill="#c2c9d1" opacity="0.058"/><circle cx="-40.0" cy="416.0" r="2.6" fill="#c2c9d1" opacity="1.167"/><circle cx="36.0" cy="416.0" r="2.6" fill="#c2c9d1" opacity="0.850"/><circle cx="112.0" cy="416.0" r="2.6" fill="#c2c9d1" opacity="0.533"/><circle cx="188.0" cy="416.0" r="2.6" fill="#c2c9d1" opacity="0.217"/><circle cx="-2.0" cy="454.0" r="2.6" fill="#c2c9d1" opacity="1.008"/><circle cx="74.0" cy="454.0" r="2.6" fill="#c2c9d1" opacity="0.692"/><circle cx="150.0" cy="454.0" r="2.6" fill="#c2c9d1" opacity="0.375"/><circle cx="226.0" cy="454.0" r="2.6" fill="#c2c9d1" opacity="0.058"/><circle cx="-40.0" cy="492.0" r="2.6" fill="#c2c9d1" opacity="1.167"/><circle cx="36.0" cy="492.0" r="2.6" fill="#c2c9d1" opacity="0.850"/><circle cx="112.0" cy="492.0" r="2.6" fill="#c2c9d1" opacity="0.533"/><circle cx="188.0" cy="492.0" r="2.6" fill="#c2c9d1" opacity="0.217"/><circle cx="-2.0" cy="530.0" r="2.6" fill="#c2c9d1" opacity="1.008"/><circle cx="74.0" cy="530.0" r="2.6" fill="#c2c9d1" opacity="0.692"/><circle cx="150.0" cy="530.0" r="2.6" fill="#c2c9d1" opacity="0.375"/><circle cx="226.0" cy="530.0" r="2.6" fill="#c2c9d1" opacity="0.058"/><circle cx="-40.0" cy="568.0" r="2.6" fill="#c2c9d1" opacity="1.167"/><circle cx="36.0" cy="568.0" r="2.6" fill="#c2c9d1" opacity="0.850"/><circle cx="112.0" cy="568.0" r="2.6" fill="#c2c9d1" opacity="0.533"/><circle cx="188.0" cy="568.0" r="2.6" fill="#c2c9d1" opacity="0.217"/><circle cx="-2.0" cy="606.0" r="2.6" fill="#c2c9d1" opacity="1.008"/><circle cx="74.0" cy="606.0" r="2.6" fill="#c2c9d1" opacity="0.692"/><circle cx="150.0" cy="606.0" r="2.6" fill="#c2c9d1" opacity="0.375"/><circle cx="226.0" cy="606.0" r="2.6" fill="#c2c9d1" opacity="0.058"/><circle cx="-40.0" cy="644.0" r="2.6" fill="#c2c9d1" opacity="1.167"/><circle cx="36.0" cy="644.0" r="2.6" fill="#c2c9d1" opacity="0.850"/><circle cx="112.0" cy="644.0" r="2.6" fill="#c2c9d1" opacity="0.533"/><circle cx="188.0" cy="644.0" r="2.6" fill="#c2c9d1" opacity="0.217"/><circle cx="-2.0" cy="682.0" r="2.6" fill="#c2c9d1" opacity="1.008"/><circle cx="74.0" cy="682.0" r="2.6" fill="#c2c9d1" opacity="0.692"/><circle cx="150.0" cy="682.0" r="2.6" fill="#c2c9d1" opacity="0.375"/><circle cx="226.0" cy="682.0" r="2.6" fill="#c2c9d1" opacity="0.058"/><circle cx="-40.0" cy="720.0" r="2.6" fill="#c2c9d1" opacity="1.167"/><circle cx="36.0" cy="720.0" r="2.6" fill="#c2c9d1" opacity="0.850"/><circle cx="112.0" cy="720.0" r="2.6" fill="#c2c9d1" opacity="0.533"/><circle cx="188.0" cy="720.0" r="2.6" fill="#c2c9d1" opacity="0.217"/><circle cx="-2.0" cy="758.0" r="2.6" fill="#c2c9d1" opacity="1.008"/><circle cx="74.0" cy="758.0" r="2.6" fill="#c2c9d1" opacity="0.692"/><circle cx="150.0" cy="758.0" r="2.6" fill="#c2c9d1" opacity="0.375"/><circle cx="226.0" cy="758.0" r="2.6" fill="#c2c9d1" opacity="0.058"/><circle cx="-40.0" cy="796.0" r="2.6" fill="#c2c9d1" opacity="1.167"/><circle cx="36.0" cy="796.0" r="2.6" fill="#c2c9d1" opacity="0.850"/><circle cx="112.0" cy="796.0" r="2.6" fill="#c2c9d1" opacity="0.533"/><circle cx="188.0" cy="796.0" r="2.6" fill="#c2c9d1" opacity="0.217"/><circle cx="-2.0" cy="834.0" r="2.6" fill="#c2c9d1" opacity="1.008"/><circle cx="74.0" cy="834.0" r="2.6" fill="#c2c9d1" opacity="0.692"/><circle cx="150.0" cy="834.0" r="2.6" fill="#c2c9d1" opacity="0.375"/><circle cx="226.0" cy="834.0" r="2.6" fill="#c2c9d1" opacity="0.058"/><circle cx="-40.0" cy="872.0" r="2.6" fill="#c2c9d1" opacity="1.167"/><circle cx="36.0" cy="872.0" r="2.6" fill="#c2c9d1" opacity="0.850"/><circle cx="112.0" cy="872.0" r="2.6" fill="#c2c9d1" opacity="0.533"/><circle cx="188.0" cy="872.0" r="2.6" fill="#c2c9d1" opacity="0.217"/><circle cx="-2.0" cy="910.0" r="2.6" fill="#c2c9d1" opacity="1.008"/><circle cx="74.0" cy="910.0" r="2.6" fill="#c2c9d1" opacity="0.692"/><circle cx="150.0" cy="910.0" r="2.6" fill="#c2c9d1" opacity="0.375"/><circle cx="226.0" cy="910.0" r="2.6" fill="#c2c9d1" opacity="0.058"/><circle cx="-40.0" cy="948.0" r="2.6" fill="#c2c9d1" opacity="1.167"/><circle cx="36.0" cy="948.0" r="2.6" fill="#c2c9d1" opacity="0.850"/><circle cx="112.0" cy="948.0" r="2.6" fill="#c2c9d1" opacity="0.533"/><circle cx="188.0" cy="948.0" r="2.6" fill="#c2c9d1" opacity="0.217"/><circle cx="-2.0" cy="986.0" r="2.6" fill="#c2c9d1" opacity="1.008"/><circle cx="74.0" cy="986.0" r="2.6" fill="#c2c9d1" opacity="0.692"/><circle cx="150.0" cy="986.0" r="2.6" fill="#c2c9d1" opacity="0.375"/><circle cx="226.0" cy="986.0" r="2.6" fill="#c2c9d1" opacity="0.058"/><circle cx="-40.0" cy="1024.0" r="2.6" fill="#c2c9d1" opacity="1.167"/><circle cx="36.0" cy="1024.0" r="2.6" fill="#c2c9d1" opacity="0.850"/><circle cx="112.0" cy="1024.0" r="2.6" fill="#c2c9d1" opacity="0.533"/><circle cx="188.0" cy="1024.0" r="2.6" fill="#c2c9d1" opacity="0.217"/></g></svg>