<svg xmlns="http://www.w3.org/2000/svg" viewBox="0 0 1600 360" preserveAspectRatio="xMidYMid slice" width="100%" height="100%">
<rect width="1600" height="360" fill="#eceef0"/>
<polyline points="0,90.0 8,91.3 16,92.7 24,94.1 32,95.6 40,97.0 48,98.5 56,99.9 64,101.4 72,102.8 80,104.3 88,105.7 96,107.1 104,108.4 112,109.7 120,111.0 128,112.1 136,113.3 144,114.3 152,115.3 160,116.1 168,116.9 176,117.6 184,118.2 192,118.7 200,119.0 208,119.3 216,119.4 224,119.4 232,119.3 240,119.0 248,118.7 256,118.2 264,117.5 272,116.8 280,115.9 288,114.9 296,113.7 304,112.5 312,111.1 320,109.6 328,108.0 336,106.3 344,104.5 352,102.7 360,100.7 368,98.7 376,96.6 384,94.4 392,92.2 400,90.0 408,87.7 416,85.4 424,83.2 432,80.9 440,78.6 448,76.3 456,74.1 464,71.9 472,69.7 480,67.7 488,65.7 496,63.7 504,61.9 512,60.2 520,58.5 528,57.0 536,55.6 544,54.3 552,53.2 560,52.2 568,51.4 576,50.7 584,50.2 592,49.8 600,49.6 608,49.6 616,49.7 624,50.0 632,50.4 640,51.0 648,51.8 656,52.8 664,53.8 672,55.1 680,56.5 688,58.0 696,59.7 704,61.5 712,63.4 720,65.5 728,67.6 736,69.8 744,72.2 752,74.6 760,77.0 768,79.6 776,82.1 784,84.7 792,87.4 800,90.0 808,92.6 816,95.3 824,97.9 832,100.4 840,103.0 848,105.4 856,107.8 864,110.2 872,112.4 880,114.5 888,116.6 896,118.5 904,120.3 912,122.0 920,123.5 928,124.9 936,126.2 944,127.2 952,128.2 960,129.0 968,129.6 976,130.0 984,130.3 992,130.4 1000,130.4 1008,130.2 1016,129.8 1024,129.3 1032,128.6 1040,127.8 1048,126.8 1056,125.7 1064,124.4 1072,123.0 1080,121.5 1088,119.8 1096,118.1 1104,116.3 1112,114.3 1120,112.3 1128,110.3 1136,108.1 1144,105.9 1152,103.7 1160,101.4 1168,99.1 1176,96.8 1184,94.6 1192,92.3 1200,90.0 1208,87.8 1216,85.6 1224,83.4 1232,81.3 1240,79.3 1248,77.3 1256,75.5 1264,73.7 1272,72.0 1280,70.4 1288,68.9 1296,67.5 1304,66.3 1312,65.1 1320,64.1 1328,63.2 1336,62.5 1344,61.8 1352,61.3 1360,61.0 1368,60.7 1376,60.6 1384,60.6 1392,60.7 1400,61.0 1408,61.3 1416,61.8 1424,62.4 1432,63.1 1440,63.9 1448,64.7 1456,65.7 1464,66.7 1472,67.9 1480,69.0 1488,70.3 1496,71.6 1504,72.9 1512,74.3 1520,75.7 1528,77.2 1536,78.6 1544,80.1 1552,81.5 1560,83.0 1568,84.4 1576,85.9 1584,87.3 1592,88.7 1600,90.0" fill="none" stroke="#8a8f98" stroke-width="0.8" opacity="0.10"/><polyline points="0,100.1 8,101.5 16,102.9 24,104.3 32,105.7 40,107.1 48,108.4 56,109.8 64,111.1 72,112.4 80,113.6 88,114.8 96,115.9 104,117.0 112,118.0 120,118.9 128,119.7 136,120.5 144,121.1 152,121.6 160,122.1 168,122.4 176,122.6 184,122.7 192,122.7 200,122.5 208,122.2 216,121.8 224,121.3 232,120.6 240,119.9 248,119.0 256,117.9 264,116.8 272,115.5 280,114.1 288,112.7 296,111.1 304,109.4 312,107.6 320,105.7 328,103.8 336,101.8 344,99.7 352,97.6 360,95.4 368,93.2 376,90.9 384,88.7 392,86.4 400,84.2 408,81.9 416,79.7 424,77.5 432,75.3 440,73.2 448,71.2 456,69.2 464,67.3 472,65.5 480,63.8 488,62.2 496,60.8 504,59.4 512,58.2 520,57.1 528,56.2 536,55.4 544,54.7 552,54.3 560,53.9 568,53.8 576,53.8 584,54.0 592,54.3 600,54.8 608,55.5 616,56.3 624,57.3 632,58.5 640,59.8 648,61.2 656,62.8 664,64.5 672,66.4 680,68.4 688,70.4 696,72.6 704,74.9 712,77.3 720,79.7 728,82.3 736,84.8 744,87.4 752,90.1 760,92.7 768,95.4 776,98.1 784,100.7 792,103.4 800,106.0 808,108.5 816,111.0 824,113.4 832,115.8 840,118.0 848,120.2 856,122.2 864,124.1 872,125.9 880,127.6 888,129.1 896,130.5 904,131.7 912,132.8 920,133.7 928,134.4 936,135.0 944,135.4 952,135.7 960,135.7 968,135.6 976,135.4 984,134.9 992,134.3 1000,133.6 1008,132.7 1016,131.6 1024,130.4 1032,129.1 1040,127.6 1048,126.0 1056,124.3 1064,122.4 1072,120.5 1080,118.5 1088,116.4 1096,114.2 1104,112.0 1112,109.7 1120,107.4 1128,105.0 1136,102.6 1144,100.2 1152,97.9 1160,95.5 1168,93.1 1176,90.8 1184,88.5 1192,86.3 1200,84.2 1208,82.1 1216,80.0 1224,78.1 1232,76.3 1240,74.5 1248,72.9 1256,71.4 1264,70.0 1272,68.7 1280,67.5 1288,66.5 1296,65.6 1304,64.8 1312,64.2 1320,63.7 1328,63.4 1336,63.1 1344,63.0 1352,63.1 1360,63.2 1368,63.5 1376,64.0 1384,64.5 1392,65.1 1400,65.9 1408,66.8 1416,67.7 1424,68.8 1432,69.9 1440,71.1 1448,72.4 1456,73.7 1464,75.1 1472,76.6 1480,78.0 1488,79.6 1496,81.1 1504,82.7 1512,84.2 1520,85.8 1528,87.4 1536,88.9 1544,90.4 1552,91.9 1560,93.4 1568,94.8 1576,96.2 1584,97.6 1592,98.9 1600,100.1" fill="none" stroke="#8a8f98" stroke-width="0.8" opacity="0.11"/><polyline points="0,109.9 8,111.2 16,112.5 24,113.8 32,115.0 40,116.3 48,117.4 56,118.6 64,119.6 72,120.6 80,121.6 88,122.4 96,123.2 104,123.9 112,124.5 120,125.0 128,125.4 136,125.7 144,125.8 152,125.9 160,125.8 168,125.6 176,125.3 184,124.9 192,124.4 200,123.7 208,122.9 216,122.0 224,121.0 232,119.8 240,118.6 248,117.2 256,115.7 264,114.1 272,112.4 280,110.7 288,108.8 296,106.9 304,104.9 312,102.8 320,100.7 328,98.6 336,96.4 344,94.2 352,92.0 360,89.7 368,87.5 376,85.3 384,83.1 392,80.9 400,78.8 408,76.8 416,74.8 424,72.8 432,71.0 440,69.2 448,67.6 456,66.0 464,64.6 472,63.3 480,62.1 488,61.1 496,60.2 504,59.5 512,58.9 520,58.5 528,58.2 536,58.1 544,58.2 552,58.4 560,58.8 568,59.3 576,60.1 584,60.9 592,62.0 600,63.2 608,64.5 616,66.0 624,67.7 632,69.5 640,71.4 648,73.4 656,75.5 664,77.8 672,80.1 680,82.5 688,85.0 696,87.5 704,90.1 712,92.8 720,95.5 728,98.2 736,100.9 744,103.6 752,106.2 760,108.9 768,111.5 776,114.1 784,116.6 792,119.0 800,121.3 808,123.6 816,125.7 824,127.8 832,129.7 840,131.5 848,133.1 856,134.6 864,136.0 872,137.2 880,138.2 888,139.1 896,139.8 904,140.3 912,140.7 920,140.9 928,140.9 936,140.8 944,140.4 952,139.9 960,139.3 968,138.4 976,137.5 984,136.3 992,135.0 1000,133.6 1008,132.0 1016,130.4 1024,128.5 1032,126.6 1040,124.6 1048,122.5 1056,120.3 1064,118.0 1072,115.7 1080,113.3 1088,110.9 1096,108.5 1104,106.0 1112,103.5 1120,101.1 1128,98.6 1136,96.2 1144,93.8 1152,91.4 1160,89.1 1168,86.9 1176,84.8 1184,82.7 1192,80.7 1200,78.8 1208,77.0 1216,75.4 1224,73.8 1232,72.4 1240,71.1 1248,69.9 1256,68.9 1264,68.0 1272,67.2 1280,66.6 1288,66.1 1296,65.8 1304,65.6 1312,65.5 1320,65.6 1328,65.8 1336,66.2 1344,66.6 1352,67.2 1360,67.9 1368,68.8 1376,69.7 1384,70.7 1392,71.9 1400,73.1 1408,74.4 1416,75.8 1424,77.2 1432,78.7 1440,80.3 1448,81.8 1456,83.5 1464,85.1 1472,86.8 1480,88.5 1488,90.1 1496,91.8 1504,93.5 1512,95.1 1520,96.7 1528,98.3 1536,99.8 1544,101.3 1552,102.7 1560,104.1 1568,105.4 1576,106.6 1584,107.8 1592,108.9 1600,109.9" fill="none" stroke="#8a8f98" stroke-width="0.8" opacity="0.11"/><polyline points="0,118.9 8,120.1 16,121.2 24,122.2 32,123.3 40,124.2 48,125.1 56,125.9 64,126.6 72,127.2 80,127.8 88,128.2 96,128.6 104,128.8 112,129.0 120,129.0 128,128.9 136,128.7 144,128.4 152,128.0 160,127.4 168,126.7 176,125.9 184,125.0 192,124.0 200,122.8 208,121.6 216,120.2 224,118.7 232,117.1 240,115.5 248,113.7 256,111.9 264,110.0 272,108.0 280,106.0 288,103.9 296,101.8 304,99.7 312,97.5 320,95.3 328,93.1 336,90.9 344,88.7 352,86.6 360,84.5 368,82.4 376,80.4 384,78.4 392,76.6 400,74.8 408,73.1 416,71.5 424,70.0 432,68.6 440,67.3 448,66.2 456,65.2 464,64.4 472,63.7 480,63.2 488,62.8 496,62.6 504,62.5 512,62.7 520,62.9 528,63.4 536,64.0 544,64.8 552,65.7 560,66.8 568,68.0 576,69.4 584,71.0 592,72.7 600,74.5 608,76.4 616,78.5 624,80.7 632,82.9 640,85.3 648,87.8 656,90.3 664,92.9 672,95.5 680,98.2 688,100.9 696,103.6 704,106.3 712,109.0 720,111.7 728,114.4 736,117.0 744,119.6 752,122.1 760,124.6 768,126.9 776,129.1 784,131.3 792,133.3 800,135.2 808,137.0 816,138.6 824,140.1 832,141.4 840,142.6 848,143.6 856,144.4 864,145.1 872,145.6 880,145.9 888,146.0 896,146.0 904,145.8 912,145.4 920,144.8 928,144.1 936,143.2 944,142.1 952,140.9 960,139.6 968,138.0 976,136.4 984,134.6 992,132.7 1000,130.7 1008,128.6 1016,126.4 1024,124.1 1032,121.8 1040,119.4 1048,116.9 1056,114.4 1064,111.9 1072,109.3 1080,106.8 1088,104.2 1096,101.7 1104,99.2 1112,96.7 1120,94.3 1128,91.9 1136,89.6 1144,87.4 1152,85.3 1160,83.2 1168,81.3 1176,79.5 1184,77.8 1192,76.2 1200,74.8 1208,73.4 1216,72.3 1224,71.2 1232,70.3 1240,69.6 1248,69.0 1256,68.5 1264,68.2 1272,68.0 1280,68.0 1288,68.1 1296,68.4 1304,68.8 1312,69.3 1320,70.0 1328,70.8 1336,71.7 1344,72.7 1352,73.8 1360,75.1 1368,76.4 1376,77.8 1384,79.2 1392,80.8 1400,82.4 1408,84.0 1416,85.7 1424,87.5 1432,89.2 1440,91.0 1448,92.8 1456,94.6 1464,96.3 1472,98.1 1480,99.8 1488,101.5 1496,103.2 1504,104.8 1512,106.4 1520,107.9 1528,109.4 1536,110.8 1544,112.1 1552,113.3 1560,114.5 1568,115.5 1576,116.5 1584,117.4 1592,118.2 1600,118.9" fill="none" stroke="#8a8f98" stroke-width="0.8" opacity="0.12"/><polyline points="0,126.8 8,127.7 16,128.5 24,129.3 32,129.9 40,130.5 48,131.0 56,131.4 64,131.7 72,132.0 80,132.1 88,132.1 96,132.0 104,131.7 112,131.4 120,130.9 128,130.4 136,129.7 144,128.9 152,128.0 160,126.9 168,125.8 176,124.5 184,123.2 192,121.7 200,120.2 208,118.5 216,116.8 224,115.0 232,113.1 240,111.2 248,109.2 256,107.2 264,105.1 272,103.0 280,100.8 288,98.7 296,96.5 304,94.4 312,92.3 320,90.2 328,88.1 336,86.1 344,84.1 352,82.2 360,80.4 368,78.6 376,77.0 384,75.4 392,74.0 400,72.7 408,71.5 416,70.4 424,69.5 432,68.7 440,68.1 448,67.6 456,67.3 464,67.1 472,67.1 480,67.3 488,67.6 496,68.1 504,68.7 512,69.6 520,70.5 528,71.7 536,73.0 544,74.4 552,76.0 560,77.7 568,79.6 576,81.6 584,83.7 592,85.9 600,88.2 608,90.6 616,93.1 624,95.6 632,98.2 640,100.9 648,103.6 656,106.3 664,109.1 672,111.8 680,114.5 688,117.2 696,119.9 704,122.6 712,125.1 720,127.6 728,130.1 736,132.4 744,134.6 752,136.8 760,138.8 768,140.7 776,142.4 784,144.0 792,145.5 800,146.8 808,147.9 816,148.9 824,149.7 832,150.3 840,150.7 848,151.0 856,151.1 864,151.0 872,150.7 880,150.2 888,149.6 896,148.8 904,147.8 912,146.7 920,145.4 928,144.0 936,142.4 944,140.6 952,138.8 960,136.8 968,134.7 976,132.5 984,130.2 992,127.8 1000,125.4 1008,122.9 1016,120.4 1024,117.8 1032,115.1 1040,112.5 1048,109.9 1056,107.3 1064,104.6 1072,102.1 1080,99.5 1088,97.1 1096,94.6 1104,92.3 1112,90.0 1120,87.8 1128,85.8 1136,83.8 1144,81.9 1152,80.2 1160,78.6 1168,77.1 1176,75.8 1184,74.6 1192,73.6 1200,72.7 1208,71.9 1216,71.4 1224,70.9 1232,70.7 1240,70.5 1248,70.5 1256,70.7 1264,71.0 1272,71.5 1280,72.1 1288,72.8 1296,73.7 1304,74.7 1312,75.8 1320,77.0 1328,78.3 1336,79.7 1344,81.2 1352,82.8 1360,84.4 1368,86.2 1376,87.9 1384,89.7 1392,91.6 1400,93.4 1408,95.3 1416,97.2 1424,99.1 1432,101.0 1440,102.8 1448,104.7 1456,106.5 1464,108.3 1472,110.0 1480,111.6 1488,113.2 1496,114.8 1504,116.2 1512,117.6 1520,118.9 1528,120.1 1536,121.3 1544,122.3 1552,123.2 1560,124.1 1568,124.8 1576,125.5 1584,126.0 1592,126.4 1600,126.8" fill="none" stroke="#8a8f98" stroke-width="0.8" opacity="0.13"/><polyline points="0,133.2 8,133.7 16,134.2 24,134.6 32,134.8 40,135.0 48,135.1 56,135.1 64,134.9 72,134.7 80,134.3 88,133.9 96,133.3 104,132.6 112,131.8 120,130.9 128,129.9 136,128.7 144,127.5 152,126.2 160,124.7 168,123.2 176,121.6 184,119.9 192,118.1 200,116.3 208,114.4 216,112.4 224,110.4 232,108.4 240,106.3 248,104.2 256,102.1 264,100.0 272,97.9 280,95.9 288,93.8 296,91.8 304,89.8 312,87.9 320,86.1 328,84.3 336,82.6 344,81.0 352,79.5 360,78.2 368,76.9 376,75.8 384,74.8 392,73.9 400,73.1 408,72.6 416,72.1 424,71.9 432,71.8 440,71.8 448,72.0 456,72.4 464,72.9 472,73.6 480,74.5 488,75.5 496,76.7 504,78.0 512,79.5 520,81.1 528,82.9 536,84.8 544,86.8 552,88.9 560,91.2 568,93.5 576,95.9 584,98.4 592,101.0 600,103.6 608,106.3 616,109.0 624,111.8 632,114.5 640,117.3 648,120.0 656,122.7 664,125.4 672,128.0 680,130.6 688,133.1 696,135.5 704,137.9 712,140.1 720,142.2 728,144.2 736,146.0 744,147.8 752,149.3 760,150.7 768,152.0 776,153.1 784,154.0 792,154.8 800,155.3 808,155.7 816,155.9 824,156.0 832,155.8 840,155.5 848,154.9 856,154.3 864,153.4 872,152.3 880,151.1 888,149.8 896,148.2 904,146.6 912,144.7 920,142.8 928,140.7 936,138.6 944,136.3 952,133.9 960,131.5 968,128.9 976,126.4 984,123.7 992,121.1 1000,118.4 1008,115.6 1016,112.9 1024,110.2 1032,107.6 1040,104.9 1048,102.3 1056,99.8 1064,97.3 1072,94.9 1080,92.6 1088,90.4 1096,88.3 1104,86.3 1112,84.4 1120,82.6 1128,81.0 1136,79.5 1144,78.2 1152,77.0 1160,76.0 1168,75.1 1176,74.4 1184,73.8 1192,73.4 1200,73.1 1208,73.1 1216,73.1 1224,73.4 1232,73.7 1240,74.3 1248,74.9 1256,75.7 1264,76.7 1272,77.8 1280,78.9 1288,80.3 1296,81.7 1304,83.2 1312,84.8 1320,86.4 1328,88.2 1336,90.0 1344,91.9 1352,93.8 1360,95.7 1368,97.7 1376,99.7 1384,101.7 1392,103.7 1400,105.7 1408,107.7 1416,109.6 1424,111.5 1432,113.4 1440,115.2 1448,117.0 1456,118.6 1464,120.3 1472,121.8 1480,123.3 1488,124.6 1496,125.9 1504,127.1 1512,128.2 1520,129.1 1528,130.0 1536,130.8 1544,131.5 1552,132.0 1560,132.5 1568,132.8 1576,133.1 1584,133.2 1592,133.2 1600,133.2" fill="none" stroke="#8a8f98" stroke-width="0.8" opacity="0.13"/><polyline points="0,137.9 8,138.0 16,138.1 24,138.0 32,137.9 40,137.6 48,137.3 56,136.8 64,136.2 72,135.5 80,134.7 88,133.8 96,132.8 104,131.7 112,130.5 120,129.2 128,127.7 136,126.2 144,124.7 152,123.0 160,121.3 168,119.5 176,117.6 184,115.7 192,113.8 200,111.8 208,109.7 216,107.7 224,105.7 232,103.6 240,101.6 248,99.6 256,97.6 264,95.6 272,93.7 280,91.9 288,90.1 296,88.4 304,86.7 312,85.2 320,83.8 328,82.4 336,81.2 344,80.2 352,79.2 360,78.4 368,77.7 376,77.2 384,76.8 392,76.6 400,76.5 408,76.6 416,76.9 424,77.3 432,77.9 440,78.6 448,79.5 456,80.6 464,81.8 472,83.2 480,84.7 488,86.3 496,88.1 504,90.0 512,92.1 520,94.2 528,96.5 536,98.9 544,101.3 552,103.8 560,106.4 568,109.1 576,111.8 584,114.5 592,117.2 600,120.0 608,122.7 616,125.5 624,128.2 632,130.9 640,133.5 648,136.0 656,138.5 664,140.9 672,143.2 680,145.4 688,147.5 696,149.5 704,151.3 712,153.0 720,154.5 728,155.9 736,157.1 744,158.2 752,159.1 760,159.8 768,160.3 776,160.6 784,160.8 792,160.7 800,160.5 808,160.1 816,159.5 824,158.8 832,157.8 840,156.7 848,155.4 856,154.0 864,152.4 872,150.6 880,148.7 888,146.7 896,144.6 904,142.3 912,140.0 920,137.5 928,135.0 936,132.4 944,129.7 952,127.0 960,124.3 968,121.5 976,118.7 984,115.9 992,113.2 1000,110.4 1008,107.7 1016,105.1 1024,102.5 1032,99.9 1040,97.5 1048,95.1 1056,92.9 1064,90.7 1072,88.7 1080,86.8 1088,85.0 1096,83.4 1104,81.9 1112,80.6 1120,79.4 1128,78.4 1136,77.5 1144,76.8 1152,76.3 1160,75.9 1168,75.7 1176,75.7 1184,75.8 1192,76.1 1200,76.5 1208,77.1 1216,77.8 1224,78.7 1232,79.8 1240,80.9 1248,82.2 1256,83.6 1264,85.1 1272,86.7 1280,88.4 1288,90.2 1296,92.0 1304,94.0 1312,96.0 1320,98.0 1328,100.0 1336,102.1 1344,104.2 1352,106.3 1360,108.5 1368,110.5 1376,112.6 1384,114.7 1392,116.7 1400,118.6 1408,120.5 1416,122.4 1424,124.2 1432,125.8 1440,127.5 1448,129.0 1456,130.4 1464,131.8 1472,133.0 1480,134.1 1488,135.1 1496,136.0 1504,136.8 1512,137.5 1520,138.1 1528,138.6 1536,138.9 1544,139.1 1552,139.3 1560,139.3 1568,139.2 1576,139.0 1584,138.7 1592,138.3 1600,137.9" fill="none" stroke="#8a8f98" stroke-width="0.8" opacity="0.14"/><polyline points="0,140.8 8,140.5 16,140.1 24,139.7 32,139.1 40,138.4 48,137.6 56,136.7 64,135.7 72,134.6 80,133.4 88,132.2 96,130.8 104,129.3 112,127.8 120,126.1 128,124.5 136,122.7 144,120.9 152,119.0 160,117.1 168,115.2 176,113.2 184,111.3 192,109.3 200,107.3 208,105.3 216,103.3 224,101.4 232,99.5 240,97.7 248,95.9 256,94.2 264,92.5 272,91.0 280,89.5 288,88.1 296,86.8 304,85.7 312,84.7 320,83.8 328,83.0 336,82.4 344,81.9 352,81.6 360,81.4 368,81.4 376,81.5 384,81.8 392,82.3 400,82.9 408,83.7 416,84.6 424,85.7 432,87.0 440,88.4 448,89.9 456,91.6 464,93.4 472,95.4 480,97.4 488,99.6 496,101.9 504,104.3 512,106.7 520,109.3 528,111.9 536,114.5 544,117.2 552,119.9 560,122.7 568,125.4 576,128.2 584,130.9 592,133.6 600,136.3 608,138.9 616,141.4 624,143.9 632,146.3 640,148.6 648,150.7 656,152.8 664,154.7 672,156.5 680,158.2 688,159.7 696,161.0 704,162.2 712,163.2 720,164.0 728,164.7 736,165.1 744,165.4 752,165.5 760,165.4 768,165.1 776,164.6 784,164.0 792,163.2 800,162.1 808,161.0 816,159.6 824,158.1 832,156.4 840,154.6 848,152.6 856,150.5 864,148.3 872,146.0 880,143.5 888,141.0 896,138.4 904,135.7 912,133.0 920,130.2 928,127.4 936,124.5 944,121.7 952,118.8 960,116.0 968,113.2 976,110.5 984,107.8 992,105.1 1000,102.5 1008,100.0 1016,97.7 1024,95.4 1032,93.2 1040,91.1 1048,89.2 1056,87.4 1064,85.8 1072,84.3 1080,83.0 1088,81.8 1096,80.8 1104,80.0 1112,79.3 1120,78.8 1128,78.5 1136,78.3 1144,78.3 1152,78.5 1160,78.8 1168,79.4 1176,80.0 1184,80.8 1192,81.8 1200,82.9 1208,84.2 1216,85.5 1224,87.0 1232,88.6 1240,90.3 1248,92.1 1256,94.0 1264,96.0 1272,98.0 1280,100.1 1288,102.3 1296,104.4 1304,106.6 1312,108.8 1320,111.1 1328,113.3 1336,115.5 1344,117.7 1352,119.8 1360,121.9 1368,124.0 1376,126.0 1384,127.9 1392,129.7 1400,131.5 1408,133.2 1416,134.8 1424,136.3 1432,137.7 1440,139.0 1448,140.1 1456,141.2 1464,142.1 1472,142.9 1480,143.6 1488,144.2 1496,144.7 1504,145.0 1512,145.2 1520,145.4 1528,145.3 1536,145.2 1544,145.0 1552,144.7 1560,144.2 1568,143.7 1576,143.1 1584,142.4 1592,141.6 1600,140.8" fill="none" stroke="#8a8f98" stroke-width="0.8" opacity="0.15"/><polyline points="0,142.0 8,141.3 16,140.5 24,139.6 32,138.7 40,137.6 48,136.4 56,135.2 64,133.8 72,132.4 80,130.9 88,129.3 96,127.7 104,126.0 112,124.2 120,122.4 128,120.6 136,118.7 144,116.8 152,114.9 160,113.0 168,111.0 176,109.1 184,107.2 192,105.4 200,103.5 208,101.7 216,100.0 224,98.4 232,96.8 240,95.3 248,93.9 256,92.6 264,91.4 272,90.3 280,89.3 288,88.5 296,87.7 304,87.2 312,86.8 320,86.5 328,86.4 336,86.4 344,86.6 352,86.9 360,87.4 368,88.1 376,88.9 384,89.9 392,91.0 400,92.3 408,93.7 416,95.3 424,97.0 432,98.8 440,100.8 448,102.8 456,105.0 464,107.3 472,109.7 480,112.2 488,114.7 496,117.3 504,120.0 512,122.7 520,125.4 528,128.1 536,130.8 544,133.6 552,136.3 560,139.0 568,141.6 576,144.2 584,146.7 592,149.2 600,151.5 608,153.8 616,155.9 624,158.0 632,159.8 640,161.6 648,163.2 656,164.7 664,166.0 672,167.1 680,168.0 688,168.8 696,169.4 704,169.8 712,170.0 720,170.1 728,169.9 736,169.6 744,169.0 752,168.3 760,167.4 768,166.3 776,165.1 784,163.6 792,162.1 800,160.3 808,158.4 816,156.4 824,154.2 832,151.9 840,149.5 848,147.0 856,144.4 864,141.7 872,139.0 880,136.2 888,133.3 896,130.4 904,127.5 912,124.6 920,121.7 928,118.8 936,116.0 944,113.2 952,110.4 960,107.7 968,105.1 976,102.6 984,100.2 992,97.9 1000,95.7 1008,93.6 1016,91.7 1024,89.9 1032,88.2 1040,86.8 1048,85.4 1056,84.3 1064,83.3 1072,82.5 1080,81.9 1088,81.4 1096,81.1 1104,81.0 1112,81.1 1120,81.3 1128,81.7 1136,82.3 1144,83.0 1152,83.9 1160,85.0 1168,86.2 1176,87.5 1184,89.0 1192,90.6 1200,92.3 1208,94.1 1216,96.0 1224,98.0 1232,100.1 1240,102.2 1248,104.4 1256,106.7 1264,108.9 1272,111.2 1280,113.6 1288,115.9 1296,118.2 1304,120.5 1312,122.8 1320,125.1 1328,127.3 1336,129.4 1344,131.5 1352,133.5 1360,135.4 1368,137.3 1376,139.0 1384,140.7 1392,142.2 1400,143.7 1408,145.0 1416,146.2 1424,147.3 1432,148.3 1440,149.1 1448,149.8 1456,150.4 1464,150.9 1472,151.2 1480,151.4 1488,151.5 1496,151.4 1504,151.3 1512,151.0 1520,150.6 1528,150.2 1536,149.6 1544,148.9 1552,148.1 1560,147.3 1568,146.3 1576,145.3 1584,144.3 1592,143.1 1600,142.0" fill="none" stroke="#8a8f98" stroke-width="0.8" opacity="0.15"/><polyline points="0,141.6 8,140.6 16,139.4 24,138.2 32,136.9 40,135.5 48,134.1 56,132.6 64,131.0 72,129.3 80,127.6 88,125.9 96,124.1 104,122.3 112,120.4 120,118.6 128,116.7 136,114.9 144,113.0 152,111.2 160,109.4 168,107.6 176,105.9 184,104.3 192,102.7 200,101.2 208,99.7 216,98.4 224,97.1 232,96.0 240,95.0 248,94.0 256,93.3 264,92.6 272,92.1 280,91.7 288,91.5 296,91.4 304,91.5 312,91.7 320,92.1 328,92.6 336,93.3 344,94.2 352,95.2 360,96.3 368,97.6 376,99.1 384,100.7 392,102.4 400,104.2 408,106.2 416,108.3 424,110.5 432,112.8 440,115.2 448,117.6 456,120.2 464,122.8 472,125.4 480,128.1 488,130.8 496,133.5 504,136.2 512,139.0 520,141.6 528,144.3 536,146.9 544,149.5 552,152.0 560,154.4 568,156.7 576,158.9 584,161.0 592,163.0 600,164.9 608,166.6 616,168.1 624,169.6 632,170.8 640,171.9 648,172.8 656,173.5 664,174.0 672,174.4 680,174.5 688,174.5 696,174.3 704,173.9 712,173.3 720,172.5 728,171.5 736,170.4 744,169.1 752,167.6 760,165.9 768,164.1 776,162.1 784,160.0 792,157.8 800,155.4 808,152.9 816,150.3 824,147.7 832,144.9 840,142.1 848,139.3 856,136.3 864,133.4 872,130.4 880,127.5 888,124.5 896,121.6 904,118.7 912,115.8 920,113.1 928,110.3 936,107.7 944,105.1 952,102.7 960,100.4 968,98.2 976,96.1 984,94.2 992,92.4 1000,90.7 1008,89.3 1016,88.0 1024,86.8 1032,85.9 1040,85.1 1048,84.5 1056,84.1 1064,83.8 1072,83.8 1080,83.9 1088,84.2 1096,84.7 1104,85.3 1112,86.1 1120,87.1 1128,88.2 1136,89.5 1144,91.0 1152,92.5 1160,94.2 1168,96.0 1176,97.9 1184,100.0 1192,102.1 1200,104.2 1208,106.5 1216,108.8 1224,111.2 1232,113.6 1240,116.0 1248,118.4 1256,120.8 1264,123.3 1272,125.7 1280,128.1 1288,130.4 1296,132.7 1304,134.9 1312,137.1 1320,139.2 1328,141.2 1336,143.1 1344,144.9 1352,146.6 1360,148.2 1368,149.7 1376,151.1 1384,152.3 1392,153.5 1400,154.4 1408,155.3 1416,156.0 1424,156.6 1432,157.1 1440,157.4 1448,157.6 1456,157.6 1464,157.5 1472,157.3 1480,157.0 1488,156.6 1496,156.1 1504,155.4 1512,154.7 1520,153.8 1528,152.9 1536,151.9 1544,150.8 1552,149.6 1560,148.4 1568,147.1 1576,145.8 1584,144.4 1592,143.0 1600,141.6" fill="none" stroke="#8a8f98" stroke-width="0.8" opacity="0.16"/><polyline points="0,140.0 8,138.7 16,137.3 24,135.8 32,134.3 40,132.7 48,131.1 56,129.4 64,127.7 72,125.9 80,124.2 88,122.4 96,120.6 104,118.8 112,117.0 120,115.3 128,113.5 136,111.9 144,110.2 152,108.6 160,107.1 168,105.6 176,104.3 184,103.0 192,101.8 200,100.7 208,99.8 216,98.9 224,98.2 232,97.6 240,97.1 248,96.8 256,96.6 264,96.6 272,96.7 280,97.0 288,97.4 296,97.9 304,98.7 312,99.5 320,100.6 328,101.7 336,103.1 344,104.5 352,106.1 360,107.9 368,109.7 376,111.7 384,113.8 392,116.0 400,118.3 408,120.7 416,123.1 424,125.6 432,128.2 440,130.8 448,133.5 456,136.2 464,138.9 472,141.6 480,144.3 488,146.9 496,149.6 504,152.2 512,154.7 520,157.1 528,159.5 536,161.8 544,164.0 552,166.0 560,168.0 568,169.8 576,171.4 584,173.0 592,174.3 600,175.5 608,176.5 616,177.4 624,178.0 632,178.5 640,178.8 648,178.9 656,178.8 664,178.5 672,178.1 680,177.4 688,176.6 696,175.5 704,174.3 712,172.9 720,171.3 728,169.6 736,167.7 744,165.7 752,163.5 760,161.2 768,158.8 776,156.3 784,153.6 792,150.9 800,148.1 808,145.2 816,142.3 824,139.3 832,136.3 840,133.3 848,130.3 856,127.3 864,124.3 872,121.4 880,118.5 888,115.7 896,112.9 904,110.3 912,107.7 920,105.2 928,102.9 936,100.7 944,98.6 952,96.7 960,94.9 968,93.3 976,91.8 984,90.5 992,89.4 1000,88.5 1008,87.8 1016,87.2 1024,86.8 1032,86.6 1040,86.6 1048,86.8 1056,87.2 1064,87.7 1072,88.5 1080,89.4 1088,90.4 1096,91.6 1104,93.0 1112,94.5 1120,96.2 1128,98.0 1136,99.9 1144,101.9 1152,104.0 1160,106.2 1168,108.5 1176,110.9 1184,113.3 1192,115.8 1200,118.3 1208,120.8 1216,123.3 1224,125.9 1232,128.4 1240,130.9 1248,133.4 1256,135.8 1264,138.2 1272,140.5 1280,142.8 1288,144.9 1296,147.0 1304,149.0 1312,150.9 1320,152.7 1328,154.3 1336,155.8 1344,157.2 1352,158.5 1360,159.7 1368,160.7 1376,161.5 1384,162.2 1392,162.8 1400,163.3 1408,163.6 1416,163.7 1424,163.8 1432,163.6 1440,163.4 1448,163.0 1456,162.5 1464,161.9 1472,161.2 1480,160.4 1488,159.5 1496,158.4 1504,157.3 1512,156.2 1520,154.9 1528,153.6 1536,152.2 1544,150.8 1552,149.3 1560,147.8 1568,146.3 1576,144.7 1584,143.2 1592,141.6 1600,140.0" fill="none" stroke="#8a8f98" stroke-width="0.8" opacity="0.17"/><polyline points="0,137.7 8,136.2 16,134.6 24,133.0 32,131.3 40,129.7 48,128.0 56,126.2 64,124.5 72,122.8 80,121.1 88,119.4 96,117.8 104,116.2 112,114.6 120,113.1 128,111.6 136,110.2 144,108.9 152,107.7 160,106.6 168,105.6 176,104.7 184,103.9 192,103.2 200,102.7 208,102.2 216,102.0 224,101.8 232,101.8 240,102.0 248,102.3 256,102.7 264,103.3 272,104.1 280,105.0 288,106.0 296,107.2 304,108.6 312,110.0 320,111.6 328,113.4 336,115.2 344,117.2 352,119.3 360,121.5 368,123.8 376,126.1 384,128.6 392,131.1 400,133.6 408,136.3 416,138.9 424,141.6 432,144.2 440,146.9 448,149.5 456,152.2 464,154.8 472,157.3 480,159.8 488,162.2 496,164.5 504,166.8 512,168.9 520,170.9 528,172.8 536,174.6 544,176.2 552,177.6 560,178.9 568,180.1 576,181.0 584,181.8 592,182.4 600,182.9 608,183.1 616,183.1 624,183.0 632,182.6 640,182.1 648,181.4 656,180.5 664,179.4 672,178.1 680,176.6 688,175.0 696,173.2 704,171.3 712,169.2 720,166.9 728,164.6 736,162.1 744,159.5 752,156.8 760,154.0 768,151.1 776,148.2 784,145.2 792,142.2 800,139.2 808,136.1 816,133.1 824,130.1 832,127.0 840,124.1 848,121.2 856,118.3 864,115.5 872,112.9 880,110.3 888,107.8 896,105.4 904,103.2 912,101.2 920,99.2 928,97.5 936,95.9 944,94.4 952,93.2 960,92.1 968,91.2 976,90.5 984,90.0 992,89.7 1000,89.5 1008,89.6 1016,89.8 1024,90.3 1032,90.9 1040,91.7 1048,92.7 1056,93.8 1064,95.1 1072,96.6 1080,98.2 1088,100.0 1096,101.9 1104,103.9 1112,106.0 1120,108.2 1128,110.5 1136,112.9 1144,115.4 1152,117.9 1160,120.5 1168,123.1 1176,125.7 1184,128.4 1192,131.0 1200,133.6 1208,136.3 1216,138.8 1224,141.3 1232,143.8 1240,146.2 1248,148.5 1256,150.8 1264,152.9 1272,155.0 1280,156.9 1288,158.7 1296,160.4 1304,162.0 1312,163.4 1320,164.7 1328,165.9 1336,166.9 1344,167.8 1352,168.5 1360,169.1 1368,169.5 1376,169.8 1384,169.9 1392,169.9 1400,169.7 1408,169.4 1416,169.0 1424,168.5 1432,167.8 1440,167.0 1448,166.1 1456,165.1 1464,164.0 1472,162.8 1480,161.5 1488,160.1 1496,158.7 1504,157.2 1512,155.7 1520,154.1 1528,152.5 1536,150.8 1544,149.2 1552,147.5 1560,145.8 1568,144.2 1576,142.5 1584,140.9 1592,139.3 1600,137.7" fill="none" stroke="#8a8f98" stroke-width="0.8" opacity="0.17"/><polyline points="0,135.1 8,133.5 16,131.8 24,130.2 32,128.6 40,126.9 48,125.3 56,123.7 64,122.1 72,120.6 80,119.1 88,117.6 96,116.3 104,115.0 112,113.7 120,112.6 128,111.5 136,110.6 144,109.7 152,109.0 160,108.3 168,107.8 176,107.5 184,107.2 192,107.2 200,107.2 208,107.4 216,107.7 224,108.2 232,108.8 240,109.6 248,110.5 256,111.6 264,112.8 272,114.1 280,115.6 288,117.2 296,118.9 304,120.8 312,122.8 320,124.8 328,127.0 336,129.3 344,131.6 352,134.0 360,136.5 368,139.1 376,141.6 384,144.2 392,146.9 400,149.5 408,152.1 416,154.7 424,157.3 432,159.9 440,162.4 448,164.8 456,167.2 464,169.5 472,171.7 480,173.7 488,175.7 496,177.5 504,179.2 512,180.8 520,182.2 528,183.4 536,184.5 544,185.4 552,186.2 560,186.7 568,187.1 576,187.2 584,187.2 592,187.0 600,186.6 608,186.0 616,185.2 624,184.2 632,183.1 640,181.7 648,180.2 656,178.5 664,176.7 672,174.7 680,172.5 688,170.2 696,167.8 704,165.3 712,162.6 720,159.9 728,157.1 736,154.1 744,151.2 752,148.2 760,145.1 768,142.0 776,138.9 784,135.8 792,132.8 800,129.7 808,126.7 816,123.8 824,120.9 832,118.2 840,115.5 848,112.9 856,110.4 864,108.0 872,105.8 880,103.8 888,101.9 896,100.1 904,98.5 912,97.1 920,95.9 928,94.9 936,94.0 944,93.4 952,92.9 960,92.6 968,92.6 976,92.7 984,93.0 992,93.5 1000,94.2 1008,95.1 1016,96.1 1024,97.4 1032,98.8 1040,100.3 1048,102.0 1056,103.9 1064,105.9 1072,108.0 1080,110.2 1088,112.5 1096,115.0 1104,117.5 1112,120.0 1120,122.7 1128,125.3 1136,128.1 1144,130.8 1152,133.5 1160,136.3 1168,139.0 1176,141.7 1184,144.3 1192,146.9 1200,149.5 1208,152.0 1216,154.4 1224,156.7 1232,158.9 1240,161.0 1248,163.0 1256,164.9 1264,166.6 1272,168.2 1280,169.7 1288,171.0 1296,172.1 1304,173.2 1312,174.0 1320,174.8 1328,175.3 1336,175.7 1344,176.0 1352,176.1 1360,176.0 1368,175.8 1376,175.5 1384,175.0 1392,174.4 1400,173.6 1408,172.7 1416,171.7 1424,170.6 1432,169.4 1440,168.1 1448,166.8 1456,165.3 1464,163.8 1472,162.2 1480,160.5 1488,158.8 1496,157.1 1504,155.3 1512,153.5 1520,151.7 1528,149.9 1536,148.2 1544,146.4 1552,144.7 1560,142.9 1568,141.3 1576,139.6 1584,138.1 1592,136.5 1600,135.1" fill="none" stroke="#8a8f98" stroke-width="0.8" opacity="0.18"/><polyline points="0,132.7 8,131.1 16,129.6 24,128.1 32,126.6 40,125.1 48,123.7 56,122.3 64,121.0 72,119.8 80,118.6 88,117.5 96,116.5 104,115.6 112,114.8 120,114.1 128,113.6 136,113.1 144,112.8 152,112.6 160,112.6 168,112.6 176,112.9 184,113.2 192,113.7 200,114.4 208,115.1 216,116.1 224,117.1 232,118.4 240,119.7 248,121.2 256,122.8 264,124.5 272,126.4 280,128.3 288,130.4 296,132.5 304,134.8 312,137.1 320,139.5 328,141.9 336,144.4 344,147.0 352,149.5 360,152.1 368,154.7 376,157.3 384,159.9 392,162.4 400,164.9 408,167.4 416,169.8 424,172.1 432,174.3 440,176.4 448,178.4 456,180.4 464,182.1 472,183.8 480,185.3 488,186.6 496,187.8 504,188.8 512,189.7 520,190.3 528,190.8 536,191.1 544,191.2 552,191.2 560,190.9 568,190.4 576,189.8 584,188.9 592,187.9 600,186.7 608,185.3 616,183.7 624,182.0 632,180.1 640,178.0 648,175.8 656,173.5 664,171.0 672,168.4 680,165.7 688,162.9 696,160.0 704,157.1 712,154.1 720,151.0 728,147.9 736,144.8 744,141.7 752,138.6 760,135.5 768,132.4 776,129.4 784,126.5 792,123.6 800,120.8 808,118.1 816,115.5 824,113.0 832,110.7 840,108.5 848,106.4 856,104.6 864,102.8 872,101.3 880,99.9 888,98.7 896,97.7 904,96.9 912,96.3 920,95.9 928,95.7 936,95.7 944,95.9 952,96.3 960,96.8 968,97.6 976,98.6 984,99.7 992,101.0 1000,102.5 1008,104.2 1016,106.0 1024,107.9 1032,110.0 1040,112.2 1048,114.5 1056,117.0 1064,119.5 1072,122.1 1080,124.8 1088,127.5 1096,130.3 1104,133.1 1112,135.9 1120,138.8 1128,141.6 1136,144.4 1144,147.2 1152,149.9 1160,152.6 1168,155.3 1176,157.8 1184,160.3 1192,162.7 1200,164.9 1208,167.1 1216,169.1 1224,171.0 1232,172.8 1240,174.4 1248,175.9 1256,177.2 1264,178.4 1272,179.4 1280,180.3 1288,181.0 1296,181.5 1304,181.9 1312,182.1 1320,182.2 1328,182.1 1336,181.8 1344,181.4 1352,180.9 1360,180.2 1368,179.4 1376,178.4 1384,177.3 1392,176.1 1400,174.8 1408,173.4 1416,171.9 1424,170.4 1432,168.7 1440,167.0 1448,165.2 1456,163.4 1464,161.6 1472,159.7 1480,157.8 1488,155.9 1496,154.0 1504,152.1 1512,150.2 1520,148.3 1528,146.5 1536,144.7 1544,143.0 1552,141.3 1560,139.7 1568,138.1 1576,136.6 1584,135.2 1592,133.9 1600,132.7" fill="none" stroke="#8a8f98" stroke-width="0.8" opacity="0.19"/><polyline points="0,131.1 8,129.7 16,128.4 24,127.1 32,125.8 40,124.7 48,123.6 56,122.6 64,121.6 72,120.8 80,120.0 88,119.4 96,118.9 104,118.5 112,118.2 120,118.1 128,118.0 136,118.2 144,118.4 152,118.8 160,119.3 168,120.0 176,120.8 184,121.7 192,122.8 200,124.0 208,125.3 216,126.8 224,128.4 232,130.1 240,131.9 248,133.9 256,135.9 264,138.0 272,140.2 280,142.5 288,144.9 296,147.3 304,149.8 312,152.3 320,154.8 328,157.3 336,159.9 344,162.4 352,164.9 360,167.4 368,169.9 376,172.3 384,174.6 392,176.8 400,179.0 408,181.1 416,183.0 424,184.9 432,186.6 440,188.2 448,189.6 456,190.9 464,192.0 472,193.0 480,193.8 488,194.4 496,194.8 504,195.0 512,195.1 520,195.0 528,194.6 536,194.1 544,193.4 552,192.5 560,191.4 568,190.1 576,188.7 584,187.1 592,185.3 600,183.3 608,181.2 616,179.0 624,176.6 632,174.1 640,171.4 648,168.7 656,165.9 664,162.9 672,160.0 680,156.9 688,153.8 696,150.7 704,147.6 712,144.4 720,141.3 728,138.2 736,135.1 744,132.1 752,129.2 760,126.3 768,123.5 776,120.8 784,118.2 792,115.7 800,113.4 808,111.2 816,109.2 824,107.3 832,105.6 840,104.1 848,102.8 856,101.6 864,100.7 872,99.9 880,99.4 888,99.0 896,98.9 904,98.9 912,99.2 920,99.7 928,100.3 936,101.2 944,102.2 952,103.4 960,104.8 968,106.4 976,108.2 984,110.1 992,112.1 1000,114.3 1008,116.6 1016,119.0 1024,121.5 1032,124.2 1040,126.9 1048,129.6 1056,132.5 1064,135.3 1072,138.3 1080,141.2 1088,144.1 1096,147.0 1104,149.9 1112,152.8 1120,155.6 1128,158.4 1136,161.1 1144,163.7 1152,166.2 1160,168.7 1168,171.0 1176,173.2 1184,175.3 1192,177.2 1200,179.0 1208,180.7 1216,182.2 1224,183.5 1232,184.7 1240,185.7 1248,186.6 1256,187.2 1264,187.8 1272,188.1 1280,188.3 1288,188.3 1296,188.1 1304,187.8 1312,187.4 1320,186.7 1328,186.0 1336,185.1 1344,184.0 1352,182.9 1360,181.6 1368,180.2 1376,178.7 1384,177.1 1392,175.4 1400,173.6 1408,171.8 1416,169.9 1424,168.0 1432,166.0 1440,164.0 1448,162.0 1456,159.9 1464,157.9 1472,155.9 1480,153.9 1488,151.9 1496,150.0 1504,148.1 1512,146.2 1520,144.4 1528,142.7 1536,141.1 1544,139.5 1552,138.0 1560,136.6 1568,135.3 1576,134.1 1584,133.0 1592,132.0 1600,131.1" fill="none" stroke="#8a8f98" stroke-width="0.8" opacity="0.20"/><polyline points="0,130.8 8,129.7 16,128.6 24,127.7 32,126.8 40,126.0 48,125.4 56,124.8 64,124.3 72,123.9 80,123.7 88,123.6 96,123.6 104,123.7 112,124.0 120,124.4 128,124.9 136,125.6 144,126.4 152,127.4 160,128.4 168,129.7 176,131.0 184,132.4 192,134.0 200,135.7 208,137.5 216,139.4 224,141.4 232,143.5 240,145.7 248,147.9 256,150.3 264,152.6 272,155.0 280,157.5 288,160.0 296,162.5 304,164.9 312,167.4 320,169.9 328,172.3 336,174.7 344,177.0 352,179.3 360,181.5 368,183.6 376,185.6 384,187.5 392,189.3 400,190.9 408,192.5 416,193.8 424,195.1 432,196.1 440,197.0 448,197.7 456,198.3 464,198.6 472,198.8 480,198.8 488,198.6 496,198.2 504,197.7 512,196.9 520,195.9 528,194.8 536,193.5 544,192.0 552,190.3 560,188.5 568,186.5 576,184.3 584,182.0 592,179.6 600,177.1 608,174.4 616,171.6 624,168.8 632,165.8 640,162.8 648,159.7 656,156.6 664,153.5 672,150.3 680,147.2 688,144.0 696,140.9 704,137.8 712,134.8 720,131.9 728,129.0 736,126.2 744,123.5 752,120.9 760,118.5 768,116.2 776,114.0 784,112.0 792,110.2 800,108.5 808,107.1 816,105.8 824,104.7 832,103.8 840,103.1 848,102.6 856,102.3 864,102.2 872,102.3 880,102.7 888,103.2 896,103.9 904,104.9 912,106.0 920,107.3 928,108.8 936,110.4 944,112.3 952,114.3 960,116.4 968,118.7 976,121.1 984,123.6 992,126.2 1000,128.9 1008,131.7 1016,134.6 1024,137.5 1032,140.5 1040,143.5 1048,146.5 1056,149.5 1064,152.5 1072,155.5 1080,158.5 1088,161.4 1096,164.2 1104,167.0 1112,169.6 1120,172.2 1128,174.7 1136,177.1 1144,179.3 1152,181.4 1160,183.4 1168,185.2 1176,186.9 1184,188.4 1192,189.8 1200,190.9 1208,191.9 1216,192.8 1224,193.4 1232,193.9 1240,194.2 1248,194.4 1256,194.3 1264,194.1 1272,193.8 1280,193.2 1288,192.5 1296,191.7 1304,190.7 1312,189.6 1320,188.3 1328,186.9 1336,185.4 1344,183.8 1352,182.1 1360,180.3 1368,178.4 1376,176.4 1384,174.4 1392,172.4 1400,170.3 1408,168.2 1416,166.0 1424,163.9 1432,161.7 1440,159.6 1448,157.5 1456,155.4 1464,153.3 1472,151.3 1480,149.4 1488,147.5 1496,145.7 1504,143.9 1512,142.3 1520,140.7 1528,139.2 1536,137.9 1544,136.6 1552,135.4 1560,134.4 1568,133.4 1576,132.6 1584,131.9 1592,131.3 1600,130.8" fill="none" stroke="#8a8f98" stroke-width="0.8" opacity="0.20"/><polyline points="0,132.1 8,131.4 16,130.7 24,130.2 32,129.8 40,129.5 48,129.3 56,129.2 64,129.2 72,129.4 80,129.7 88,130.1 96,130.6 104,131.3 112,132.1 120,133.1 128,134.1 136,135.3 144,136.7 152,138.1 160,139.6 168,141.3 176,143.1 184,145.0 192,146.9 200,149.0 208,151.1 216,153.3 224,155.6 232,157.9 240,160.3 248,162.7 256,165.1 264,167.5 272,169.9 280,172.3 288,174.7 296,177.1 304,179.4 312,181.7 320,183.9 328,186.0 336,188.1 344,190.0 352,191.8 360,193.6 368,195.1 376,196.6 384,197.9 392,199.1 400,200.1 408,200.9 416,201.6 424,202.0 432,202.3 440,202.5 448,202.4 456,202.2 464,201.7 472,201.1 480,200.3 488,199.3 496,198.1 504,196.7 512,195.2 520,193.4 528,191.6 536,189.5 544,187.3 552,185.0 560,182.6 568,180.0 576,177.3 584,174.5 592,171.6 600,168.6 608,165.6 616,162.5 624,159.4 632,156.2 640,153.1 648,149.9 656,146.8 664,143.7 672,140.6 680,137.6 688,134.6 696,131.8 704,129.0 712,126.3 720,123.8 728,121.4 736,119.1 744,116.9 752,115.0 760,113.2 768,111.6 776,110.1 784,108.9 792,107.8 800,107.0 808,106.3 816,105.9 824,105.7 832,105.7 840,105.9 848,106.3 856,106.9 864,107.7 872,108.7 880,109.9 888,111.3 896,112.9 904,114.6 912,116.5 920,118.6 928,120.8 936,123.2 944,125.7 952,128.3 960,131.0 968,133.8 976,136.7 984,139.7 992,142.7 1000,145.8 1008,148.9 1016,151.9 1024,155.0 1032,158.1 1040,161.2 1048,164.2 1056,167.2 1064,170.1 1072,172.9 1080,175.6 1088,178.3 1096,180.8 1104,183.2 1112,185.5 1120,187.6 1128,189.6 1136,191.5 1144,193.1 1152,194.7 1160,196.0 1168,197.2 1176,198.2 1184,199.0 1192,199.6 1200,200.1 1208,200.3 1216,200.4 1224,200.3 1232,200.1 1240,199.6 1248,199.0 1256,198.2 1264,197.3 1272,196.2 1280,195.0 1288,193.6 1296,192.1 1304,190.5 1312,188.8 1320,187.0 1328,185.1 1336,183.1 1344,181.0 1352,178.9 1360,176.7 1368,174.5 1376,172.2 1384,170.0 1392,167.7 1400,165.4 1408,163.2 1416,160.9 1424,158.7 1432,156.6 1440,154.4 1448,152.4 1456,150.4 1464,148.5 1472,146.7 1480,144.9 1488,143.3 1496,141.7 1504,140.3 1512,139.0 1520,137.7 1528,136.6 1536,135.7 1544,134.8 1552,134.1 1560,133.4 1568,132.9 1576,132.5 1584,132.3 1592,132.1 1600,132.1" fill="none" stroke="#8a8f98" stroke-width="0.8" opacity="0.21"/><polyline points="0,135.3 8,135.1 16,134.9 24,134.8 32,134.9 40,135.1 48,135.4 56,135.8 64,136.4 72,137.0 80,137.9 88,138.8 96,139.8 104,141.0 112,142.3 120,143.7 128,145.3 136,146.9 144,148.6 152,150.5 160,152.4 168,154.4 176,156.5 184,158.6 192,160.9 200,163.1 208,165.4 216,167.8 224,170.1 232,172.5 240,174.8 248,177.2 256,179.5 264,181.8 272,184.1 280,186.3 288,188.4 296,190.4 304,192.4 312,194.3 320,196.0 328,197.7 336,199.2 344,200.6 352,201.8 360,202.9 368,203.9 376,204.6 384,205.2 392,205.7 400,205.9 408,206.0 416,205.9 424,205.5 432,205.1 440,204.4 448,203.5 456,202.5 464,201.2 472,199.8 480,198.2 488,196.5 496,194.6 504,192.5 512,190.3 520,187.9 528,185.4 536,182.8 544,180.1 552,177.3 560,174.4 568,171.4 576,168.4 584,165.3 592,162.2 600,159.0 608,155.8 616,152.7 624,149.6 632,146.4 640,143.4 648,140.4 656,137.4 664,134.6 672,131.8 680,129.2 688,126.7 696,124.3 704,122.0 712,120.0 720,118.0 728,116.3 736,114.7 744,113.3 752,112.1 760,111.1 768,110.3 776,109.7 784,109.4 792,109.2 800,109.3 808,109.5 816,110.0 824,110.7 832,111.6 840,112.7 848,113.9 856,115.4 864,117.1 872,118.9 880,120.9 888,123.1 896,125.4 904,127.9 912,130.5 920,133.2 928,136.0 936,138.9 944,141.8 952,144.9 960,148.0 968,151.1 976,154.3 984,157.5 992,160.6 1000,163.8 1008,166.9 1016,170.0 1024,173.0 1032,176.0 1040,178.9 1048,181.7 1056,184.3 1064,186.9 1072,189.3 1080,191.7 1088,193.8 1096,195.8 1104,197.7 1112,199.4 1120,200.9 1128,202.2 1136,203.4 1144,204.3 1152,205.1 1160,205.7 1168,206.1 1176,206.4 1184,206.4 1192,206.2 1200,205.9 1208,205.4 1216,204.7 1224,203.9 1232,202.8 1240,201.7 1248,200.3 1256,198.9 1264,197.3 1272,195.6 1280,193.7 1288,191.8 1296,189.8 1304,187.6 1312,185.5 1320,183.2 1328,180.9 1336,178.6 1344,176.2 1352,173.8 1360,171.4 1368,169.0 1376,166.6 1384,164.3 1392,162.0 1400,159.7 1408,157.5 1416,155.3 1424,153.2 1432,151.2 1440,149.3 1448,147.5 1456,145.8 1464,144.2 1472,142.6 1480,141.3 1488,140.0 1496,138.8 1504,137.8 1512,136.9 1520,136.2 1528,135.5 1536,135.0 1544,134.6 1552,134.4 1560,134.2 1568,134.2 1576,134.3 1584,134.6 1592,134.9 1600,135.3" fill="none" stroke="#8a8f98" stroke-width="0.8" opacity="0.22"/><polyline points="0,140.6 8,140.8 16,141.1 24,141.6 32,142.1 40,142.8 48,143.6 56,144.5 64,145.6 72,146.7 80,148.0 88,149.4 96,150.9 104,152.5 112,154.2 120,156.0 128,157.8 136,159.8 144,161.8 152,163.9 160,166.1 168,168.3 176,170.5 184,172.8 192,175.1 200,177.3 208,179.6 216,181.9 224,184.2 232,186.4 240,188.6 248,190.7 256,192.8 264,194.7 272,196.6 280,198.4 288,200.1 296,201.7 304,203.1 312,204.5 320,205.6 328,206.7 336,207.5 344,208.2 352,208.8 360,209.1 368,209.3 376,209.3 384,209.2 392,208.8 400,208.3 408,207.5 416,206.6 424,205.5 432,204.3 440,202.8 448,201.2 456,199.4 464,197.5 472,195.4 480,193.1 488,190.8 496,188.3 504,185.6 512,182.9 520,180.1 528,177.2 536,174.2 544,171.1 552,168.1 560,164.9 568,161.8 576,158.6 584,155.5 592,152.4 600,149.3 608,146.2 616,143.2 624,140.3 632,137.5 640,134.8 648,132.2 656,129.7 664,127.3 672,125.1 680,123.1 688,121.2 696,119.5 704,118.0 712,116.6 720,115.5 728,114.5 736,113.8 744,113.3 752,113.0 760,112.9 768,113.0 776,113.3 784,113.9 792,114.6 800,115.6 808,116.8 816,118.1 824,119.7 832,121.4 840,123.4 848,125.5 856,127.7 864,130.1 872,132.7 880,135.3 888,138.1 896,141.0 904,144.0 912,147.1 920,150.2 928,153.4 936,156.6 944,159.8 952,163.1 960,166.3 968,169.5 976,172.7 984,175.8 992,178.9 1000,181.9 1008,184.9 1016,187.7 1024,190.4 1032,193.0 1040,195.5 1048,197.8 1056,200.0 1064,202.0 1072,203.9 1080,205.6 1088,207.1 1096,208.4 1104,209.5 1112,210.5 1120,211.2 1128,211.8 1136,212.1 1144,212.3 1152,212.3 1160,212.1 1168,211.7 1176,211.1 1184,210.3 1192,209.4 1200,208.3 1208,207.0 1216,205.6 1224,204.0 1232,202.3 1240,200.5 1248,198.5 1256,196.5 1264,194.3 1272,192.1 1280,189.8 1288,187.4 1296,185.0 1304,182.5 1312,180.0 1320,177.5 1328,175.0 1336,172.5 1344,170.0 1352,167.5 1360,165.1 1368,162.7 1376,160.4 1384,158.1 1392,155.9 1400,153.9 1408,151.9 1416,150.0 1424,148.2 1432,146.5 1440,144.9 1448,143.5 1456,142.2 1464,141.0 1472,139.9 1480,139.0 1488,138.2 1496,137.6 1504,137.1 1512,136.7 1520,136.4 1528,136.3 1536,136.3 1544,136.5 1552,136.8 1560,137.1 1568,137.6 1576,138.2 1584,138.9 1592,139.7 1600,140.6" fill="none" stroke="#8a8f98" stroke-width="0.8" opacity="0.22"/><polyline points="0,147.9 8,148.6 16,149.3 24,150.2 32,151.3 40,152.4 48,153.6 56,155.0 64,156.4 72,158.0 80,159.7 88,161.4 96,163.2 104,165.1 112,167.1 120,169.1 128,171.2 136,173.3 144,175.5 152,177.7 160,179.9 168,182.1 176,184.3 184,186.6 192,188.7 200,190.9 208,193.0 216,195.0 224,197.0 232,198.9 240,200.7 248,202.5 256,204.1 264,205.6 272,206.9 280,208.2 288,209.3 296,210.3 304,211.1 312,211.7 320,212.2 328,212.5 336,212.6 344,212.6 352,212.4 360,212.0 368,211.4 376,210.6 384,209.7 392,208.5 400,207.2 408,205.7 416,204.1 424,202.3 432,200.3 440,198.2 448,196.0 456,193.6 464,191.0 472,188.4 480,185.7 488,182.8 496,179.9 504,176.9 512,173.9 520,170.8 528,167.7 536,164.6 544,161.4 552,158.3 560,155.2 568,152.1 576,149.1 584,146.1 592,143.3 600,140.5 608,137.8 616,135.2 624,132.8 632,130.5 640,128.3 648,126.3 656,124.5 664,122.8 672,121.3 680,120.1 688,119.0 696,118.1 704,117.4 712,117.0 720,116.7 728,116.7 736,116.9 744,117.3 752,117.9 760,118.8 768,119.8 776,121.0 784,122.5 792,124.1 800,126.0 808,128.0 816,130.1 824,132.5 832,135.0 840,137.6 848,140.3 856,143.2 864,146.2 872,149.2 880,152.4 888,155.6 896,158.8 904,162.1 912,165.4 920,168.7 928,172.0 936,175.3 944,178.5 952,181.7 960,184.9 968,187.9 976,190.9 984,193.8 992,196.5 1000,199.1 1008,201.6 1016,204.0 1024,206.1 1032,208.2 1040,210.0 1048,211.7 1056,213.2 1064,214.5 1072,215.6 1080,216.5 1088,217.2 1096,217.7 1104,218.1 1112,218.2 1120,218.1 1128,217.8 1136,217.3 1144,216.7 1152,215.8 1160,214.8 1168,213.6 1176,212.2 1184,210.7 1192,209.0 1200,207.2 1208,205.3 1216,203.2 1224,201.0 1232,198.8 1240,196.4 1248,194.0 1256,191.5 1264,188.9 1272,186.3 1280,183.7 1288,181.1 1296,178.5 1304,175.8 1312,173.2 1320,170.6 1328,168.1 1336,165.6 1344,163.2 1352,160.8 1360,158.6 1368,156.4 1376,154.3 1384,152.3 1392,150.5 1400,148.7 1408,147.1 1416,145.6 1424,144.3 1432,143.0 1440,142.0 1448,141.0 1456,140.2 1464,139.6 1472,139.1 1480,138.7 1488,138.5 1496,138.4 1504,138.4 1512,138.6 1520,138.9 1528,139.4 1536,139.9 1544,140.6 1552,141.4 1560,142.2 1568,143.2 1576,144.3 1584,145.4 1592,146.6 1600,147.9" fill="none" stroke="#8a8f98" stroke-width="0.8" opacity="0.23"/><polyline points="0,157.0 8,158.1 16,159.3 24,160.6 32,162.0 40,163.5 48,165.1 56,166.8 64,168.5 72,170.4 80,172.3 88,174.3 96,176.3 104,178.3 112,180.4 120,182.5 128,184.7 136,186.8 144,189.0 152,191.1 160,193.2 168,195.2 176,197.3 184,199.2 192,201.1 200,203.0 208,204.7 216,206.3 224,207.9 232,209.3 240,210.6 248,211.8 256,212.8 264,213.7 272,214.5 280,215.0 288,215.5 296,215.7 304,215.8 312,215.7 320,215.4 328,215.0 336,214.4 344,213.6 352,212.6 360,211.4 368,210.1 376,208.6 384,206.9 392,205.1 400,203.1 408,201.0 416,198.7 424,196.3 432,193.8 440,191.1 448,188.4 456,185.6 464,182.7 472,179.7 480,176.7 488,173.6 496,170.5 504,167.4 512,164.3 520,161.2 528,158.1 536,155.1 544,152.1 552,149.1 560,146.3 568,143.5 576,140.9 584,138.4 592,136.0 600,133.7 608,131.6 616,129.7 624,127.9 632,126.3 640,124.9 648,123.6 656,122.6 664,121.8 672,121.2 680,120.8 688,120.7 696,120.7 704,121.0 712,121.4 720,122.1 728,123.0 736,124.1 744,125.5 752,127.0 760,128.7 768,130.6 776,132.7 784,134.9 792,137.4 800,139.9 808,142.6 816,145.4 824,148.4 832,151.4 840,154.6 848,157.8 856,161.0 864,164.3 872,167.7 880,171.1 888,174.4 896,177.8 904,181.1 912,184.4 920,187.7 928,190.8 936,193.9 944,196.9 952,199.8 960,202.6 968,205.2 976,207.7 984,210.1 992,212.3 1000,214.3 1008,216.1 1016,217.8 1024,219.3 1032,220.5 1040,221.6 1048,222.5 1056,223.2 1064,223.6 1072,223.9 1080,223.9 1088,223.8 1096,223.4 1104,222.9 1112,222.1 1120,221.2 1128,220.1 1136,218.8 1144,217.3 1152,215.7 1160,213.9 1168,212.0 1176,210.0 1184,207.8 1192,205.5 1200,203.1 1208,200.6 1216,198.1 1224,195.4 1232,192.8 1240,190.1 1248,187.3 1256,184.6 1264,181.8 1272,179.1 1280,176.4 1288,173.7 1296,171.0 1304,168.4 1312,165.9 1320,163.5 1328,161.1 1336,158.8 1344,156.7 1352,154.6 1360,152.7 1368,150.9 1376,149.2 1384,147.7 1392,146.3 1400,145.0 1408,143.9 1416,143.0 1424,142.2 1432,141.5 1440,141.0 1448,140.7 1456,140.5 1464,140.4 1472,140.5 1480,140.7 1488,141.1 1496,141.6 1504,142.2 1512,143.0 1520,143.8 1528,144.8 1536,145.8 1544,147.0 1552,148.2 1560,149.5 1568,150.9 1576,152.4 1584,153.9 1592,155.4 1600,157.0" fill="none" stroke="#8a8f98" stroke-width="0.8" opacity="0.24"/><polyline points="0,167.5 8,168.9 16,170.5 24,172.1 32,173.8 40,175.6 48,177.4 56,179.3 64,181.3 72,183.2 80,185.2 88,187.3 96,189.3 104,191.4 112,193.5 120,195.5 128,197.5 136,199.5 144,201.4 152,203.3 160,205.1 168,206.9 176,208.5 184,210.1 192,211.6 200,212.9 208,214.2 216,215.3 224,216.2 232,217.1 240,217.7 248,218.3 256,218.6 264,218.8 272,218.9 280,218.7 288,218.4 296,217.9 304,217.2 312,216.4 320,215.4 328,214.2 336,212.9 344,211.3 352,209.6 360,207.8 368,205.8 376,203.7 384,201.4 392,199.0 400,196.5 408,193.9 416,191.1 424,188.3 432,185.4 440,182.5 448,179.5 456,176.4 464,173.3 472,170.3 480,167.2 488,164.1 496,161.1 504,158.1 512,155.1 520,152.2 528,149.4 536,146.7 544,144.1 552,141.6 560,139.3 568,137.1 576,135.0 584,133.1 592,131.4 600,129.9 608,128.5 616,127.4 624,126.4 632,125.7 640,125.1 648,124.8 656,124.7 664,124.8 672,125.2 680,125.7 688,126.5 696,127.5 704,128.6 712,130.0 720,131.6 728,133.4 736,135.4 744,137.6 752,139.9 760,142.4 768,145.0 776,147.8 784,150.7 792,153.7 800,156.8 808,160.0 816,163.2 824,166.6 832,169.9 840,173.4 848,176.8 856,180.2 864,183.6 872,187.0 880,190.3 888,193.6 896,196.8 904,199.9 912,202.9 920,205.9 928,208.6 936,211.3 944,213.8 952,216.2 960,218.3 968,220.3 976,222.2 984,223.8 992,225.3 1000,226.5 1008,227.6 1016,228.4 1024,229.0 1032,229.4 1040,229.6 1048,229.6 1056,229.4 1064,229.0 1072,228.3 1080,227.5 1088,226.5 1096,225.3 1104,223.9 1112,222.3 1120,220.6 1128,218.7 1136,216.7 1144,214.5 1152,212.2 1160,209.8 1168,207.3 1176,204.7 1184,202.0 1192,199.3 1200,196.5 1208,193.7 1216,190.8 1224,187.9 1232,185.1 1240,182.2 1248,179.4 1256,176.6 1264,173.8 1272,171.1 1280,168.5 1288,166.0 1296,163.5 1304,161.2 1312,159.0 1320,156.9 1328,154.9 1336,153.0 1344,151.3 1352,149.7 1360,148.3 1368,147.0 1376,145.9 1384,144.9 1392,144.1 1400,143.5 1408,143.0 1416,142.7 1424,142.5 1432,142.5 1440,142.6 1448,142.9 1456,143.3 1464,143.9 1472,144.6 1480,145.4 1488,146.3 1496,147.4 1504,148.5 1512,149.8 1520,151.1 1528,152.5 1536,154.0 1544,155.6 1552,157.2 1560,158.8 1568,160.5 1576,162.3 1584,164.0 1592,165.7 1600,167.5" fill="none" stroke="#8a8f98" stroke-width="0.8" opacity="0.24"/><polyline points="0,179.0 8,180.7 16,182.5 24,184.3 32,186.1 40,188.0 48,190.0 56,191.9 64,193.9 72,195.9 80,197.8 88,199.8 96,201.7 104,203.6 112,205.5 120,207.3 128,209.0 136,210.7 144,212.3 152,213.7 160,215.1 168,216.4 176,217.6 184,218.6 192,219.5 200,220.3 208,220.9 216,221.4 224,221.7 232,221.8 240,221.8 248,221.6 256,221.3 264,220.7 272,220.0 280,219.2 288,218.1 296,216.9 304,215.6 312,214.0 320,212.3 328,210.5 336,208.5 344,206.3 352,204.1 360,201.7 368,199.2 376,196.6 384,193.9 392,191.1 400,188.2 408,185.3 416,182.3 424,179.3 432,176.2 440,173.2 448,170.1 456,167.1 464,164.1 472,161.1 480,158.2 488,155.4 496,152.7 504,150.0 512,147.5 520,145.0 528,142.7 536,140.6 544,138.6 552,136.8 560,135.1 568,133.6 576,132.4 584,131.3 592,130.4 600,129.7 608,129.2 616,129.0 624,128.9 632,129.1 640,129.5 648,130.1 656,131.0 664,132.0 672,133.3 680,134.8 688,136.4 696,138.3 704,140.3 712,142.6 720,144.9 728,147.5 736,150.2 744,153.0 752,156.0 760,159.1 768,162.2 776,165.5 784,168.8 792,172.2 800,175.6 808,179.1 816,182.5 824,186.0 832,189.4 840,192.9 848,196.2 856,199.5 864,202.8 872,205.9 880,208.9 888,211.9 896,214.7 904,217.3 912,219.8 920,222.2 928,224.3 936,226.3 944,228.2 952,229.8 960,231.2 968,232.4 976,233.4 984,234.2 992,234.7 1000,235.1 1008,235.2 1016,235.2 1024,234.9 1032,234.4 1040,233.6 1048,232.7 1056,231.6 1064,230.3 1072,228.8 1080,227.1 1088,225.3 1096,223.3 1104,221.2 1112,218.9 1120,216.5 1128,214.0 1136,211.3 1144,208.6 1152,205.8 1160,203.0 1168,200.1 1176,197.1 1184,194.2 1192,191.2 1200,188.2 1208,185.2 1216,182.3 1224,179.4 1232,176.5 1240,173.8 1248,171.1 1256,168.4 1264,165.9 1272,163.5 1280,161.2 1288,159.0 1296,157.0 1304,155.1 1312,153.3 1320,151.7 1328,150.2 1336,148.9 1344,147.8 1352,146.8 1360,146.0 1368,145.4 1376,144.9 1384,144.6 1392,144.5 1400,144.5 1408,144.7 1416,145.0 1424,145.5 1432,146.2 1440,146.9 1448,147.8 1456,148.9 1464,150.0 1472,151.3 1480,152.6 1488,154.1 1496,155.6 1504,157.2 1512,158.9 1520,160.6 1528,162.4 1536,164.2 1544,166.1 1552,167.9 1560,169.8 1568,171.7 1576,173.5 1584,175.4 1592,177.2 1600,179.0" fill="none" stroke="#8a8f98" stroke-width="0.8" opacity="0.25"/><polyline points="0,191.0 8,192.8 16,194.6 24,196.5 32,198.4 40,200.3 48,202.1 56,204.0 64,205.8 72,207.6 80,209.4 88,211.1 96,212.8 104,214.3 112,215.8 120,217.3 128,218.6 136,219.8 144,220.9 152,221.8 160,222.7 168,223.4 176,223.9 184,224.3 192,224.6 200,224.7 208,224.6 216,224.4 224,224.0 232,223.5 240,222.7 248,221.9 256,220.8 264,219.6 272,218.2 280,216.6 288,214.9 296,213.1 304,211.1 312,209.0 320,206.7 328,204.3 336,201.9 344,199.3 352,196.6 360,193.8 368,191.0 376,188.1 384,185.1 392,182.2 400,179.2 408,176.2 416,173.2 424,170.2 432,167.2 440,164.3 448,161.5 456,158.7 464,156.0 472,153.4 480,150.9 488,148.6 496,146.3 504,144.2 512,142.3 520,140.6 528,139.0 536,137.6 544,136.3 552,135.3 560,134.5 568,133.9 576,133.5 584,133.3 592,133.3 600,133.6 608,134.1 616,134.7 624,135.6 632,136.8 640,138.1 648,139.6 656,141.4 664,143.3 672,145.4 680,147.7 688,150.1 696,152.7 704,155.5 712,158.4 720,161.4 728,164.5 736,167.8 744,171.1 752,174.4 760,177.9 768,181.3 776,184.8 784,188.3 792,191.8 800,195.3 808,198.8 816,202.1 824,205.5 832,208.7 840,211.9 848,214.9 856,217.9 864,220.7 872,223.3 880,225.8 888,228.1 896,230.3 904,232.3 912,234.0 920,235.6 928,237.0 936,238.2 944,239.1 952,239.8 960,240.4 968,240.7 976,240.7 984,240.6 992,240.2 1000,239.6 1008,238.8 1016,237.8 1024,236.6 1032,235.2 1040,233.6 1048,231.8 1056,229.9 1064,227.8 1072,225.6 1080,223.2 1088,220.6 1096,218.0 1104,215.3 1112,212.4 1120,209.5 1128,206.6 1136,203.5 1144,200.5 1152,197.4 1160,194.3 1168,191.2 1176,188.1 1184,185.1 1192,182.1 1200,179.2 1208,176.3 1216,173.5 1224,170.8 1232,168.2 1240,165.7 1248,163.4 1256,161.1 1264,159.0 1272,157.1 1280,155.3 1288,153.6 1296,152.2 1304,150.9 1312,149.7 1320,148.8 1328,148.0 1336,147.3 1344,146.9 1352,146.6 1360,146.5 1368,146.6 1376,146.8 1384,147.2 1392,147.8 1400,148.5 1408,149.3 1416,150.3 1424,151.5 1432,152.7 1440,154.1 1448,155.5 1456,157.1 1464,158.7 1472,160.5 1480,162.3 1488,164.1 1496,166.0 1504,168.0 1512,169.9 1520,171.9 1528,174.0 1536,176.0 1544,178.0 1552,179.9 1560,181.9 1568,183.8 1576,185.7 1584,187.5 1592,189.3 1600,191.0" fill="none" stroke="#8a8f98" stroke-width="0.8" opacity="0.26"/><polyline points="0,202.7 8,204.5 16,206.3 24,208.1 32,209.8 40,211.6 48,213.2 56,214.9 64,216.4 72,217.9 80,219.3 88,220.7 96,221.9 104,223.0 112,224.0 120,224.9 128,225.7 136,226.4 144,226.9 152,227.2 160,227.4 168,227.5 176,227.4 184,227.1 192,226.7 200,226.1 208,225.4 216,224.5 224,223.4 232,222.2 240,220.8 248,219.2 256,217.5 264,215.7 272,213.7 280,211.6 288,209.4 296,207.0 304,204.5 312,202.0 320,199.3 328,196.6 336,193.8 344,190.9 352,188.0 360,185.1 368,182.2 376,179.2 384,176.3 392,173.3 400,170.4 408,167.6 416,164.8 424,162.1 432,159.5 440,156.9 448,154.5 456,152.2 464,150.0 472,148.0 480,146.2 488,144.5 496,143.0 504,141.6 512,140.5 520,139.5 528,138.8 536,138.2 544,137.9 552,137.8 560,137.9 568,138.2 576,138.7 584,139.5 592,140.5 600,141.6 608,143.0 616,144.6 624,146.4 632,148.4 640,150.6 648,152.9 656,155.4 664,158.1 672,160.9 680,163.9 688,166.9 696,170.1 704,173.4 712,176.7 720,180.1 728,183.6 736,187.1 744,190.6 752,194.2 760,197.7 768,201.2 776,204.7 784,208.1 792,211.4 800,214.7 808,217.8 816,220.9 824,223.8 832,226.6 840,229.2 848,231.7 856,234.0 864,236.1 872,238.1 880,239.8 888,241.4 896,242.7 904,243.8 912,244.7 920,245.4 928,245.9 936,246.1 944,246.1 952,245.9 960,245.4 968,244.7 976,243.9 984,242.8 992,241.5 1000,240.0 1008,238.3 1016,236.4 1024,234.4 1032,232.1 1040,229.8 1048,227.3 1056,224.6 1064,221.9 1072,219.0 1080,216.1 1088,213.1 1096,210.0 1104,206.9 1112,203.7 1120,200.5 1128,197.3 1136,194.1 1144,191.0 1152,187.8 1160,184.7 1168,181.7 1176,178.7 1184,175.9 1192,173.1 1200,170.4 1208,167.9 1216,165.5 1224,163.2 1232,161.0 1240,159.1 1248,157.2 1256,155.6 1264,154.1 1272,152.8 1280,151.6 1288,150.7 1296,149.9 1304,149.3 1312,148.9 1320,148.7 1328,148.6 1336,148.7 1344,149.0 1352,149.5 1360,150.1 1368,150.9 1376,151.8 1384,152.9 1392,154.1 1400,155.5 1408,156.9 1416,158.5 1424,160.2 1432,162.0 1440,163.8 1448,165.7 1456,167.7 1464,169.8 1472,171.8 1480,174.0 1488,176.1 1496,178.2 1504,180.4 1512,182.5 1520,184.6 1528,186.7 1536,188.7 1544,190.7 1552,192.6 1560,194.5 1568,196.3 1576,198.1 1584,199.7 1592,201.3 1600,202.7" fill="none" stroke="#8a8f98" stroke-width="0.8" opacity="0.26"/><polyline points="0,213.7 8,215.4 16,216.9 24,218.5 32,220.0 40,221.4 48,222.7 56,224.0 64,225.1 72,226.2 80,227.1 88,228.0 96,228.7 104,229.3 112,229.7 120,230.0 128,230.2 136,230.2 144,230.1 152,229.8 160,229.3 168,228.7 176,228.0 184,227.0 192,225.9 200,224.7 208,223.3 216,221.8 224,220.1 232,218.3 240,216.3 248,214.2 256,212.0 264,209.7 272,207.2 280,204.7 288,202.1 296,199.4 304,196.7 312,193.8 320,191.0 328,188.1 336,185.2 344,182.3 352,179.4 360,176.6 368,173.7 376,171.0 384,168.2 392,165.6 400,163.0 408,160.6 416,158.2 424,156.0 432,153.9 440,152.0 448,150.2 456,148.5 464,147.1 472,145.8 480,144.8 488,143.9 496,143.2 504,142.7 512,142.5 520,142.4 528,142.6 536,143.0 544,143.6 552,144.4 560,145.4 568,146.7 576,148.1 584,149.8 592,151.6 600,153.7 608,155.9 616,158.3 624,160.8 632,163.6 640,166.4 648,169.4 656,172.5 664,175.7 672,179.0 680,182.4 688,185.9 696,189.4 704,192.9 712,196.5 720,200.0 728,203.5 736,207.1 744,210.5 752,214.0 760,217.3 768,220.6 776,223.7 784,226.8 792,229.7 800,232.4 808,235.1 816,237.5 824,239.8 832,241.9 840,243.8 848,245.5 856,247.0 864,248.3 872,249.4 880,250.2 888,250.8 896,251.2 904,251.4 912,251.3 920,251.0 928,250.5 936,249.7 944,248.7 952,247.6 960,246.2 968,244.6 976,242.8 984,240.8 992,238.7 1000,236.3 1008,233.9 1016,231.3 1024,228.5 1032,225.7 1040,222.7 1048,219.6 1056,216.5 1064,213.3 1072,210.1 1080,206.8 1088,203.5 1096,200.2 1104,196.9 1112,193.7 1120,190.4 1128,187.3 1136,184.2 1144,181.1 1152,178.2 1160,175.3 1168,172.6 1176,170.0 1184,167.5 1192,165.2 1200,163.0 1208,161.0 1216,159.2 1224,157.5 1232,156.0 1240,154.7 1248,153.5 1256,152.6 1264,151.8 1272,151.3 1280,150.9 1288,150.7 1296,150.7 1304,150.9 1312,151.2 1320,151.8 1328,152.5 1336,153.4 1344,154.4 1352,155.6 1360,156.9 1368,158.3 1376,159.9 1384,161.6 1392,163.4 1400,165.3 1408,167.3 1416,169.3 1424,171.4 1432,173.6 1440,175.8 1448,178.1 1456,180.3 1464,182.6 1472,184.9 1480,187.1 1488,189.4 1496,191.6 1504,193.7 1512,195.9 1520,197.9 1528,199.9 1536,201.8 1544,203.6 1552,205.4 1560,207.0 1568,208.6 1576,210.0 1584,211.4 1592,212.6 1600,213.7" fill="none" stroke="#8a8f98" stroke-width="0.8" opacity="0.27"/><polyline points="0,223.4 8,224.7 16,226.0 24,227.1 32,228.2 40,229.2 48,230.1 56,230.9 64,231.5 72,232.1 80,232.5 88,232.7 96,232.8 104,232.8 112,232.7 120,232.3 128,231.9 136,231.2 144,230.5 152,229.5 160,228.5 168,227.2 176,225.8 184,224.3 192,222.6 200,220.8 208,218.9 216,216.8 224,214.6 232,212.3 240,210.0 248,207.5 256,204.9 264,202.3 272,199.6 280,196.8 288,194.0 296,191.2 304,188.4 312,185.5 320,182.7 328,179.9 336,177.2 344,174.5 352,171.8 360,169.2 368,166.7 376,164.4 384,162.1 392,159.9 400,157.9 408,156.0 416,154.3 424,152.8 432,151.4 440,150.2 448,149.2 456,148.4 464,147.8 472,147.4 480,147.2 488,147.2 496,147.4 504,147.9 512,148.5 520,149.4 528,150.5 536,151.8 544,153.3 552,155.0 560,156.9 568,159.0 576,161.3 584,163.8 592,166.4 600,169.1 608,172.0 616,175.0 624,178.2 632,181.4 640,184.8 648,188.2 656,191.6 664,195.2 672,198.7 680,202.3 688,205.9 696,209.4 704,212.9 712,216.4 720,219.8 728,223.2 736,226.4 744,229.6 752,232.6 760,235.5 768,238.2 776,240.8 784,243.3 792,245.5 800,247.6 808,249.4 816,251.1 824,252.5 832,253.8 840,254.8 848,255.6 856,256.1 864,256.4 872,256.5 880,256.4 888,256.0 896,255.4 904,254.5 912,253.5 920,252.2 928,250.7 936,249.0 944,247.1 952,245.0 960,242.8 968,240.4 976,237.8 984,235.1 992,232.2 1000,229.3 1008,226.2 1016,223.1 1024,219.8 1032,216.5 1040,213.2 1048,209.8 1056,206.4 1064,203.0 1072,199.7 1080,196.3 1088,193.0 1096,189.7 1104,186.5 1112,183.4 1120,180.4 1128,177.5 1136,174.7 1144,172.1 1152,169.6 1160,167.2 1168,165.0 1176,163.0 1184,161.1 1192,159.4 1200,157.9 1208,156.6 1216,155.5 1224,154.6 1232,153.8 1240,153.3 1248,153.0 1256,152.8 1264,152.9 1272,153.1 1280,153.5 1288,154.2 1296,154.9 1304,155.9 1312,157.0 1320,158.3 1328,159.7 1336,161.3 1344,163.0 1352,164.8 1360,166.7 1368,168.7 1376,170.8 1384,173.0 1392,175.3 1400,177.6 1408,179.9 1416,182.3 1424,184.7 1432,187.1 1440,189.5 1448,191.9 1456,194.3 1464,196.6 1472,198.9 1480,201.1 1488,203.3 1496,205.4 1504,207.4 1512,209.4 1520,211.2 1528,212.9 1536,214.6 1544,216.1 1552,217.5 1560,218.8 1568,220.0 1576,221.0 1584,221.9 1592,222.7 1600,223.4" fill="none" stroke="#8a8f98" stroke-width="0.8" opacity="0.28"/><polyline points="0,231.3 8,232.2 16,233.0 24,233.7 32,234.3 40,234.8 48,235.1 56,235.4 64,235.4 72,235.4 80,235.2 88,234.8 96,234.4 104,233.7 112,232.9 120,232.0 128,230.9 136,229.7 144,228.3 152,226.8 160,225.2 168,223.4 176,221.5 184,219.4 192,217.3 200,215.1 208,212.7 216,210.3 224,207.8 232,205.2 240,202.5 248,199.9 256,197.1 264,194.4 272,191.6 280,188.9 288,186.1 296,183.4 304,180.7 312,178.1 320,175.5 328,173.0 336,170.6 344,168.3 352,166.1 360,164.0 368,162.1 376,160.3 384,158.6 392,157.2 400,155.9 408,154.7 416,153.8 424,153.1 432,152.5 440,152.2 448,152.1 456,152.1 464,152.4 472,152.9 480,153.7 488,154.6 496,155.8 504,157.1 512,158.7 520,160.4 528,162.4 536,164.5 544,166.8 552,169.3 560,172.0 568,174.8 576,177.7 584,180.7 592,183.9 600,187.2 608,190.5 616,194.0 624,197.5 632,201.0 640,204.5 648,208.1 656,211.7 664,215.2 672,218.8 680,222.2 688,225.6 696,229.0 704,232.2 712,235.3 720,238.3 728,241.2 736,243.9 744,246.5 752,248.9 760,251.1 768,253.1 776,254.9 784,256.5 792,257.9 800,259.1 808,260.0 816,260.8 824,261.2 832,261.5 840,261.5 848,261.3 856,260.8 864,260.1 872,259.2 880,258.0 888,256.7 896,255.1 904,253.3 912,251.3 920,249.1 928,246.8 936,244.3 944,241.6 952,238.8 960,235.8 968,232.8 976,229.6 984,226.3 992,223.0 1000,219.6 1008,216.2 1016,212.7 1024,209.2 1032,205.8 1040,202.3 1048,198.9 1056,195.5 1064,192.1 1072,188.9 1080,185.7 1088,182.6 1096,179.7 1104,176.9 1112,174.2 1120,171.6 1128,169.2 1136,167.0 1144,164.9 1152,163.0 1160,161.4 1168,159.9 1176,158.6 1184,157.5 1192,156.6 1200,155.9 1208,155.4 1216,155.1 1224,155.0 1232,155.1 1240,155.4 1248,155.9 1256,156.6 1264,157.5 1272,158.5 1280,159.8 1288,161.1 1296,162.7 1304,164.3 1312,166.2 1320,168.1 1328,170.1 1336,172.3 1344,174.5 1352,176.8 1360,179.2 1368,181.7 1376,184.1 1384,186.7 1392,189.2 1400,191.7 1408,194.3 1416,196.8 1424,199.3 1432,201.8 1440,204.2 1448,206.5 1456,208.8 1464,211.0 1472,213.1 1480,215.2 1488,217.1 1496,218.9 1504,220.7 1512,222.3 1520,223.7 1528,225.1 1536,226.3 1544,227.4 1552,228.3 1560,229.2 1568,229.8 1576,230.4 1584,230.8 1592,231.1 1600,231.3" fill="none" stroke="#8a8f98" stroke-width="0.8" opacity="0.28"/><polyline points="0,237.0 8,237.4 16,237.7 24,237.9 32,238.0 40,237.9 48,237.7 56,237.3 64,236.8 72,236.2 80,235.4 88,234.5 96,233.4 104,232.2 112,230.8 120,229.3 128,227.7 136,226.0 144,224.1 152,222.1 160,220.0 168,217.8 176,215.5 184,213.1 192,210.7 200,208.2 208,205.6 216,203.0 224,200.3 232,197.6 240,195.0 248,192.3 256,189.6 264,187.0 272,184.4 280,181.8 288,179.3 296,176.9 304,174.6 312,172.3 320,170.2 328,168.2 336,166.4 344,164.7 352,163.1 360,161.7 368,160.5 376,159.4 384,158.6 392,157.9 400,157.4 408,157.1 416,157.1 424,157.2 432,157.6 440,158.2 448,158.9 456,159.9 464,161.1 472,162.5 480,164.1 488,165.9 496,167.9 504,170.1 512,172.5 520,175.0 528,177.6 536,180.5 544,183.4 552,186.5 560,189.7 568,193.0 576,196.3 584,199.8 592,203.3 600,206.8 608,210.4 616,213.9 624,217.5 632,221.1 640,224.6 648,228.0 656,231.4 664,234.7 672,237.9 680,241.0 688,244.0 696,246.8 704,249.5 712,252.0 720,254.4 728,256.6 736,258.5 744,260.3 752,261.8 760,263.2 768,264.3 776,265.2 784,265.8 792,266.2 800,266.4 808,266.3 816,266.0 824,265.5 832,264.7 840,263.7 848,262.4 856,261.0 864,259.3 872,257.4 880,255.4 888,253.1 896,250.6 904,248.0 912,245.3 920,242.3 928,239.3 936,236.1 944,232.9 952,229.5 960,226.1 968,222.6 976,219.1 984,215.5 992,212.0 1000,208.4 1008,204.8 1016,201.3 1024,197.9 1032,194.5 1040,191.2 1048,187.9 1056,184.8 1064,181.8 1072,178.9 1080,176.2 1088,173.6 1096,171.2 1104,169.0 1112,166.9 1120,165.0 1128,163.3 1136,161.8 1144,160.6 1152,159.5 1160,158.6 1168,157.9 1176,157.5 1184,157.3 1192,157.2 1200,157.4 1208,157.8 1216,158.4 1224,159.2 1232,160.1 1240,161.3 1248,162.6 1256,164.1 1264,165.7 1272,167.5 1280,169.5 1288,171.5 1296,173.7 1304,176.0 1312,178.3 1320,180.8 1328,183.3 1336,185.9 1344,188.5 1352,191.2 1360,193.8 1368,196.5 1376,199.2 1384,201.8 1392,204.4 1400,207.0 1408,209.6 1416,212.0 1424,214.4 1432,216.8 1440,219.0 1448,221.1 1456,223.1 1464,225.0 1472,226.8 1480,228.5 1488,230.0 1496,231.4 1504,232.7 1512,233.8 1520,234.8 1528,235.7 1536,236.4 1544,236.9 1552,237.3 1560,237.6 1568,237.8 1576,237.8 1584,237.6 1592,237.4 1600,237.0" fill="none" stroke="#8a8f98" stroke-width="0.8" opacity="0.29"/><polyline points="0,240.5 8,240.4 16,240.1 24,239.7 32,239.2 40,238.6 48,237.8 56,236.9 64,235.8 72,234.6 80,233.3 88,231.8 96,230.3 104,228.5 112,226.7 120,224.8 128,222.7 136,220.6 144,218.4 152,216.1 160,213.7 168,211.2 176,208.7 184,206.2 192,203.6 200,201.0 208,198.4 216,195.8 224,193.2 232,190.6 240,188.1 248,185.7 256,183.3 264,180.9 272,178.7 280,176.5 288,174.5 296,172.6 304,170.8 312,169.2 320,167.7 328,166.4 336,165.2 344,164.3 352,163.5 360,162.9 368,162.5 376,162.3 384,162.3 392,162.5 400,162.9 408,163.5 416,164.3 424,165.4 432,166.6 440,168.1 448,169.7 456,171.6 464,173.6 472,175.8 480,178.2 488,180.7 496,183.4 504,186.2 512,189.2 520,192.3 528,195.5 536,198.8 544,202.2 552,205.6 560,209.1 568,212.6 576,216.2 584,219.7 592,223.3 600,226.8 608,230.3 616,233.7 624,237.1 632,240.4 640,243.6 648,246.6 656,249.6 664,252.4 672,255.0 680,257.5 688,259.8 696,261.9 704,263.8 712,265.5 720,267.0 728,268.3 736,269.3 744,270.1 752,270.7 760,271.0 768,271.1 776,271.0 784,270.6 792,270.0 800,269.1 808,268.0 816,266.7 824,265.1 832,263.4 840,261.4 848,259.2 856,256.9 864,254.3 872,251.6 880,248.8 888,245.8 896,242.6 904,239.4 912,236.0 920,232.6 928,229.0 936,225.5 944,221.9 952,218.2 960,214.6 968,211.0 976,207.3 984,203.8 992,200.2 1000,196.8 1008,193.4 1016,190.1 1024,187.0 1032,183.9 1040,181.0 1048,178.3 1056,175.7 1064,173.2 1072,171.0 1080,168.9 1088,167.0 1096,165.3 1104,163.9 1112,162.6 1120,161.6 1128,160.7 1136,160.1 1144,159.7 1152,159.5 1160,159.6 1168,159.8 1176,160.3 1184,161.0 1192,161.8 1200,162.9 1208,164.1 1216,165.6 1224,167.2 1232,168.9 1240,170.8 1248,172.9 1256,175.1 1264,177.4 1272,179.8 1280,182.3 1288,184.9 1296,187.5 1304,190.2 1312,193.0 1320,195.8 1328,198.6 1336,201.4 1344,204.2 1352,207.0 1360,209.7 1368,212.4 1376,215.1 1384,217.7 1392,220.2 1400,222.6 1408,224.9 1416,227.1 1424,229.3 1432,231.2 1440,233.1 1448,234.8 1456,236.4 1464,237.9 1472,239.2 1480,240.4 1488,241.4 1496,242.2 1504,242.9 1512,243.5 1520,243.9 1528,244.2 1536,244.3 1544,244.3 1552,244.1 1560,243.8 1568,243.4 1576,242.8 1584,242.1 1592,241.3 1600,240.5" fill="none" stroke="#8a8f98" stroke-width="0.8" opacity="0.30"/><polyline points="0,241.6 8,241.0 16,240.2 24,239.3 32,238.3 40,237.1 48,235.8 56,234.4 64,232.8 72,231.2 80,229.4 88,227.5 96,225.5 104,223.5 112,221.3 120,219.0 128,216.7 136,214.4 144,211.9 152,209.5 160,207.0 168,204.5 176,201.9 184,199.4 192,196.9 200,194.5 208,192.0 216,189.6 224,187.3 232,185.1 240,182.9 248,180.9 256,178.9 264,177.1 272,175.4 280,173.9 288,172.5 296,171.2 304,170.1 312,169.2 320,168.5 328,168.0 336,167.7 344,167.5 352,167.6 360,167.8 368,168.3 376,169.0 384,169.9 392,170.9 400,172.2 408,173.7 416,175.4 424,177.3 432,179.3 440,181.6 448,183.9 456,186.5 464,189.2 472,192.1 480,195.0 488,198.1 496,201.3 504,204.6 512,208.0 520,211.4 528,214.9 536,218.4 544,222.0 552,225.5 560,229.0 568,232.5 576,236.0 584,239.4 592,242.7 600,246.0 608,249.1 616,252.1 624,255.0 632,257.8 640,260.4 648,262.8 656,265.0 664,267.1 672,268.9 680,270.6 688,272.0 696,273.2 704,274.2 712,274.9 720,275.4 728,275.7 736,275.7 744,275.5 752,275.0 760,274.3 768,273.4 776,272.2 784,270.8 792,269.1 800,267.3 808,265.2 816,263.0 824,260.5 832,257.9 840,255.1 848,252.1 856,249.0 864,245.8 872,242.5 880,239.0 888,235.5 896,231.9 904,228.3 912,224.6 920,220.9 928,217.1 936,213.4 944,209.8 952,206.1 960,202.6 968,199.0 976,195.6 984,192.3 992,189.1 1000,186.0 1008,183.1 1016,180.3 1024,177.7 1032,175.3 1040,173.0 1048,170.9 1056,169.1 1064,167.4 1072,166.0 1080,164.7 1088,163.7 1096,162.9 1104,162.4 1112,162.0 1120,161.9 1128,162.0 1136,162.3 1144,162.9 1152,163.6 1160,164.6 1168,165.8 1176,167.1 1184,168.6 1192,170.4 1200,172.2 1208,174.3 1216,176.4 1224,178.8 1232,181.2 1240,183.7 1248,186.4 1256,189.1 1264,191.9 1272,194.7 1280,197.6 1288,200.5 1296,203.5 1304,206.4 1312,209.3 1320,212.2 1328,215.1 1336,217.9 1344,220.7 1352,223.4 1360,226.0 1368,228.5 1376,231.0 1384,233.3 1392,235.5 1400,237.5 1408,239.5 1416,241.3 1424,242.9 1432,244.4 1440,245.8 1448,247.0 1456,248.0 1464,248.9 1472,249.6 1480,250.1 1488,250.5 1496,250.8 1504,250.9 1512,250.8 1520,250.6 1528,250.2 1536,249.7 1544,249.1 1552,248.4 1560,247.5 1568,246.5 1576,245.4 1584,244.2 1592,243.0 1600,241.6" fill="none" stroke="#8a8f98" stroke-width="0.8" opacity="0.30"/><polyline points="0,240.7 8,239.6 16,238.3 24,237.0 32,235.5 40,233.8 48,232.1 56,230.3 64,228.4 72,226.4 80,224.3 88,222.1 96,219.9 104,217.6 112,215.2 120,212.9 128,210.5 136,208.0 144,205.6 152,203.2 160,200.8 168,198.4 176,196.1 184,193.8 192,191.5 200,189.4 208,187.3 216,185.4 224,183.5 232,181.8 240,180.2 248,178.7 256,177.4 264,176.2 272,175.2 280,174.4 288,173.7 296,173.3 304,173.0 312,172.9 320,173.0 328,173.3 336,173.9 344,174.6 352,175.5 360,176.6 368,177.9 376,179.5 384,181.2 392,183.1 400,185.1 408,187.4 416,189.8 424,192.4 432,195.1 440,197.9 448,200.9 456,204.0 464,207.2 472,210.5 480,213.8 488,217.2 496,220.7 504,224.2 512,227.7 520,231.2 528,234.7 536,238.2 544,241.6 552,245.0 560,248.3 568,251.5 576,254.6 584,257.5 592,260.4 600,263.1 608,265.6 616,268.0 624,270.1 632,272.1 640,273.9 648,275.5 656,276.9 664,278.0 672,278.9 680,279.6 688,280.0 696,280.2 704,280.1 712,279.8 720,279.3 728,278.5 736,277.4 744,276.2 752,274.7 760,273.0 768,271.0 776,268.9 784,266.5 792,264.0 800,261.3 808,258.4 816,255.4 824,252.2 832,248.9 840,245.5 848,241.9 856,238.3 864,234.7 872,231.0 880,227.2 888,223.4 896,219.6 904,215.9 912,212.1 920,208.5 928,204.8 936,201.3 944,197.8 952,194.5 960,191.2 968,188.1 976,185.2 984,182.4 992,179.8 1000,177.3 1008,175.1 1016,173.0 1024,171.2 1032,169.6 1040,168.1 1048,166.9 1056,166.0 1064,165.2 1072,164.7 1080,164.4 1088,164.4 1096,164.6 1104,165.0 1112,165.6 1120,166.5 1128,167.5 1136,168.8 1144,170.2 1152,171.9 1160,173.7 1168,175.7 1176,177.8 1184,180.1 1192,182.6 1200,185.1 1208,187.8 1216,190.6 1224,193.4 1232,196.4 1240,199.3 1248,202.4 1256,205.4 1264,208.5 1272,211.6 1280,214.6 1288,217.6 1296,220.6 1304,223.6 1312,226.5 1320,229.3 1328,232.0 1336,234.6 1344,237.1 1352,239.5 1360,241.8 1368,243.9 1376,245.9 1384,247.8 1392,249.5 1400,251.0 1408,252.4 1416,253.6 1424,254.6 1432,255.5 1440,256.2 1448,256.8 1456,257.2 1464,257.4 1472,257.4 1480,257.3 1488,257.1 1496,256.6 1504,256.1 1512,255.4 1520,254.6 1528,253.6 1536,252.5 1544,251.3 1552,250.1 1560,248.7 1568,247.2 1576,245.7 1584,244.1 1592,242.4 1600,240.7" fill="none" stroke="#8a8f98" stroke-width="0.8" opacity="0.31"/><polyline points="0,238.1 8,236.6 16,234.9 24,233.1 32,231.3 40,229.4 48,227.3 56,225.2 64,223.1 72,220.9 80,218.6 88,216.4 96,214.0 104,211.7 112,209.4 120,207.0 128,204.7 136,202.5 144,200.2 152,198.0 160,195.9 168,193.8 176,191.9 184,190.0 192,188.2 200,186.6 208,185.1 216,183.7 224,182.4 232,181.3 240,180.4 248,179.7 256,179.1 264,178.7 272,178.5 280,178.4 288,178.6 296,179.0 304,179.5 312,180.3 320,181.3 328,182.4 336,183.8 344,185.3 352,187.0 360,188.9 368,191.0 376,193.3 384,195.7 392,198.3 400,201.0 408,203.8 416,206.8 424,209.9 432,213.1 440,216.3 448,219.7 456,223.0 464,226.5 472,229.9 480,233.4 488,236.9 496,240.3 504,243.8 512,247.1 520,250.5 528,253.7 536,256.8 544,259.9 552,262.8 560,265.6 568,268.2 576,270.7 584,273.0 592,275.1 600,277.0 608,278.7 616,280.3 624,281.5 632,282.6 640,283.4 648,284.0 656,284.4 664,284.5 672,284.3 680,283.9 688,283.3 696,282.4 704,281.3 712,280.0 720,278.4 728,276.6 736,274.6 744,272.4 752,269.9 760,267.3 768,264.5 776,261.6 784,258.5 792,255.2 800,251.8 808,248.3 816,244.8 824,241.1 832,237.4 840,233.6 848,229.8 856,225.9 864,222.1 872,218.3 880,214.5 888,210.8 896,207.1 904,203.5 912,200.0 920,196.7 928,193.4 936,190.3 944,187.3 952,184.5 960,181.9 968,179.5 976,177.2 984,175.2 992,173.4 1000,171.8 1008,170.4 1016,169.2 1024,168.3 1032,167.6 1040,167.2 1048,167.0 1056,167.0 1064,167.3 1072,167.7 1080,168.5 1088,169.4 1096,170.6 1104,171.9 1112,173.5 1120,175.2 1128,177.2 1136,179.3 1144,181.6 1152,184.0 1160,186.6 1168,189.2 1176,192.0 1184,194.9 1192,197.9 1200,201.0 1208,204.1 1216,207.3 1224,210.4 1232,213.6 1240,216.8 1248,220.0 1256,223.2 1264,226.3 1272,229.3 1280,232.3 1288,235.2 1296,238.0 1304,240.7 1312,243.3 1320,245.8 1328,248.2 1336,250.4 1344,252.4 1352,254.3 1360,256.1 1368,257.6 1376,259.0 1384,260.3 1392,261.3 1400,262.2 1408,262.9 1416,263.5 1424,263.8 1432,264.0 1440,264.0 1448,263.8 1456,263.5 1464,263.0 1472,262.4 1480,261.6 1488,260.7 1496,259.7 1504,258.5 1512,257.2 1520,255.8 1528,254.3 1536,252.8 1544,251.1 1552,249.4 1560,247.6 1568,245.7 1576,243.9 1584,242.0 1592,240.0 1600,238.1" fill="none" stroke="#8a8f98" stroke-width="0.8" opacity="0.32"/><polyline points="0,234.3 8,232.4 16,230.5 24,228.5 32,226.4 40,224.3 48,222.1 56,219.9 64,217.7 72,215.5 80,213.3 88,211.0 96,208.8 104,206.6 112,204.5 120,202.4 128,200.4 136,198.4 144,196.5 152,194.8 160,193.1 168,191.5 176,190.1 184,188.8 192,187.6 200,186.6 208,185.7 216,185.1 224,184.5 232,184.2 240,184.0 248,184.1 256,184.3 264,184.7 272,185.3 280,186.1 288,187.1 296,188.3 304,189.7 312,191.2 320,193.0 328,194.9 336,197.0 344,199.2 352,201.6 360,204.2 368,206.9 376,209.7 384,212.7 392,215.8 400,218.9 408,222.1 416,225.4 424,228.8 432,232.2 440,235.6 448,239.1 456,242.5 464,245.9 472,249.3 480,252.6 488,255.8 496,259.0 504,262.1 512,265.1 520,267.9 528,270.7 536,273.2 544,275.6 552,277.9 560,279.9 568,281.8 576,283.4 584,284.8 592,286.1 600,287.0 608,287.8 616,288.3 624,288.6 632,288.6 640,288.4 648,287.9 656,287.2 664,286.3 672,285.1 680,283.6 688,282.0 696,280.1 704,278.0 712,275.7 720,273.2 728,270.5 736,267.7 744,264.6 752,261.4 760,258.1 768,254.7 776,251.1 784,247.5 792,243.7 800,240.0 808,236.1 816,232.3 824,228.4 832,224.5 840,220.6 848,216.8 856,213.1 864,209.4 872,205.8 880,202.2 888,198.8 896,195.6 904,192.5 912,189.5 920,186.7 928,184.1 936,181.7 944,179.5 952,177.5 960,175.7 968,174.1 976,172.8 984,171.7 992,170.8 1000,170.2 1008,169.8 1016,169.6 1024,169.7 1032,170.1 1040,170.7 1048,171.5 1056,172.5 1064,173.8 1072,175.2 1080,176.9 1088,178.8 1096,180.8 1104,183.0 1112,185.4 1120,188.0 1128,190.7 1136,193.5 1144,196.4 1152,199.5 1160,202.6 1168,205.8 1176,209.0 1184,212.3 1192,215.6 1200,218.9 1208,222.2 1216,225.5 1224,228.8 1232,232.0 1240,235.2 1248,238.3 1256,241.3 1264,244.2 1272,247.0 1280,249.7 1288,252.2 1296,254.6 1304,256.9 1312,259.0 1320,260.9 1328,262.7 1336,264.3 1344,265.7 1352,267.0 1360,268.1 1368,268.9 1376,269.6 1384,270.1 1392,270.5 1400,270.6 1408,270.6 1416,270.3 1424,270.0 1432,269.4 1440,268.7 1448,267.8 1456,266.8 1464,265.7 1472,264.4 1480,263.0 1488,261.5 1496,259.9 1504,258.2 1512,256.4 1520,254.6 1528,252.6 1536,250.7 1544,248.7 1552,246.6 1560,244.5 1568,242.5 1576,240.4 1584,238.3 1592,236.3 1600,234.3" fill="none" stroke="#8a8f98" stroke-width="0.8" opacity="0.32"/><polyline points="0,229.8 8,227.8 16,225.7 24,223.7 32,221.5 40,219.4 48,217.3 56,215.1 64,213.0 72,211.0 80,208.9 88,206.9 96,205.0 104,203.1 112,201.3 120,199.7 128,198.1 136,196.6 144,195.2 152,194.0 160,192.9 168,192.0 176,191.2 184,190.6 192,190.1 200,189.9 208,189.8 216,189.8 224,190.1 232,190.5 240,191.2 248,192.0 256,193.0 264,194.2 272,195.6 280,197.2 288,199.0 296,200.9 304,203.0 312,205.2 320,207.6 328,210.2 336,212.9 344,215.7 352,218.6 360,221.6 368,224.7 376,227.9 384,231.2 392,234.5 400,237.9 408,241.2 416,244.6 424,248.0 432,251.3 440,254.7 448,257.9 456,261.1 464,264.2 472,267.3 480,270.2 488,273.0 496,275.6 504,278.1 512,280.4 520,282.6 528,284.6 536,286.3 544,287.9 552,289.3 560,290.4 568,291.3 576,292.0 584,292.4 592,292.6 600,292.6 608,292.3 616,291.7 624,290.9 632,289.9 640,288.6 648,287.1 656,285.4 664,283.5 672,281.3 680,278.9 688,276.3 696,273.6 704,270.7 712,267.6 720,264.3 728,260.9 736,257.4 744,253.8 752,250.1 760,246.3 768,242.5 776,238.6 784,234.7 792,230.8 800,226.9 808,223.0 816,219.1 824,215.3 832,211.6 840,208.0 848,204.5 856,201.1 864,197.8 872,194.7 880,191.7 888,189.0 896,186.4 904,184.0 912,181.8 920,179.8 928,178.0 936,176.5 944,175.2 952,174.2 960,173.4 968,172.8 976,172.5 984,172.4 992,172.6 1000,173.0 1008,173.7 1016,174.6 1024,175.7 1032,177.1 1040,178.7 1048,180.5 1056,182.4 1064,184.6 1072,187.0 1080,189.5 1088,192.2 1096,195.0 1104,197.9 1112,201.0 1120,204.1 1128,207.4 1136,210.7 1144,214.0 1152,217.4 1160,220.9 1168,224.3 1176,227.7 1184,231.2 1192,234.5 1200,237.9 1208,241.1 1216,244.3 1224,247.4 1232,250.4 1240,253.3 1248,256.0 1256,258.7 1264,261.1 1272,263.4 1280,265.6 1288,267.6 1296,269.4 1304,271.0 1312,272.5 1320,273.7 1328,274.8 1336,275.6 1344,276.3 1352,276.8 1360,277.1 1368,277.2 1376,277.1 1384,276.8 1392,276.4 1400,275.7 1408,275.0 1416,274.0 1424,272.9 1432,271.7 1440,270.3 1448,268.8 1456,267.1 1464,265.4 1472,263.6 1480,261.6 1488,259.6 1496,257.6 1504,255.5 1512,253.3 1520,251.1 1528,248.9 1536,246.7 1544,244.5 1552,242.3 1560,240.1 1568,238.0 1576,235.8 1584,233.8 1592,231.8 1600,229.8" fill="none" stroke="#8a8f98" stroke-width="0.8" opacity="0.33"/><polyline points="0,225.5 8,223.4 16,221.4 24,219.4 32,217.4 40,215.4 48,213.5 56,211.6 64,209.7 72,208.0 80,206.3 88,204.7 96,203.2 104,201.8 112,200.5 120,199.4 128,198.4 136,197.5 144,196.8 152,196.2 160,195.8 168,195.6 176,195.6 184,195.7 192,196.0 200,196.5 208,197.1 216,198.0 224,199.0 232,200.3 240,201.7 248,203.2 256,205.0 264,206.9 272,209.0 280,211.2 288,213.6 296,216.1 304,218.8 312,221.6 320,224.5 328,227.5 336,230.5 344,233.7 352,236.9 360,240.2 368,243.5 376,246.8 384,250.1 392,253.4 400,256.7 408,260.0 416,263.2 424,266.3 432,269.3 440,272.3 448,275.1 456,277.8 464,280.4 472,282.8 480,285.1 488,287.1 496,289.0 504,290.7 512,292.2 520,293.5 528,294.6 536,295.4 544,296.0 552,296.3 560,296.5 568,296.3 576,296.0 584,295.3 592,294.5 600,293.4 608,292.0 616,290.5 624,288.7 632,286.7 640,284.4 648,282.0 656,279.3 664,276.5 672,273.5 680,270.4 688,267.1 696,263.6 704,260.1 712,256.4 720,252.7 728,248.9 736,245.0 744,241.1 752,237.1 760,233.2 768,229.2 776,225.3 784,221.4 792,217.6 800,213.9 808,210.3 816,206.8 824,203.4 832,200.1 840,197.0 848,194.1 856,191.3 864,188.7 872,186.4 880,184.2 888,182.3 896,180.5 904,179.1 912,177.8 920,176.8 928,176.1 936,175.6 944,175.4 952,175.4 960,175.7 968,176.2 976,176.9 984,177.9 992,179.2 1000,180.6 1008,182.3 1016,184.2 1024,186.3 1032,188.6 1040,191.0 1048,193.7 1056,196.5 1064,199.4 1072,202.5 1080,205.6 1088,208.9 1096,212.3 1104,215.7 1112,219.2 1120,222.7 1128,226.3 1136,229.8 1144,233.4 1152,236.9 1160,240.4 1168,243.8 1176,247.2 1184,250.5 1192,253.6 1200,256.7 1208,259.7 1216,262.5 1224,265.2 1232,267.7 1240,270.0 1248,272.2 1256,274.3 1264,276.1 1272,277.7 1280,279.2 1288,280.4 1296,281.5 1304,282.3 1312,283.0 1320,283.4 1328,283.7 1336,283.7 1344,283.6 1352,283.2 1360,282.7 1368,282.0 1376,281.1 1384,280.1 1392,278.9 1400,277.5 1408,276.0 1416,274.4 1424,272.6 1432,270.8 1440,268.8 1448,266.8 1456,264.6 1464,262.4 1472,260.2 1480,257.9 1488,255.5 1496,253.2 1504,250.8 1512,248.5 1520,246.1 1528,243.8 1536,241.5 1544,239.3 1552,237.1 1560,234.9 1568,232.9 1576,230.9 1584,229.0 1592,227.2 1600,225.5" fill="none" stroke="#8a8f98" stroke-width="0.8" opacity="0.34"/><polyline points="0,221.8 8,219.9 16,218.1 24,216.3 32,214.6 40,212.9 48,211.3 56,209.8 64,208.4 72,207.1 80,205.9 88,204.9 96,203.9 104,203.1 112,202.5 120,202.0 128,201.7 136,201.5 144,201.5 152,201.6 160,202.0 168,202.5 176,203.2 184,204.1 192,205.1 200,206.3 208,207.7 216,209.3 224,211.1 232,213.0 240,215.0 248,217.3 256,219.6 264,222.1 272,224.7 280,227.5 288,230.3 296,233.3 304,236.3 312,239.4 320,242.6 328,245.8 336,249.0 344,252.2 352,255.5 360,258.7 368,262.0 376,265.1 384,268.3 392,271.3 400,274.3 408,277.1 416,279.9 424,282.5 432,285.0 440,287.4 448,289.5 456,291.5 464,293.3 472,295.0 480,296.4 488,297.6 496,298.5 504,299.3 512,299.8 520,300.1 528,300.1 536,299.9 544,299.5 552,298.8 560,297.9 568,296.7 576,295.3 584,293.7 592,291.8 600,289.7 608,287.4 616,284.9 624,282.2 632,279.4 640,276.3 648,273.1 656,269.8 664,266.3 672,262.7 680,259.0 688,255.2 696,251.3 704,247.4 712,243.5 720,239.5 728,235.5 736,231.6 744,227.6 752,223.8 760,220.0 768,216.2 776,212.6 784,209.1 792,205.7 800,202.4 808,199.4 816,196.4 824,193.7 832,191.2 840,188.8 848,186.7 856,184.8 864,183.2 872,181.8 880,180.6 888,179.7 896,179.0 904,178.6 912,178.4 920,178.5 928,178.9 936,179.5 944,180.3 952,181.4 960,182.7 968,184.3 976,186.1 984,188.1 992,190.3 1000,192.7 1008,195.3 1016,198.0 1024,200.9 1032,204.0 1040,207.2 1048,210.5 1056,213.9 1064,217.4 1072,220.9 1080,224.5 1088,228.1 1096,231.8 1104,235.5 1112,239.1 1120,242.7 1128,246.3 1136,249.9 1144,253.3 1152,256.7 1160,259.9 1168,263.1 1176,266.1 1184,269.0 1192,271.7 1200,274.3 1208,276.7 1216,278.9 1224,280.9 1232,282.8 1240,284.4 1248,285.9 1256,287.1 1264,288.2 1272,289.0 1280,289.6 1288,290.0 1296,290.2 1304,290.2 1312,290.0 1320,289.6 1328,289.0 1336,288.2 1344,287.2 1352,286.1 1360,284.8 1368,283.3 1376,281.7 1384,279.9 1392,278.1 1400,276.1 1408,274.0 1416,271.8 1424,269.5 1432,267.2 1440,264.8 1448,262.3 1456,259.8 1464,257.3 1472,254.8 1480,252.3 1488,249.8 1496,247.4 1504,244.9 1512,242.5 1520,240.2 1528,237.9 1536,235.8 1544,233.7 1552,231.6 1560,229.7 1568,227.9 1576,226.2 1584,224.6 1592,223.2 1600,221.8" fill="none" stroke="#8a8f98" stroke-width="0.8" opacity="0.35"/><polyline points="0,219.6 8,218.0 16,216.5 24,215.1 32,213.8 40,212.6 48,211.4 56,210.5 64,209.6 72,208.9 80,208.3 88,207.8 96,207.6 104,207.4 112,207.5 120,207.7 128,208.0 136,208.6 144,209.3 152,210.2 160,211.2 168,212.5 176,213.9 184,215.4 192,217.2 200,219.1 208,221.1 216,223.3 224,225.6 232,228.1 240,230.7 248,233.4 256,236.1 264,239.0 272,242.0 280,245.0 288,248.1 296,251.3 304,254.4 312,257.6 320,260.8 328,264.0 336,267.1 344,270.2 352,273.2 360,276.2 368,279.1 376,281.9 384,284.5 392,287.1 400,289.5 408,291.8 416,293.8 424,295.8 432,297.5 440,299.0 448,300.3 456,301.5 464,302.4 472,303.0 480,303.5 488,303.7 496,303.6 504,303.4 512,302.8 520,302.1 528,301.1 536,299.9 544,298.4 552,296.7 560,294.8 568,292.6 576,290.3 584,287.7 592,285.0 600,282.1 608,279.0 616,275.7 624,272.3 632,268.8 640,265.2 648,261.5 656,257.6 664,253.8 672,249.8 680,245.9 688,241.9 696,237.9 704,233.9 712,230.0 720,226.1 728,222.3 736,218.6 744,215.0 752,211.5 760,208.1 768,204.9 776,201.8 784,198.9 792,196.2 800,193.7 808,191.4 816,189.4 824,187.5 832,185.9 840,184.6 848,183.5 856,182.6 864,182.0 872,181.7 880,181.6 888,181.8 896,182.2 904,182.9 912,183.9 920,185.0 928,186.5 936,188.1 944,190.0 952,192.1 960,194.5 968,197.0 976,199.7 984,202.5 992,205.6 1000,208.7 1008,212.0 1016,215.5 1024,219.0 1032,222.6 1040,226.2 1048,229.9 1056,233.7 1064,237.5 1072,241.2 1080,245.0 1088,248.7 1096,252.4 1104,256.0 1112,259.5 1120,262.9 1128,266.3 1136,269.5 1144,272.6 1152,275.5 1160,278.3 1168,280.9 1176,283.3 1184,285.6 1192,287.6 1200,289.5 1208,291.2 1216,292.6 1224,293.8 1232,294.8 1240,295.6 1248,296.2 1256,296.6 1264,296.7 1272,296.6 1280,296.4 1288,295.9 1296,295.2 1304,294.3 1312,293.2 1320,292.0 1328,290.6 1336,289.0 1344,287.2 1352,285.4 1360,283.4 1368,281.2 1376,279.0 1384,276.7 1392,274.2 1400,271.7 1408,269.2 1416,266.6 1424,264.0 1432,261.3 1440,258.7 1448,256.0 1456,253.4 1464,250.8 1472,248.2 1480,245.7 1488,243.2 1496,240.8 1504,238.5 1512,236.3 1520,234.2 1528,232.2 1536,230.3 1544,228.5 1552,226.8 1560,225.3 1568,223.8 1576,222.6 1584,221.4 1592,220.4 1600,219.6" fill="none" stroke="#8a8f98" stroke-width="0.8" opacity="0.35"/><polyline points="0,219.2 8,218.1 16,217.1 24,216.1 32,215.4 40,214.7 48,214.2 56,213.8 64,213.5 72,213.4 80,213.5 88,213.7 96,214.1 104,214.7 112,215.4 120,216.3 128,217.4 136,218.6 144,220.0 152,221.6 160,223.3 168,225.1 176,227.1 184,229.3 192,231.6 200,234.0 208,236.5 216,239.2 224,241.9 232,244.7 240,247.6 248,250.6 256,253.6 264,256.7 272,259.8 280,262.9 288,266.0 296,269.1 304,272.1 312,275.1 320,278.1 328,281.0 336,283.8 344,286.5 352,289.0 360,291.5 368,293.8 376,296.0 384,298.0 392,299.8 400,301.5 408,302.9 416,304.1 424,305.2 432,306.0 440,306.6 448,307.0 456,307.1 464,307.0 472,306.6 480,306.0 488,305.2 496,304.2 504,302.9 512,301.3 520,299.6 528,297.6 536,295.4 544,293.0 552,290.4 560,287.6 568,284.7 576,281.5 584,278.3 592,274.8 600,271.3 608,267.6 616,263.9 624,260.1 632,256.2 640,252.2 648,248.2 656,244.3 664,240.3 672,236.3 680,232.4 688,228.5 696,224.7 704,221.0 712,217.4 720,213.9 728,210.6 736,207.4 744,204.4 752,201.5 760,198.9 768,196.4 776,194.2 784,192.2 792,190.4 800,188.9 808,187.6 816,186.5 824,185.7 832,185.2 840,185.0 848,185.0 856,185.2 864,185.8 872,186.5 880,187.6 888,188.9 896,190.4 904,192.2 912,194.2 920,196.4 928,198.8 936,201.4 944,204.2 952,207.2 960,210.4 968,213.6 976,217.0 984,220.6 992,224.2 1000,227.9 1008,231.7 1016,235.5 1024,239.3 1032,243.2 1040,247.1 1048,250.9 1056,254.7 1064,258.5 1072,262.2 1080,265.8 1088,269.3 1096,272.7 1104,275.9 1112,279.1 1120,282.1 1128,284.9 1136,287.5 1144,290.0 1152,292.2 1160,294.3 1168,296.2 1176,297.8 1184,299.3 1192,300.5 1200,301.5 1208,302.2 1216,302.7 1224,303.1 1232,303.1 1240,303.0 1248,302.6 1256,302.1 1264,301.3 1272,300.3 1280,299.1 1288,297.8 1296,296.2 1304,294.5 1312,292.7 1320,290.7 1328,288.5 1336,286.3 1344,283.9 1352,281.4 1360,278.8 1368,276.2 1376,273.5 1384,270.8 1392,268.0 1400,265.2 1408,262.4 1416,259.6 1424,256.8 1432,254.1 1440,251.4 1448,248.7 1456,246.1 1464,243.6 1472,241.2 1480,238.8 1488,236.6 1496,234.5 1504,232.5 1512,230.6 1520,228.9 1528,227.2 1536,225.8 1544,224.4 1552,223.2 1560,222.2 1568,221.3 1576,220.6 1584,220.0 1592,219.5 1600,219.2" fill="none" stroke="#8a8f98" stroke-width="0.8" opacity="0.36"/><polyline points="0,221.2 8,220.6 16,220.1 24,219.8 32,219.6 40,219.5 48,219.6 56,219.9 64,220.3 72,220.9 80,221.6 88,222.5 96,223.6 104,224.8 112,226.2 120,227.7 128,229.4 136,231.2 144,233.2 152,235.3 160,237.5 168,239.9 176,242.4 184,245.0 192,247.6 200,250.4 208,253.2 216,256.1 224,259.1 232,262.0 240,265.0 248,268.1 256,271.1 264,274.1 272,277.0 280,279.9 288,282.8 296,285.6 304,288.3 312,290.9 320,293.4 328,295.7 336,298.0 344,300.0 352,302.0 360,303.7 368,305.2 376,306.6 384,307.8 392,308.7 400,309.5 408,310.0 416,310.3 424,310.3 432,310.1 440,309.7 448,309.1 456,308.2 464,307.1 472,305.7 480,304.1 488,302.3 496,300.3 504,298.1 512,295.6 520,293.0 528,290.2 536,287.2 544,284.0 552,280.7 560,277.3 568,273.7 576,270.1 584,266.3 592,262.5 600,258.5 608,254.6 616,250.6 624,246.6 632,242.7 640,238.7 648,234.8 656,231.0 664,227.2 672,223.5 680,219.9 688,216.5 696,213.2 704,210.0 712,207.1 720,204.3 728,201.6 736,199.2 744,197.1 752,195.1 760,193.4 768,191.9 776,190.7 784,189.7 792,189.0 800,188.6 808,188.4 816,188.5 824,188.9 832,189.5 840,190.4 848,191.5 856,192.9 864,194.5 872,196.4 880,198.5 888,200.8 896,203.3 904,206.1 912,209.0 920,212.1 928,215.3 936,218.7 944,222.2 952,225.8 960,229.6 968,233.4 976,237.2 984,241.1 992,245.1 1000,249.1 1008,253.0 1016,256.9 1024,260.8 1032,264.7 1040,268.4 1048,272.1 1056,275.7 1064,279.1 1072,282.4 1080,285.6 1088,288.6 1096,291.5 1104,294.1 1112,296.6 1120,298.9 1128,301.0 1136,302.8 1144,304.5 1152,305.9 1160,307.0 1168,308.0 1176,308.7 1184,309.2 1192,309.4 1200,309.5 1208,309.3 1216,308.8 1224,308.2 1232,307.3 1240,306.2 1248,304.9 1256,303.5 1264,301.8 1272,300.0 1280,298.0 1288,295.8 1296,293.6 1304,291.2 1312,288.6 1320,286.0 1328,283.3 1336,280.5 1344,277.7 1352,274.8 1360,271.9 1368,268.9 1376,266.0 1384,263.0 1392,260.1 1400,257.2 1408,254.4 1416,251.6 1424,248.9 1432,246.2 1440,243.7 1448,241.2 1456,238.9 1464,236.7 1472,234.6 1480,232.6 1488,230.8 1496,229.1 1504,227.6 1512,226.2 1520,225.0 1528,223.9 1536,223.0 1544,222.2 1552,221.6 1560,221.2 1568,220.9 1576,220.7 1584,220.8 1592,220.9 1600,221.2" fill="none" stroke="#8a8f98" stroke-width="0.8" opacity="0.37"/><polyline points="0,225.7 8,225.7 16,225.8 24,226.1 32,226.5 40,227.1 48,227.8 56,228.7 64,229.8 72,231.0 80,232.3 88,233.8 96,235.5 104,237.3 112,239.2 120,241.3 128,243.4 136,245.7 144,248.2 152,250.7 160,253.3 168,256.0 176,258.7 184,261.5 192,264.4 200,267.3 208,270.2 216,273.1 224,276.0 232,278.9 240,281.8 248,284.6 256,287.4 264,290.1 272,292.7 280,295.2 288,297.6 296,299.8 304,302.0 312,303.9 320,305.8 328,307.4 336,308.9 344,310.2 352,311.2 360,312.1 368,312.8 376,313.2 384,313.4 392,313.4 400,313.2 408,312.7 416,312.0 424,311.0 432,309.9 440,308.5 448,306.8 456,305.0 464,302.9 472,300.6 480,298.2 488,295.5 496,292.7 504,289.6 512,286.5 520,283.1 528,279.7 536,276.1 544,272.4 552,268.7 560,264.8 568,260.9 576,257.0 584,253.0 592,249.1 600,245.1 608,241.2 616,237.3 624,233.5 632,229.7 640,226.1 648,222.6 656,219.1 664,215.9 672,212.8 680,209.8 688,207.1 696,204.6 704,202.2 712,200.1 720,198.2 728,196.6 736,195.2 744,194.0 752,193.1 760,192.5 768,192.1 776,192.0 784,192.2 792,192.7 800,193.4 808,194.3 816,195.6 824,197.1 832,198.8 840,200.8 848,203.0 856,205.4 864,208.0 872,210.9 880,213.9 888,217.1 896,220.4 904,223.9 912,227.5 920,231.2 928,235.1 936,239.0 944,242.9 952,246.9 960,250.9 968,255.0 976,259.0 984,263.0 992,267.0 1000,270.9 1008,274.7 1016,278.4 1024,282.1 1032,285.6 1040,288.9 1048,292.1 1056,295.2 1064,298.1 1072,300.7 1080,303.2 1088,305.5 1096,307.6 1104,309.4 1112,311.0 1120,312.4 1128,313.6 1136,314.5 1144,315.1 1152,315.6 1160,315.7 1168,315.7 1176,315.4 1184,314.9 1192,314.1 1200,313.2 1208,312.0 1216,310.6 1224,309.0 1232,307.2 1240,305.3 1248,303.2 1256,300.9 1264,298.5 1272,295.9 1280,293.3 1288,290.5 1296,287.6 1304,284.7 1312,281.7 1320,278.7 1328,275.6 1336,272.5 1344,269.4 1352,266.3 1360,263.3 1368,260.2 1376,257.3 1384,254.3 1392,251.5 1400,248.7 1408,246.1 1416,243.5 1424,241.1 1432,238.8 1440,236.6 1448,234.5 1456,232.7 1464,230.9 1472,229.3 1480,227.9 1488,226.6 1496,225.5 1504,224.6 1512,223.8 1520,223.2 1528,222.8 1536,222.5 1544,222.4 1552,222.4 1560,222.6 1568,223.0 1576,223.4 1584,224.1 1592,224.8 1600,225.7" fill="none" stroke="#8a8f98" stroke-width="0.8" opacity="0.37"/><polyline points="0,232.7 8,233.3 16,234.1 24,234.9 32,236.0 40,237.1 48,238.5 56,239.9 64,241.5 72,243.3 80,245.2 88,247.2 96,249.3 104,251.5 112,253.9 120,256.3 128,258.8 136,261.4 144,264.1 152,266.8 160,269.6 168,272.4 176,275.2 184,278.0 192,280.8 200,283.6 208,286.4 216,289.1 224,291.8 232,294.4 240,296.9 248,299.3 256,301.6 264,303.8 272,305.8 280,307.7 288,309.4 296,311.0 304,312.3 312,313.5 320,314.5 328,315.3 336,315.9 344,316.3 352,316.4 360,316.3 368,316.0 376,315.5 384,314.7 392,313.7 400,312.5 408,311.1 416,309.4 424,307.5 432,305.4 440,303.1 448,300.6 456,297.9 464,295.1 472,292.0 480,288.8 488,285.5 496,282.1 504,278.5 512,274.8 520,271.0 528,267.2 536,263.3 544,259.4 552,255.5 560,251.5 568,247.6 576,243.7 584,239.9 592,236.1 600,232.4 608,228.8 616,225.3 624,221.9 632,218.7 640,215.7 648,212.8 656,210.1 664,207.6 672,205.3 680,203.3 688,201.5 696,199.9 704,198.6 712,197.5 720,196.7 728,196.1 736,195.9 744,195.9 752,196.1 760,196.7 768,197.5 776,198.5 784,199.9 792,201.4 800,203.3 808,205.3 816,207.6 824,210.1 832,212.9 840,215.8 848,218.9 856,222.2 864,225.6 872,229.2 880,232.9 888,236.7 896,240.7 904,244.6 912,248.7 920,252.8 928,256.9 936,261.0 944,265.1 952,269.2 960,273.2 968,277.2 976,281.0 984,284.8 992,288.5 1000,292.0 1008,295.4 1016,298.7 1024,301.7 1032,304.6 1040,307.3 1048,309.8 1056,312.1 1064,314.1 1072,315.9 1080,317.5 1088,318.9 1096,320.0 1104,320.8 1112,321.5 1120,321.8 1128,321.9 1136,321.8 1144,321.4 1152,320.8 1160,320.0 1168,318.9 1176,317.6 1184,316.1 1192,314.4 1200,312.5 1208,310.4 1216,308.2 1224,305.8 1232,303.2 1240,300.5 1248,297.7 1256,294.8 1264,291.8 1272,288.7 1280,285.6 1288,282.4 1296,279.2 1304,275.9 1312,272.7 1320,269.5 1328,266.3 1336,263.1 1344,260.0 1352,257.0 1360,254.0 1368,251.1 1376,248.4 1384,245.7 1392,243.2 1400,240.8 1408,238.5 1416,236.4 1424,234.4 1432,232.6 1440,231.0 1448,229.5 1456,228.2 1464,227.1 1472,226.1 1480,225.4 1488,224.8 1496,224.3 1504,224.1 1512,224.0 1520,224.1 1528,224.3 1536,224.7 1544,225.3 1552,226.0 1560,226.8 1568,227.8 1576,228.8 1584,230.0 1592,231.3 1600,232.7" fill="none" stroke="#8a8f98" stroke-width="0.8" opacity="0.38"/><polyline points="0,242.1 8,243.3 16,244.6 24,246.0 32,247.6 40,249.3 48,251.1 56,253.0 64,255.1 72,257.3 80,259.5 88,261.9 96,264.3 104,266.8 112,269.4 120,272.0 128,274.7 136,277.4 144,280.1 152,282.8 160,285.5 168,288.2 176,290.9 184,293.5 192,296.1 200,298.6 208,301.0 216,303.3 224,305.4 232,307.5 240,309.5 248,311.2 256,312.9 264,314.3 272,315.6 280,316.7 288,317.7 296,318.4 304,318.9 312,319.2 320,319.3 328,319.1 336,318.7 344,318.2 352,317.3 360,316.3 368,315.0 376,313.5 384,311.8 392,309.9 400,307.8 408,305.5 416,303.0 424,300.3 432,297.4 440,294.4 448,291.2 456,287.8 464,284.4 472,280.8 480,277.2 488,273.4 496,269.6 504,265.8 512,261.9 520,258.0 528,254.0 536,250.2 544,246.3 552,242.5 560,238.7 568,235.1 576,231.5 584,228.1 592,224.8 600,221.7 608,218.7 616,215.9 624,213.2 632,210.8 640,208.6 648,206.7 656,204.9 664,203.4 672,202.2 680,201.2 688,200.4 696,200.0 704,199.8 712,199.9 720,200.2 728,200.9 736,201.7 744,202.9 752,204.3 760,206.0 768,207.9 776,210.1 784,212.5 792,215.1 800,217.9 808,220.9 816,224.1 824,227.5 832,231.0 840,234.7 848,238.5 856,242.4 864,246.4 872,250.4 880,254.6 888,258.7 896,262.9 904,267.1 912,271.3 920,275.4 928,279.5 936,283.5 944,287.4 952,291.2 960,294.9 968,298.5 976,301.9 984,305.2 992,308.3 1000,311.1 1008,313.8 1016,316.3 1024,318.6 1032,320.6 1040,322.4 1048,323.9 1056,325.3 1064,326.3 1072,327.1 1080,327.7 1088,328.0 1096,328.0 1104,327.8 1112,327.3 1120,326.6 1128,325.7 1136,324.5 1144,323.1 1152,321.5 1160,319.7 1168,317.6 1176,315.4 1184,313.0 1192,310.5 1200,307.8 1208,305.0 1216,302.0 1224,299.0 1232,295.8 1240,292.6 1248,289.3 1256,286.0 1264,282.6 1272,279.2 1280,275.8 1288,272.5 1296,269.1 1304,265.9 1312,262.6 1320,259.5 1328,256.4 1336,253.4 1344,250.5 1352,247.8 1360,245.1 1368,242.7 1376,240.3 1384,238.1 1392,236.1 1400,234.2 1408,232.6 1416,231.1 1424,229.7 1432,228.6 1440,227.6 1448,226.9 1456,226.3 1464,225.9 1472,225.7 1480,225.6 1488,225.7 1496,226.0 1504,226.5 1512,227.1 1520,227.9 1528,228.8 1536,229.9 1544,231.1 1552,232.4 1560,233.8 1568,235.3 1576,236.9 1584,238.6 1592,240.3 1600,242.1" fill="none" stroke="#8a8f98" stroke-width="0.8" opacity="0.39"/><polyline points="0,253.6 8,255.2 16,257.0 24,258.8 32,260.8 40,262.9 48,265.1 56,267.3 64,269.7 72,272.1 80,274.6 88,277.1 96,279.7 104,282.3 112,284.9 120,287.5 128,290.1 136,292.7 144,295.2 152,297.8 160,300.2 168,302.6 176,304.9 184,307.1 192,309.2 200,311.1 208,313.0 216,314.7 224,316.2 232,317.6 240,318.8 248,319.8 256,320.6 264,321.3 272,321.7 280,321.9 288,322.0 296,321.8 304,321.3 312,320.7 320,319.8 328,318.7 336,317.4 344,315.9 352,314.2 360,312.3 368,310.1 376,307.8 384,305.3 392,302.5 400,299.7 408,296.6 416,293.5 424,290.1 432,286.7 440,283.2 448,279.5 456,275.8 464,272.0 472,268.2 480,264.4 488,260.5 496,256.6 504,252.8 512,249.0 520,245.2 528,241.5 536,237.9 544,234.4 552,231.1 560,227.8 568,224.8 576,221.8 584,219.1 592,216.6 600,214.2 608,212.1 616,210.2 624,208.5 632,207.1 640,205.9 648,205.0 656,204.4 664,204.0 672,203.9 680,204.1 688,204.5 696,205.2 704,206.2 712,207.5 720,209.0 728,210.7 736,212.7 744,215.0 752,217.5 760,220.2 768,223.1 776,226.2 784,229.5 792,232.9 800,236.5 808,240.3 816,244.2 824,248.1 832,252.2 840,256.3 848,260.5 856,264.8 864,269.0 872,273.2 880,277.5 888,281.6 896,285.8 904,289.8 912,293.8 920,297.6 928,301.4 936,304.9 944,308.4 952,311.6 960,314.7 968,317.6 976,320.3 984,322.8 992,325.0 1000,327.0 1008,328.8 1016,330.3 1024,331.5 1032,332.5 1040,333.3 1048,333.7 1056,334.0 1064,333.9 1072,333.6 1080,333.1 1088,332.3 1096,331.2 1104,329.9 1112,328.4 1120,326.7 1128,324.7 1136,322.6 1144,320.3 1152,317.7 1160,315.1 1168,312.2 1176,309.3 1184,306.2 1192,303.0 1200,299.7 1208,296.3 1216,292.9 1224,289.4 1232,285.9 1240,282.4 1248,278.9 1256,275.4 1264,271.9 1272,268.5 1280,265.1 1288,261.8 1296,258.7 1304,255.6 1312,252.6 1320,249.7 1328,247.0 1336,244.5 1344,242.0 1352,239.8 1360,237.7 1368,235.8 1376,234.1 1384,232.6 1392,231.2 1400,230.1 1408,229.1 1416,228.4 1424,227.8 1432,227.4 1440,227.2 1448,227.2 1456,227.4 1464,227.8 1472,228.3 1480,229.0 1488,229.9 1496,230.9 1504,232.0 1512,233.3 1520,234.7 1528,236.3 1536,237.9 1544,239.6 1552,241.5 1560,243.4 1568,245.3 1576,247.3 1584,249.4 1592,251.5 1600,253.6" fill="none" stroke="#8a8f98" stroke-width="0.8" opacity="0.39"/>
</svg>